<svg width="214" height="242" viewBox="0 0 214 242" fill="none" xmlns="http://www.w3.org/2000/svg">
<path d="M74.3622 155.976C75.221 155.454 77.7994 153.57 76.803 151.931C75.8065 150.291 72.9466 151.713 72.0884 152.234C22.1734 182.569 21.5923 185.484 21.5923 185.484C21.5923 185.484 24.3036 186.397 74.3622 155.976Z" fill="black" fill-opacity="0.11"/>
<path d="M116.639 106.037C117.499 105.516 120.077 103.632 119.081 101.993C118.084 100.353 115.224 101.775 114.366 102.296C64.4509 132.63 63.8701 135.545 63.8701 135.545C63.8701 135.545 66.5812 136.459 116.639 106.037Z" fill="black" fill-opacity="0.11"/>
<path d="M83.6855 35.3772C84.3606 34.9678 86.3532 33.4398 85.3571 31.8002C84.3606 30.1607 82.0854 31.2262 81.4117 31.6362C42.2415 55.4416 42.0303 58.1313 42.0303 58.1313C42.0303 58.1313 44.4025 59.2508 83.6855 35.3772Z" fill="black" fill-opacity="0.11"/>
<path d="M89.0348 74.3056C89.8936 73.7832 92.4717 71.8998 91.4756 70.2602C90.4792 68.6206 87.6192 70.0422 86.7604 70.564C36.8458 100.899 36.2646 103.813 36.2646 103.813C36.2646 103.813 38.976 104.727 89.0348 74.3056Z" fill="black" fill-opacity="0.11"/>
<path d="M0 234.979C16.5492 226.304 30.0163 227.121 41.9598 227.939C51.7037 228.606 60.434 229.273 68.9964 224.784C88.0537 214.794 81.3163 192.35 81.3163 192.35C81.3163 192.35 66.6899 174.043 47.6335 184.033C28.5758 194.024 30.0516 219.225 0 234.979Z" fill="#FF0025"/>
<path d="M28.9824 219.786C39.6335 214.202 48.3002 214.728 55.9872 215.254C62.2583 215.684 67.8773 216.113 73.3875 213.225C85.6526 206.794 81.3165 192.35 81.3165 192.35C81.3165 192.35 71.9037 180.567 59.6383 186.998C47.3738 193.427 48.3231 209.647 28.9824 219.786Z" fill="#FACE12"/>
<path d="M46.4097 181.276C46.4097 181.276 48.2346 153.043 65.1446 146.838C82.0542 140.634 99.0855 158.466 99.0855 158.466L79.9098 176.035C79.9098 176.035 62.5489 156.003 46.4097 181.276Z" fill="#FF0025"/>
<path d="M49.4321 174.099C51.1539 165.666 55.4573 152.465 65.8143 148.666C68.0727 147.838 70.3432 147.484 72.5799 147.484C74.2901 147.484 75.9804 147.691 77.6247 148.053C77.6573 148.153 77.6905 148.254 77.7255 148.355C76.7914 148.245 75.846 148.185 74.8923 148.185C72.4369 148.185 69.9279 148.577 67.4228 149.496C57.9657 152.966 53.2277 163.323 50.8881 171.781C50.7124 172.224 50.5454 172.667 50.3847 173.11C50.0649 173.428 49.7475 173.758 49.4321 174.099Z" fill="#FF99A8"/>
<path d="M72.5802 147.484C70.3435 147.484 68.0729 147.838 65.8146 148.666C55.4575 152.465 51.1541 165.665 49.4324 174.099C53.7002 169.482 58.3655 166.967 63.3622 166.602C71.1052 166.032 77.3111 170.841 79.9776 173.333L96.2349 158.437C92.6802 155.224 83.031 147.484 72.5802 147.484ZM46.4099 183.222C46.2081 183.222 46.0037 183.191 45.8041 183.126C44.9601 182.85 44.4105 182.037 44.4674 181.15C44.5448 179.946 46.5792 151.577 64.474 145.011C82.3733 138.443 99.7617 156.355 100.493 157.121C100.855 157.5 101.048 158.008 101.03 158.53C101.013 159.053 100.786 159.547 100.4 159.901L81.2244 177.47C80.8373 177.826 80.3214 178.004 79.7981 177.979C79.2734 177.948 78.783 177.707 78.4389 177.31C78.376 177.238 71.8427 169.867 63.6212 170.486C58.038 170.904 52.7996 174.887 48.0503 182.323C47.6857 182.895 47.0601 183.222 46.4099 183.222Z" fill="#000072"/>
<path d="M50.5859 172.912C50.6815 172.54 50.7826 172.161 50.8882 171.781C53.6221 164.848 58.1314 157.925 65.5244 155.212C68.0304 154.292 70.538 153.901 72.9939 153.901C78.3492 153.901 83.4533 155.765 87.7235 158.077C86.3853 159.306 85.1003 160.558 83.8716 161.829C81.8737 163.894 80.2279 165.798 78.8945 167.468C77.9666 168.63 77.1897 169.678 76.5516 170.587C73.5863 168.559 69.4407 166.556 64.6288 166.556C64.2111 166.556 63.789 166.571 63.3621 166.603C58.8119 166.934 54.5372 169.05 50.5859 172.912Z" fill="#BF0038"/>
<path d="M50.3848 173.11C50.5455 172.666 50.7126 172.224 50.8882 171.78C50.7826 172.161 50.6814 172.539 50.5859 172.911C50.5191 172.977 50.4515 173.043 50.3848 173.11Z" fill="#BF739A"/>
<path d="M48.3101 180.171C48.8209 177.974 49.496 175.558 50.3848 173.11C50.4515 173.043 50.5192 172.977 50.5859 172.911C54.5372 169.05 58.8119 166.934 63.3621 166.602C63.789 166.571 64.2111 166.556 64.6288 166.556C69.4407 166.556 73.5863 168.559 76.5515 170.586C75.9259 171.477 75.4332 172.234 75.0609 172.834C72.4151 171.161 68.9296 169.642 64.9913 169.642C59.9062 169.642 54.067 172.174 48.3101 180.171Z" fill="#000072"/>
<path d="M66.3911 225.894C66.3911 225.894 86.835 245.452 103.485 238.581C120.135 231.71 120.615 207.057 120.615 207.057L94.6068 207.091C94.6068 207.091 95.3739 233.588 66.3911 225.894Z" fill="#FF0025"/>
<path d="M73.4726 229.136C80.4456 234.182 92.5442 240.99 102.743 236.783C115.385 231.565 118.005 214.797 118.537 209.006L96.4843 209.035C96.2069 212.674 94.8871 220.411 88.8027 225.233C84.876 228.344 79.7384 229.649 73.4726 229.136ZM95.8174 242C80.617 242 65.7812 228.005 65.0452 227.301C64.4036 226.688 64.2585 225.717 64.6937 224.943C65.128 224.168 66.0319 223.787 66.8907 224.014C75.4195 226.277 81.9712 225.666 86.3651 222.197C92.8361 217.089 92.6635 207.243 92.6605 207.144C92.6478 206.62 92.8465 206.111 93.2126 205.735C93.578 205.36 94.08 205.145 94.6038 205.145L120.612 205.11H120.615C121.137 205.11 121.637 205.321 122.003 205.693C122.37 206.066 122.571 206.572 122.56 207.095C122.54 208.153 121.854 233.107 104.228 240.381C101.471 241.519 98.637 242 95.8174 242Z" fill="#000072"/>
<path d="M89.5223 233.718C83.9507 233.718 78.3604 231.676 73.5708 229.144C74.4216 229.211 75.2507 229.244 76.0597 229.244C81.1658 229.244 85.4307 227.905 88.8023 225.233C93.939 221.161 95.6803 215.012 96.2644 211.006C98.5967 211.287 101.773 211.537 105.693 211.537C107.519 211.537 109.505 211.482 111.643 211.352C111.993 211.331 112.349 211.307 112.712 211.281C110.794 218.855 106.547 228.381 97.1591 232.256C94.6712 233.282 92.0989 233.718 89.5223 233.718Z" fill="#BF0038"/>
<path d="M76.0599 229.245C75.2509 229.245 74.4218 229.211 73.571 229.144C71.9947 228.31 70.5046 227.423 69.1309 226.539C71.6802 227.06 73.9745 227.294 76.04 227.294C89.9972 227.294 93.4724 216.561 94.3306 210.741C94.4709 210.763 94.6174 210.785 94.7693 210.807C95.2205 210.874 95.7194 210.94 96.2647 211.007C95.6806 215.012 93.9393 221.162 88.8026 225.233C85.4309 227.905 81.166 229.245 76.0599 229.245Z" fill="#000072"/>
<path d="M92.0177 208.403L85.8561 209.633C83.0682 210.19 80.181 209.261 78.3385 207.215C72.8526 201.123 69.2422 193.734 67.8996 185.849C67.4487 183.201 68.5786 180.534 70.8423 178.905L75.8461 175.304L92.0177 208.403Z" fill="#FF0025"/>
<path d="M75.1106 178.232L71.9796 180.486C70.321 181.679 69.4925 183.609 69.8188 185.522C71.1 193.044 74.5461 200.095 79.7855 205.913C81.1729 207.454 83.3523 208.149 85.4748 207.724L89.1603 206.988L75.1106 178.232ZM84.2476 211.738C81.4523 211.738 78.754 210.586 76.8929 208.519C71.1593 202.152 67.3857 194.425 65.9808 186.176C65.4038 182.785 66.8307 179.394 69.7058 177.325L74.7096 173.724C75.175 173.39 75.765 173.277 76.321 173.416C76.8769 173.556 77.3432 173.935 77.5953 174.45L93.7669 207.549C94.0321 208.091 94.0298 208.725 93.7625 209.266C93.4943 209.807 92.9909 210.194 92.3994 210.311L86.2375 211.542C85.5751 211.674 84.9085 211.738 84.2476 211.738Z" fill="#000072"/>
<path d="M86.8835 207.443C85.2469 207.108 83.7403 206.277 82.6195 205.033C82.125 204.484 81.6466 203.925 81.1835 203.356C82.0865 202.9 82.9375 202.395 83.7382 201.843C85.0968 203.702 86.586 205.485 88.1974 207.181L86.8835 207.443ZM73.4224 188.891C72.8967 187.181 72.4814 185.436 72.18 183.666C71.9718 182.445 72.1002 181.221 72.52 180.096L74.3108 178.807C74.5013 180.139 74.7436 181.46 75.0361 182.761C75.4437 184.568 75.9489 186.346 76.5466 188.089C75.5143 188.28 74.4725 188.547 73.4224 188.891Z" fill="#CC0034"/>
<path d="M88.5285 207.609C87.9726 207.609 87.4214 207.553 86.8836 207.443L88.1974 207.181C88.3333 207.325 88.47 207.467 88.6083 207.609C88.5816 207.609 88.5552 207.609 88.5285 207.609ZM72.52 180.096C72.8695 179.161 73.4209 178.295 74.1483 177.557C74.197 177.974 74.2515 178.391 74.3109 178.807L72.52 180.096Z" fill="#000072"/>
<path d="M182.573 181.276C176.617 186.084 169.464 190.814 160.875 195.189C120.895 215.557 92.1609 208.351 92.1609 208.351C84.414 201.222 79.1545 192.166 76.9353 182.332C76.4144 180.021 76.0643 177.67 75.8843 175.29C75.8843 175.29 78.4974 170.181 85.2707 163.184C88.9106 159.417 93.7524 155.106 100.044 150.746C106.287 146.42 113.957 142.046 123.294 138.113C125.825 137.043 128.476 136.011 131.255 135.019C135.133 133.637 138.9 132.479 142.54 131.52C148.846 129.861 154.793 128.795 160.34 128.187C159.956 133 158.569 163.291 182.569 181.271L182.573 181.276Z" fill="white"/>
<path d="M93.0978 206.564C94.8534 206.925 101.511 208.092 111.604 207.453C122.493 206.766 139.727 203.779 159.992 193.454C167.099 189.834 173.626 185.744 179.426 181.278C170.028 173.557 163.639 163.136 160.422 150.263C158.305 141.796 158.147 134.365 158.273 130.395C153.255 131.05 148.141 132.058 143.035 133.402C139.36 134.37 135.617 135.531 131.909 136.852C129.19 137.823 126.546 138.851 124.053 139.906C115.686 143.429 107.982 147.614 101.153 152.345C95.7261 156.106 90.8537 160.208 86.6701 164.536C81.3513 170.03 78.6651 174.345 77.8722 175.719C78.0552 177.805 78.3789 179.883 78.8336 181.905C80.9457 191.266 85.8742 199.782 93.0978 206.564ZM105.689 211.536C96.9797 211.536 91.9397 210.302 91.6876 210.239C91.3722 210.16 91.0821 210.004 90.843 209.784C82.8268 202.406 77.3605 193.061 75.036 182.761C74.4976 180.368 74.13 177.904 73.9431 175.437C73.9159 175.08 73.9879 174.723 74.1511 174.404C74.2629 174.185 76.9754 168.954 83.8716 161.83C88.2313 157.32 93.2998 153.052 98.9352 149.146C105.986 144.261 113.928 139.946 122.539 136.319C125.098 135.237 127.811 134.182 130.601 133.185C134.413 131.827 138.262 130.633 142.044 129.638C148.11 128.041 154.194 126.902 160.128 126.251C160.706 126.188 161.28 126.386 161.696 126.79C162.112 127.194 162.326 127.763 162.28 128.341C161.836 133.903 160.782 162.517 183.736 179.713C183.829 179.783 183.916 179.861 183.995 179.946C184.362 180.342 184.551 180.874 184.513 181.413C184.474 181.951 184.216 182.452 183.796 182.791C177.318 188.019 169.904 192.774 161.759 196.922C140.808 207.596 122.943 210.66 111.644 211.351C109.505 211.482 107.516 211.536 105.689 211.536Z" fill="#000072"/>
<path d="M211.877 136.761C211.877 136.761 209.167 159.803 182.573 181.276L182.569 181.271C158.569 163.291 159.956 133 160.34 128.187C192.836 124.63 211.877 136.761 211.877 136.761Z" fill="#298BD8"/>
<path d="M168.86 162.017C162.167 148.951 161.933 135.481 162.18 129.972C165.688 129.644 169.014 129.501 172.144 129.501C174.656 129.501 177.041 129.593 179.295 129.754C187.95 130.393 195.011 132.091 200.237 133.815C200.174 134.003 200.108 134.195 200.039 134.389C193.735 132.719 185.643 131.365 175.966 131.365C172.263 131.365 168.326 131.564 164.172 132.018C163.929 135.051 163.292 148.204 168.86 162.017ZM208.513 137.154C208.399 137.109 208.284 137.063 208.167 137.019C208.169 137.008 208.173 136.998 208.175 136.988C208.292 137.044 208.404 137.1 208.513 137.154Z" fill="#33AEF2"/>
<path d="M162.181 129.955C161.819 137.949 162.466 162.821 182.537 178.788C203.665 161.205 208.717 142.674 209.723 137.775C205.354 135.434 188.306 127.495 162.181 129.955ZM182.574 183.222C182.136 183.222 181.7 183.075 181.346 182.787C170.894 174.936 163.854 163.994 160.422 150.263C157.752 139.58 158.199 130.546 158.399 128.031C158.474 127.1 159.2 126.353 160.128 126.251C192.927 122.661 212.122 134.609 212.923 135.119C213.553 135.521 213.897 136.247 213.811 136.988C213.696 137.961 210.698 161.067 183.796 182.79C183.437 183.08 183.004 183.222 182.574 183.222Z" fill="#000072"/>
<path d="M93.0969 206.564C94.8534 206.925 101.51 208.091 111.603 207.454C122.491 206.767 139.726 203.781 159.991 193.456C183.708 181.371 196.027 166.535 202.184 156.217C207.36 147.542 209.172 140.517 209.728 137.773C207.424 136.531 201.586 133.715 192.793 131.723C182.157 129.312 164.89 127.648 143.034 133.402C139.36 134.369 135.618 135.529 131.911 136.851C129.196 137.822 126.55 138.849 124.05 139.905C115.686 143.428 107.982 147.612 101.151 152.346C95.7285 156.103 90.8567 160.204 86.6692 164.535C81.3513 170.032 78.6666 174.345 77.8731 175.719C78.0576 177.805 78.3804 179.883 78.836 181.903C80.9434 191.262 85.8713 199.779 93.0969 206.564ZM105.693 211.537C96.9806 211.537 91.9388 210.302 91.6867 210.238C91.3717 210.159 91.0815 210.003 90.8424 209.783C82.8221 202.403 77.3576 193.057 75.0381 182.758C74.4997 180.368 74.1315 177.905 73.9447 175.437C73.9174 175.08 73.9886 174.723 74.152 174.404C74.2644 174.185 76.974 168.957 83.8716 161.828C88.2343 157.316 93.3019 153.049 98.9337 149.146C105.986 144.259 113.928 139.943 122.537 136.319C125.103 135.234 127.817 134.179 130.603 133.185C134.414 131.825 138.263 130.631 142.044 129.637C164.763 123.655 182.761 125.43 193.86 127.973C205.977 130.749 212.647 134.941 212.925 135.119C213.555 135.52 213.9 136.247 213.812 136.988C213.769 137.357 212.667 146.162 205.653 157.999C199.241 168.821 186.42 184.358 161.758 196.924C140.807 207.598 122.941 210.662 111.643 211.352C109.506 211.482 107.519 211.537 105.693 211.537Z" fill="#000072"/>
<path d="M157.084 168.249C157.084 176.625 150.294 183.415 141.918 183.415C133.542 183.415 126.752 176.625 126.752 168.249C126.752 159.874 133.542 153.083 141.918 153.083C150.294 153.083 157.084 159.874 157.084 168.249Z" fill="#F6E458"/>
<path d="M141.918 155.03C134.628 155.03 128.698 160.961 128.698 168.25C128.698 175.539 134.628 181.469 141.918 181.469C149.207 181.469 155.137 175.539 155.137 168.25C155.137 160.961 149.207 155.03 141.918 155.03ZM141.918 185.362C132.481 185.362 124.805 177.686 124.805 168.25C124.805 158.814 132.481 151.137 141.918 151.137C151.353 151.137 159.03 158.814 159.03 168.25C159.03 177.686 151.353 185.362 141.918 185.362Z" fill="#000072"/>
<path d="M141.918 183.415C134.542 183.415 128.395 178.15 127.033 171.172C127.575 170.771 128.094 170.327 128.589 169.838C128.649 169.778 128.711 169.717 128.773 169.656C129.476 176.286 135.104 181.469 141.918 181.469C147.646 181.469 152.534 177.806 154.366 172.701C155.293 172.072 156.147 171.344 156.913 170.531C155.812 177.825 149.518 183.415 141.918 183.415Z" fill="#000072"/>
<path d="M89.0437 192.043C72.9564 182.79 56.5068 203.624 56.5068 203.624C56.5068 203.624 82.4203 209.379 89.0437 192.043Z" fill="#FF0025"/>
<path d="M64.3926 199.98C63.8376 199.975 63.2962 199.961 62.7729 199.941C66.9536 196.189 73.4465 191.649 80.3821 191.649C81.9018 191.649 83.4417 191.867 84.9842 192.359C84.814 192.569 84.6378 192.775 84.4595 192.974C83.4571 192.797 82.4613 192.714 81.4755 192.714C74.8885 192.714 68.7767 196.399 64.3926 199.98Z" fill="#FF99A8"/>
<path d="M60.3638 202.25C66.9663 203.002 81.2379 203.3 86.5187 192.942C75.8819 188.249 65.0078 197.494 60.3638 202.25ZM65.9927 206.487C60.5038 206.487 56.3042 205.572 56.0847 205.524C55.4309 205.378 54.8979 204.907 54.673 204.276C54.4481 203.645 54.5635 202.943 54.9791 202.417C55.1545 202.194 59.357 196.915 65.6684 192.74C74.3355 187.005 82.7552 186.179 90.0144 190.356C90.8444 190.833 91.2045 191.843 90.8628 192.737C87.8729 200.561 80.8264 205.24 70.4848 206.272C68.9315 206.426 67.4189 206.487 65.9927 206.487Z" fill="#000072"/>
<path d="M65.9519 202.573C64.3868 202.573 62.9302 202.493 61.665 202.381C62.4731 201.616 63.388 200.801 64.3927 199.98C64.5099 199.981 64.6267 199.981 64.7445 199.981C71.1547 199.981 79.3463 198.679 84.4595 192.974C85.0623 193.081 85.6684 193.222 86.2753 193.401C82.0902 200.975 72.9322 202.573 65.9519 202.573Z" fill="#B2003C"/>
<path d="M61.6649 202.381C61.2045 202.341 60.7696 202.296 60.3638 202.25C61.0413 201.556 61.85 200.768 62.7728 199.941C63.2961 199.962 63.8375 199.975 64.3925 199.98C63.3878 200.801 62.4729 201.616 61.6649 202.381ZM86.2751 193.401C85.6682 193.222 85.0621 193.081 84.4593 192.974C84.6376 192.775 84.8138 192.57 84.9841 192.359C85.4958 192.522 86.0078 192.716 86.5187 192.941C86.4398 193.097 86.3585 193.25 86.2751 193.401Z" fill="#B26B98"/>
<path d="M66.014 204.539C60.6335 204.539 56.5068 203.622 56.5068 203.622C56.5068 203.622 57.829 201.95 60.0882 199.762C60.9108 199.838 61.8114 199.902 62.7729 199.941C61.85 200.768 61.0414 201.556 60.3638 202.25C60.7696 202.296 61.2045 202.341 61.6649 202.381C62.9301 202.492 64.3866 202.573 65.9517 202.573C72.9321 202.573 82.0901 200.975 86.2752 193.401C86.3585 193.25 86.4398 193.097 86.5187 192.941C86.0079 192.716 85.4959 192.522 84.9842 192.359C85.4054 191.841 85.8026 191.29 86.1725 190.703C87.1286 191.051 88.0871 191.492 89.0437 192.042C88.0073 194.756 86.4976 196.904 84.6887 198.598C83.7448 198.448 83.0788 198.314 82.7095 198.234C83.0239 198.652 83.3452 199.066 83.6733 199.476C78.5929 203.544 71.6221 204.54 66.014 204.539Z" fill="#000072"/>
<path d="M118.604 173.946C115.464 173.946 112.356 172.905 109.873 170.859C110.772 171.137 111.704 171.334 112.66 171.446C113.287 171.52 113.913 171.556 114.535 171.556C118.303 171.556 121.927 170.223 124.812 167.763C124.808 167.924 124.805 168.087 124.805 168.249C124.805 169.637 124.971 170.985 125.284 172.278C123.192 173.395 120.89 173.946 118.604 173.946ZM134.676 152.746C135.032 151.285 135.212 149.784 135.161 148.253C135.115 146.902 134.89 145.588 134.488 144.314C136.39 146.763 137.3 149.26 137.512 151.712C136.528 151.974 135.581 152.321 134.676 152.746ZM138.795 142.491C137.007 142.491 135.216 142.279 133.465 141.851C132.783 140.54 131.897 139.276 130.81 138.064C132.094 138.289 133.393 138.401 134.69 138.401C139.022 138.401 143.345 137.156 147.085 134.725C148.261 133.961 149.131 132.959 149.699 131.842C151.303 131.512 152.879 131.223 154.426 130.97C155.045 133.826 153.981 137 151.181 138.82C147.442 141.25 143.124 142.491 138.795 142.491Z" fill="#B2B2D4"/>
<path d="M149.699 131.841C150.042 131.165 150.275 130.446 150.399 129.714C151.53 129.491 152.647 129.288 153.751 129.103C154.061 129.696 154.286 130.325 154.426 130.97C152.879 131.223 151.303 131.512 149.699 131.841Z" fill="#000072"/>
<path d="M131.94 166.14C131.279 164.605 130.863 162.939 130.743 161.193C132.266 158.789 134.543 156.909 137.238 155.885C136.439 159.696 134.267 163.246 131.94 166.14Z" fill="#D2C13E"/>
<path d="M125.284 172.278C124.971 170.985 124.805 169.637 124.805 168.249C124.805 168.087 124.808 167.924 124.812 167.763C125.114 167.505 125.407 167.236 125.692 166.955C126.114 166.537 126.544 166.096 126.976 165.637C126.828 166.485 126.752 167.359 126.752 168.249C126.752 169.249 126.848 170.226 127.033 171.172C126.471 171.588 125.886 171.957 125.284 172.278ZM130.743 161.193C130.739 161.142 130.736 161.093 130.733 161.042C132.478 158.539 133.946 155.732 134.675 152.746C135.581 152.321 136.528 151.974 137.512 151.712C137.633 153.125 137.524 154.521 137.238 155.885C134.543 156.909 132.266 158.789 130.743 161.193Z" fill="#000072"/>
<path d="M128.773 169.656C128.723 169.194 128.698 168.725 128.698 168.249C128.698 165.657 129.448 163.236 130.743 161.193C130.863 162.94 131.279 164.605 131.94 166.14C130.878 167.461 129.783 168.646 128.773 169.656Z" fill="#B0A127"/>
<path d="M127.033 171.172C126.848 170.226 126.752 169.25 126.752 168.25C126.752 167.359 126.828 166.485 126.977 165.637C128.259 164.27 129.559 162.725 130.734 161.042C130.736 161.093 130.739 161.142 130.743 161.193C129.448 163.237 128.698 165.657 128.698 168.25C128.698 168.725 128.723 169.194 128.773 169.656C128.711 169.717 128.65 169.778 128.589 169.838C128.095 170.327 127.575 170.771 127.033 171.172Z" fill="#000072"/>
<path d="M104.857 151.353C104.342 151.214 103.834 151.054 103.335 150.872C103.594 150.702 103.853 150.533 104.112 150.365C104.509 150.66 104.759 150.97 104.842 151.286C104.847 151.307 104.852 151.329 104.857 151.353Z" fill="#B2B2D4"/>
<path d="M103.336 150.872H103.335C103.592 150.702 103.852 150.532 104.112 150.364C104.112 150.364 104.112 150.364 104.112 150.365C103.853 150.533 103.594 150.702 103.336 150.872Z" fill="#000072"/>
<path d="M103.335 150.872C102.608 150.607 101.9 150.298 101.212 149.948C101.491 149.759 101.773 149.572 102.057 149.383C102.936 149.675 103.631 150.008 104.111 150.365C103.852 150.533 103.592 150.702 103.335 150.872Z" fill="#000072"/>
<path d="M92.2974 153.821C88.3295 156.732 83.9789 154.976 81.0673 151.007C78.1566 147.039 77.7876 142.362 81.7555 139.451C85.7235 136.54 91.2998 137.396 94.2114 141.365C97.122 145.333 96.2653 150.909 92.2974 153.821Z" fill="#62527B"/>
<path d="M87.0108 139.427C85.489 139.427 84.012 139.908 82.762 140.825C81.3152 141.886 80.5659 143.246 80.5339 144.867C80.5027 146.459 81.1803 148.282 82.4407 150C83.7005 151.718 85.2369 152.912 86.7649 153.36C88.3202 153.817 89.8429 153.509 91.2893 152.449C92.8417 151.309 93.8577 149.634 94.1502 147.731C94.4424 145.828 93.9763 143.925 92.8378 142.373C91.6987 140.82 90.0235 139.804 88.1203 139.512C87.7498 139.455 87.3792 139.427 87.0108 139.427ZM88.1659 156.975C87.3846 156.975 86.5955 156.86 85.8064 156.628C83.5321 155.962 81.4185 154.366 79.6941 152.015C77.9694 149.664 77.0824 147.169 77.1287 144.8C77.1812 142.101 78.4327 139.777 80.7472 138.079C83.0331 136.401 85.8352 135.715 88.6376 136.145C91.4397 136.576 93.9072 138.072 95.5838 140.358C97.2614 142.643 97.9478 145.446 97.5174 148.248C97.0867 151.051 95.5907 153.518 93.305 155.195C91.6948 156.375 89.9506 156.975 88.1659 156.975Z" fill="#000072"/>
<path d="M186.249 67.5303C186.249 68.4834 185.963 69.4472 185.369 70.2796C184.143 72.0073 182.314 74.163 179.661 76.4786C179.661 76.4786 174.873 79.7242 172.522 86.7808C171.053 91.199 173.622 93.4909 176.785 92.8142C176.483 93.0966 164.323 104.532 141.17 110.405C143.69 115.88 144.567 121.593 144.056 130.698L127.511 137.218C139.638 147.689 130.45 159.855 124.494 165.743C118.187 171.981 107.613 171.023 102.922 163.495C101.594 161.353 101.176 159.378 101.964 158.634C107.302 153.616 109.18 149.31 101.195 147.369C89.3705 144.497 81.443 130.249 86.8936 114.274C91.9837 99.3544 103.506 89.0581 115.297 92.0646C115.297 92.0646 155.107 81.8514 178.668 63.7935C180.386 62.4787 182.78 62.4933 184.474 63.8466C185.641 64.7706 186.249 66.1429 186.249 67.5303Z" fill="#62527B"/>
<path d="M153.622 81.6091C154.326 80.8518 154.999 80.0743 155.636 79.2798C164.083 75.3271 172.588 70.5997 179.703 65.1465C180.247 64.7303 180.893 64.5229 181.539 64.5229C182.203 64.5229 182.866 64.7425 183.417 65.1821C183.459 65.2156 183.499 65.2491 183.539 65.2838C183.489 65.2824 183.44 65.2818 183.391 65.2818C182.381 65.2818 181.371 65.6051 180.524 66.253C172.669 72.2728 163.01 77.4208 153.622 81.6091Z" fill="#C0BACA"/>
<path d="M118.495 167.502C116.436 166.803 114.533 165.611 112.983 163.938C115.981 163.574 118.91 162.251 121.25 159.935C125.057 156.171 130.184 149.842 130.221 143.03C131.18 144.731 131.693 146.515 131.756 148.368C131.977 154.937 126.551 161.315 123.297 164.533C121.916 165.899 120.273 166.903 118.495 167.502Z" fill="#443978"/>
<path d="M139.715 109.519C139.255 107.806 138.66 106.192 137.926 104.598C154.473 100.4 165.403 93.363 170.403 89.5864C170.505 91.2619 171.2 92.3494 171.737 92.9486C172.059 93.3084 172.431 93.6146 172.841 93.862C168.067 97.4959 157.231 104.575 140.751 108.755C140.317 108.865 139.947 109.141 139.715 109.519Z" fill="#443978"/>
<path d="M144.056 130.698L142.649 131.252C141.623 131.184 140.586 131.15 139.54 131.15C123.502 131.15 109.983 138.999 105.876 149.69C105.083 148.736 103.574 147.948 101.195 147.369C89.3705 144.498 81.443 130.25 86.8936 114.274C87.1074 113.642 87.3362 113.019 87.5699 112.406C93.959 117.456 103.127 120.62 113.316 120.62C124.717 120.62 134.844 116.659 141.224 110.527C143.706 115.967 144.562 121.661 144.056 130.698Z" fill="white"/>
<path d="M111.269 164.042C108.732 164.042 106.217 163.363 104.035 162.022C103.369 160.799 103.259 160.022 103.269 159.744C105.828 157.321 109.02 153.771 108.135 150.418C107.893 149.496 107.387 148.695 106.613 148.004C107.063 147.087 107.584 146.193 108.172 145.327C108.673 145.495 109.18 145.642 109.696 145.767C117.681 147.709 115.803 152.015 110.465 157.032C109.676 157.776 110.096 159.752 111.424 161.893C111.888 162.64 112.412 163.322 112.983 163.938C112.413 164.007 111.841 164.042 111.269 164.042Z" fill="#443978"/>
<path d="M114.531 168.15C114.042 168.15 113.55 168.122 113.057 168.064C109.436 167.639 106.269 165.645 104.37 162.597C104.244 162.396 104.133 162.205 104.035 162.022C106.216 163.363 108.731 164.042 111.269 164.042C111.841 164.042 112.413 164.007 112.983 163.938C114.533 165.611 116.436 166.803 118.495 167.502C117.227 167.929 115.891 168.151 114.531 168.15Z" fill="#2F2876"/>
<path d="M94.3212 116.55C92.4076 115.649 90.6229 114.615 88.9917 113.466C91.011 108.086 93.8335 103.554 97.1076 100.154C98.5997 100.358 100.113 100.506 101.643 100.6C99.0821 104.034 96.9412 108.14 95.3951 112.672C94.9492 113.978 94.5929 115.273 94.3212 116.55Z" fill="#443978"/>
<path d="M106.613 148.004C105.503 147.017 103.84 146.259 101.597 145.714C96.6376 144.509 92.4267 141.151 89.7406 136.257C86.3423 130.064 85.9032 122.452 88.5057 114.825C88.6623 114.366 88.824 113.914 88.9919 113.466C90.6231 114.615 92.4078 115.649 94.3214 116.55C91.4122 130.219 98.1434 141.964 108.172 145.327C107.584 146.193 107.064 147.087 106.613 148.004Z" fill="#B2B2D4"/>
<path d="M139.79 111.041C139.507 110.631 139.262 110.206 139.024 109.776C138.779 109.35 138.554 108.913 138.328 108.473C137.875 107.594 137.46 106.682 137.025 105.767L135.728 102.983C135.307 102.037 134.881 101.085 134.513 100.086C134.47 99.9692 134.53 99.8393 134.646 99.796C134.723 99.7678 134.805 99.7847 134.864 99.831C135.701 100.493 136.468 101.212 137.215 101.953C137.955 102.699 138.663 103.478 139.338 104.29C140.007 105.104 140.657 105.948 141.207 106.859C141.485 107.314 141.744 107.782 141.968 108.268C142.198 108.751 142.4 109.251 142.55 109.772C142.785 110.586 142.315 111.438 141.5 111.672C140.85 111.86 140.178 111.599 139.812 111.073L139.79 111.041Z" fill="#000072"/>
<path d="M176.786 94.5178C176.35 94.5178 175.914 94.3514 175.581 94.0189C174.916 93.3538 174.916 92.2752 175.581 91.6101C176.247 90.9456 177.327 90.9427 177.992 91.6078C178.657 92.2731 178.66 93.3491 177.995 94.0144L177.989 94.0189C177.657 94.3514 177.221 94.5178 176.786 94.5178Z" fill="#000072"/>
<path d="M179.661 76.4788H179.664H179.661ZM103.269 159.744C103.258 160.063 103.403 161.041 104.37 162.597C106.269 165.645 109.436 167.638 113.057 168.064C116.846 168.509 120.578 167.222 123.296 164.532C126.55 161.315 131.977 154.937 131.756 148.368C131.635 144.791 129.833 141.473 126.398 138.507C125.946 138.117 125.732 137.52 125.832 136.932C125.932 136.345 126.332 135.852 126.886 135.633L142.41 129.515C142.775 121.448 141.973 116.221 139.623 111.118C139.411 110.658 139.415 110.128 139.633 109.672C139.851 109.215 140.261 108.879 140.751 108.754C157.231 104.575 168.067 97.4955 172.841 93.8616C172.431 93.6142 172.059 93.308 171.737 92.9482C170.903 92.017 169.687 89.9082 170.906 86.2431C173.25 79.2049 177.852 75.679 178.607 75.1382C180.759 73.2513 182.567 71.2851 183.98 69.294C184.352 68.7737 184.547 68.1647 184.547 67.5305C184.547 66.6064 184.135 65.7506 183.417 65.1816C182.331 64.3145 180.806 64.3024 179.703 65.146C156.138 83.207 117.359 93.2944 115.72 93.715C115.443 93.7856 115.153 93.7865 114.876 93.7159C104.657 91.1066 93.567 99.987 88.5054 114.825C85.9029 122.452 86.3419 130.064 89.7403 136.257C92.4264 141.151 96.6373 144.509 101.596 145.714C105.406 146.64 107.545 148.178 108.135 150.417C109.02 153.771 105.828 157.321 103.269 159.744ZM114.535 171.556C113.913 171.556 113.287 171.52 112.66 171.446C108.005 170.9 103.928 168.33 101.477 164.396C99.6034 161.376 99.3492 158.761 100.794 157.395C104.888 153.549 104.988 151.842 104.841 151.286C104.613 150.418 103.137 149.593 100.793 149.024C94.8921 147.591 89.9067 143.639 86.7543 137.895C82.8896 130.853 82.3663 122.269 85.2817 113.724C87.9147 106.006 92.2561 99.4014 97.5068 95.1261C103.014 90.6424 109.306 88.9405 115.278 90.3083C119.52 89.1731 155.881 79.1124 177.632 62.4418C179.983 60.6441 183.233 60.6753 185.537 62.5163C187.07 63.7298 187.953 65.5593 187.953 67.5305C187.953 68.8784 187.539 70.1712 186.755 71.2691C185.175 73.4951 183.164 75.6805 180.782 77.762C180.729 77.8077 180.674 77.8501 180.617 77.889C180.579 77.9154 176.26 80.9486 174.138 87.3193C173.645 88.8032 173.694 90.0274 174.275 90.6759C174.721 91.1739 175.506 91.3472 176.429 91.149C177.177 90.9903 177.941 91.3481 178.294 92.0262C178.649 92.7043 178.508 93.5349 177.949 94.0582C176.667 95.2582 165.113 105.648 143.507 111.551C145.561 116.828 146.217 122.585 145.756 130.793C145.719 131.456 145.299 132.038 144.68 132.282L130.598 137.831C133.5 140.974 135.033 144.469 135.161 148.253C135.412 155.724 130.15 162.546 125.692 166.954C122.683 169.93 118.697 171.556 114.535 171.556Z" fill="#000072"/>
<path d="M182.338 88.2407C180.771 90.9464 178.673 92.4115 176.785 92.8155C173.622 93.4913 171.053 91.1994 172.522 86.7812C174.873 79.7246 179.661 76.479 179.661 76.479C184.586 77.2096 185.578 82.6448 182.338 88.2407Z" fill="#62527B"/>
<path d="M180.081 78.311C178.853 79.3445 175.812 82.2935 174.138 87.3192C173.645 88.803 173.694 90.0273 174.274 90.6757C174.72 91.1738 175.505 91.3471 176.43 91.1489C178.065 90.7989 179.682 89.4272 180.864 87.3868C182.479 84.5975 182.948 81.7571 182.088 79.9743C181.691 79.1493 181.017 78.5913 180.081 78.311ZM175.731 94.6324C174.149 94.6324 172.716 94.0424 171.736 92.948C170.903 92.0169 169.687 89.908 170.906 86.243C173.411 78.7248 178.49 75.2149 178.705 75.0693C179.058 74.8299 179.49 74.7305 179.911 74.7943C182.315 75.1502 184.178 76.465 185.157 78.4949C186.52 81.3222 186.017 85.2848 183.811 89.094C182.149 91.9653 179.718 93.9285 177.142 94.4805C176.663 94.5823 176.191 94.6324 175.731 94.6324Z" fill="#000072"/>
<path d="M117.96 102.837C117.96 102.837 129.892 112.739 146.633 121.946C151.595 124.675 151.829 131.643 147.085 134.725C140.35 139.102 131.728 139.632 124.563 135.979C116.883 132.062 107.764 125.554 103.181 115.456L117.96 102.837Z" fill="#62527B"/>
<path d="M145.175 135.687C147.915 132.23 147.108 126.873 142.903 124.561C127.804 116.256 117.959 102.837 117.959 102.837C117.959 102.837 129.892 112.739 146.633 121.946C149.201 123.359 150.503 125.907 150.503 128.464C150.504 130.847 149.374 133.238 147.085 134.725C146.613 135.033 146.129 135.316 145.638 135.582C145.484 135.618 145.329 135.654 145.175 135.687Z" fill="#C0BACA"/>
<path d="M134.683 138.399C131.217 138.399 127.747 137.602 124.563 135.979C123.715 135.546 122.849 135.082 121.975 134.585C116.188 131.298 109.986 126.571 105.694 120.016C104.756 118.584 103.911 117.066 103.181 115.456C104.008 115.137 104.865 114.984 105.712 114.984C108.005 114.984 110.221 116.108 111.556 118.104C116.496 125.499 123.865 130.537 130.241 133.789C133.421 135.411 136.888 136.205 140.35 136.205C141.969 136.205 143.587 136.032 145.175 135.688C145.111 135.769 145.044 135.849 144.975 135.929C145.197 135.817 145.418 135.701 145.638 135.582C145.642 135.581 145.647 135.58 145.651 135.579C142.258 137.446 138.473 138.399 134.683 138.399Z" fill="#443978"/>
<path d="M144.975 135.929C145.044 135.849 145.111 135.768 145.175 135.687C145.329 135.654 145.484 135.618 145.638 135.582C145.418 135.701 145.197 135.816 144.975 135.929Z" fill="#8682AF"/>
<path d="M118.126 102.637C121.93 104.771 125.595 107.03 129.269 109.26C131.103 110.38 132.916 111.522 134.733 112.657L137.435 114.395L138.782 115.27L140.14 116.131L141.497 116.99L142.872 117.822C143.789 118.375 144.712 118.918 145.648 119.439L147.398 120.422C147.515 120.489 147.671 120.591 147.804 120.674C148.079 120.857 148.367 121.017 148.625 121.223C149.687 122.018 150.553 123.079 151.169 124.255C151.781 125.435 152.143 126.744 152.194 128.069C152.244 129.393 152.009 130.726 151.503 131.954C150.998 133.18 150.231 134.319 149.237 135.193C149.009 135.437 148.729 135.614 148.47 135.816L148.073 136.109C147.942 136.204 147.823 136.266 147.697 136.345C147.197 136.639 146.714 136.964 146.191 137.217C144.142 138.309 141.941 139.118 139.667 139.599C137.397 140.089 135.054 140.272 132.728 140.096C130.403 139.928 128.096 139.424 125.906 138.596C125.633 138.491 125.355 138.397 125.087 138.28L124.287 137.917C123.736 137.678 123.259 137.417 122.764 137.163C122.268 136.913 121.782 136.641 121.296 136.373C120.806 136.109 120.325 135.827 119.846 135.544C116.025 133.264 112.404 130.552 109.322 127.262C107.789 125.62 106.294 123.909 105.185 121.93C104.077 119.963 103.221 117.834 102.943 115.563C102.925 115.414 103.031 115.277 103.181 115.259C103.271 115.247 103.355 115.282 103.413 115.342L103.418 115.348C104.961 116.997 106.274 118.62 107.647 120.192C107.991 120.582 108.335 120.971 108.663 121.37C109.021 121.747 109.356 122.14 109.7 122.525C110.029 122.923 110.406 123.282 110.755 123.663C111.103 124.044 111.476 124.404 111.852 124.761C114.833 127.637 118.21 130.119 121.8 132.27C122.247 132.542 122.695 132.813 123.154 133.067C123.61 133.326 124.064 133.588 124.53 133.83C124.992 134.077 125.462 134.335 125.899 134.536L126.567 134.859C126.791 134.964 127.025 135.046 127.253 135.142C129.087 135.884 131.034 136.358 133.015 136.547C136.98 136.932 141.06 136.086 144.587 134.212C145.04 133.997 145.453 133.712 145.884 133.461C145.987 133.397 146.109 133.333 146.195 133.268L146.447 133.076C146.611 132.943 146.802 132.84 146.938 132.68C147.574 132.131 148.036 131.42 148.354 130.657C148.669 129.89 148.82 129.051 148.792 128.215C148.76 127.377 148.525 126.557 148.146 125.824C147.76 125.094 147.234 124.435 146.561 123.933C146.4 123.8 146.207 123.704 146.035 123.584C145.939 123.526 145.873 123.473 145.755 123.407L145.399 123.206L143.974 122.405L142.548 121.606L141.131 120.79C140.181 120.257 139.237 119.712 138.299 119.159C137.356 118.612 136.414 118.064 135.491 117.486C135.027 117.198 134.559 116.919 134.101 116.624L132.733 115.731C131.829 115.122 130.929 114.509 130.052 113.861C129.163 113.232 128.301 112.563 127.436 111.9C126.576 111.23 125.731 110.54 124.896 109.84C124.055 109.146 123.236 108.423 122.426 107.692C120.813 106.218 119.236 104.707 117.792 103.038C117.697 102.928 117.709 102.76 117.82 102.665C117.906 102.59 118.027 102.581 118.122 102.634L118.126 102.637Z" fill="#000072"/>
<path d="M82.8014 31.5639C84.4941 38.848 79.9604 46.1256 72.6763 47.8174C65.3919 49.5103 58.1152 44.9773 56.4226 37.6929C54.7305 30.4088 59.2635 23.1312 66.5479 21.4394C73.8321 19.7467 81.1088 24.2795 82.8014 31.5639Z" fill="#62527B"/>
<path d="M80.3221 26.3375C77.7902 23.0711 73.8457 21.0845 69.6242 21.0845C68.6097 21.0845 67.5782 21.1993 66.548 21.4393C63.7669 22.0848 61.3869 23.5451 59.6014 25.508C61.3869 23.5451 63.7669 22.0848 66.548 21.4384C67.5782 21.1993 68.6088 21.0845 69.6236 21.0845C73.8451 21.0845 77.7908 23.072 80.3221 26.3375ZM59.5166 25.603C59.5216 25.597 59.527 25.5908 59.5323 25.5855C59.527 25.5908 59.5216 25.597 59.5166 25.603ZM59.5825 25.5294C59.5887 25.5226 59.594 25.5163 59.6 25.5095C59.594 25.5163 59.5887 25.5226 59.5825 25.5294Z" fill="#B0DDFF"/>
<path d="M57.5871 39.6414C57.0795 38.6604 56.6841 37.6017 56.4228 36.4762C56.2314 35.6509 56.119 34.826 56.0825 34.0081C56.2246 30.8589 57.4699 27.8963 59.5168 25.603C59.5218 25.597 59.5272 25.5908 59.5325 25.5855C59.5494 25.5665 59.566 25.5475 59.5826 25.5294C59.5889 25.5226 59.5942 25.5163 59.6001 25.5095C59.601 25.5089 59.601 25.5089 59.6016 25.508C61.3871 23.5451 63.7671 22.0848 66.5482 21.4393C67.5784 21.1993 68.6098 21.0845 69.6244 21.0845C73.8459 21.0845 77.7904 23.0711 80.3223 26.3375C78.2544 23.6694 75.2425 21.8555 71.9079 21.2806C72.1639 21.6466 72.403 22.0269 72.6234 22.4212C72.4532 22.3945 72.2832 22.3716 72.1114 22.3526C72.1381 22.4217 72.1625 22.4923 72.1791 22.5662C72.495 23.9254 70.9966 25.4345 68.8323 25.9373C68.3547 26.0488 67.8839 26.1013 67.4381 26.1013C65.8629 26.1013 64.5879 25.4457 64.342 24.3864C64.2972 24.1912 64.2934 23.9922 64.3192 23.794C58.9629 26.5774 55.9535 32.7219 57.3827 38.8722C57.4426 39.1326 57.5126 39.3887 57.5871 39.6414Z" fill="#C0BACA"/>
<path d="M69.6243 17.6782H69.6237C68.3348 17.6782 67.0408 17.8262 65.7771 18.1202C56.6748 20.235 50.9899 29.361 53.1047 38.4632C53.976 42.2131 56.1213 45.5851 59.1459 47.9574C62.1221 50.2917 65.835 51.5773 69.6 51.5773C70.8889 51.5773 72.1835 51.4287 73.4472 51.1347C77.8565 50.1104 81.6034 47.4302 83.9961 43.5884C86.3898 39.7459 87.1438 35.2016 86.1195 30.7923C85.2486 27.0424 83.1032 23.6707 80.0792 21.2991C77.1021 18.9639 73.3896 17.6782 69.6243 17.6782ZM69.6237 21.084C75.78 21.084 81.3489 25.3094 82.8016 31.5633C84.4942 38.8474 79.9606 46.125 72.6765 47.8168C71.6459 48.0561 70.6145 48.1715 69.6 48.1715C63.4443 48.1715 57.8763 43.9461 56.4227 37.6923C54.7306 30.4081 59.2637 23.1306 66.5481 21.4379C67.5783 21.1988 68.6089 21.084 69.6237 21.084Z" fill="#000072"/>
<path d="M76.1636 35.3002C76.9429 38.6517 74.8569 41.9991 71.5063 42.7784C68.1551 43.5568 64.8075 41.4714 64.0282 38.1202C63.2498 34.7687 65.3352 31.4213 68.6867 30.6429C72.0379 29.8645 75.3852 31.9499 76.1636 35.3002Z" fill="white"/>
<path d="M70.105 31.8986C69.7395 31.8986 69.372 31.9402 69.0074 32.0253C66.4239 32.6254 64.8102 35.2157 65.4103 37.7992C65.701 39.0507 66.4619 40.1145 67.5524 40.7935C68.6437 41.4731 69.9341 41.6858 71.1848 41.3966C72.4363 41.1056 73.4995 40.3447 74.1791 39.2542C74.8587 38.1638 75.0729 36.8743 74.7813 35.6218C74.4912 34.3703 73.7303 33.3071 72.6398 32.6275C71.8668 32.1469 70.9934 31.8986 70.105 31.8986ZM70.0949 44.3598C66.6191 44.3598 63.4661 41.9697 62.6459 38.4417C61.6921 34.3341 64.2575 30.2158 68.3652 29.2612C70.3548 28.7993 72.4058 29.1389 74.1397 30.2187C75.8741 31.2994 77.083 32.9897 77.5454 34.9796C78.0082 36.9698 77.668 39.0211 76.5873 40.7547C75.5072 42.4886 73.8169 43.6983 71.8264 44.1599C71.2471 44.2951 70.6659 44.3598 70.0949 44.3598Z" fill="#000072"/>
<path d="M67.149 47.9454C63.6641 47.2975 60.5466 45.2934 58.5107 42.3798C59.2586 42.5088 60.0224 42.5756 60.7958 42.5756C61.8103 42.5756 62.84 42.461 63.8705 42.2217C64.1182 42.1641 64.3627 42.1003 64.6032 42.0297C65.6703 43.1276 67.0509 43.8903 68.5599 44.2024C68.0449 45.4379 67.5741 46.687 67.149 47.9454ZM75.7856 31.5938C75.3489 31.1099 74.8479 30.6801 74.2896 30.314C74.4249 28.8964 74.3359 27.4321 73.9956 25.9682C73.6996 24.6944 73.2317 23.5069 72.6236 22.4209C75.5509 22.8703 78.2433 24.2737 80.286 26.3737C78.698 27.9866 77.1952 29.7287 75.7856 31.5938Z" fill="#443978"/>
<path d="M80.2856 26.3742C78.2429 24.2742 75.5505 22.8708 72.6232 22.4214C72.4028 22.0271 72.1637 21.6468 71.9077 21.2808C75.2423 21.8557 78.2541 23.6696 80.322 26.3377C80.3099 26.3489 80.2977 26.362 80.2856 26.3742Z" fill="#8682AF"/>
<path d="M69.7619 41.511C68.9868 41.4585 68.2312 41.2164 67.5528 40.7934C67.5484 40.7905 67.543 40.7872 67.5386 40.7851C70.416 39.1379 72.559 36.4974 73.6153 33.4277C73.7818 33.6048 73.9328 33.7938 74.0695 33.9937C73.2104 35.2634 72.3935 36.5817 71.6189 37.9486C70.9574 39.1165 70.3386 40.3052 69.7619 41.511Z" fill="#B2B2D4"/>
<path d="M68.5597 44.2023C67.0506 43.8902 65.6701 43.1275 64.603 42.0297C65.6472 41.7259 66.63 41.305 67.5383 40.7849C67.5428 40.787 67.5481 40.7903 67.5526 40.7932C68.231 41.2163 68.9866 41.4583 69.7617 41.5108C69.3372 42.4002 68.9364 43.2969 68.5597 44.2023ZM74.0693 33.9935C73.9325 33.7936 73.7815 33.6046 73.6151 33.4276C73.9592 32.4285 74.1876 31.3849 74.2894 30.314C74.8477 30.68 75.3487 31.1099 75.7854 31.5937C75.1968 32.3721 74.6243 33.1724 74.0693 33.9935Z" fill="#000072"/>
<path d="M127.378 20.0139C129.07 27.2984 136.347 31.8311 143.631 30.1393C150.916 28.4464 155.449 21.17 153.756 13.8856C152.065 6.60114 144.787 2.0684 137.503 3.76047C130.219 5.45312 125.686 12.7298 127.378 20.0139Z" fill="#62527B"/>
<path d="M154.055 15.7332C154.024 15.5701 153.99 15.4069 153.952 15.2429C152.522 9.09313 147.113 4.9042 141.078 4.76745C141.189 4.93387 141.273 5.11363 141.318 5.30972C141.634 6.66894 140.136 8.17798 137.971 8.68079C137.494 8.79233 137.023 8.84483 136.577 8.84483C135.002 8.84483 133.727 8.18925 133.481 7.12993C133.465 7.05695 133.454 6.98279 133.448 6.90893C133.12 7.11925 132.802 7.34411 132.495 7.58024C132.514 7.03975 132.565 6.50342 132.646 5.97568C129.596 8.18777 127.583 11.603 127.14 15.3636C127.132 15.3612 127.125 15.3583 127.117 15.3559C127.77 9.84957 131.791 5.08783 137.503 3.76064C138.534 3.52124 139.564 3.40674 140.579 3.40674C146.735 3.40674 152.304 7.63274 153.757 13.8857C153.9 14.5024 153.999 15.1198 154.055 15.7332Z" fill="#C0BACA"/>
<path d="M140.579 0C139.291 0 137.997 0.148916 136.732 0.442891C132.323 1.46721 128.577 4.14739 126.183 7.98984C123.789 11.8317 123.035 16.376 124.06 20.7853C124.931 24.5352 127.076 27.9069 130.101 30.2794C133.077 32.6137 136.79 33.9003 140.555 33.9003C141.844 33.9003 143.138 33.7514 144.403 33.4574C148.812 32.4331 152.558 29.7523 154.952 25.9105C157.345 22.0677 158.099 17.5243 157.074 13.1144C156.203 9.36508 154.058 5.99341 151.033 3.62085C148.057 1.28655 144.345 0 140.579 0ZM140.579 3.40697C146.735 3.40697 152.304 7.63297 153.756 13.886C155.449 21.1704 150.915 28.4468 143.632 30.1397C142.601 30.3788 141.57 30.4936 140.555 30.4936C134.4 30.4936 128.831 26.2673 127.378 20.0143C125.686 12.7302 130.219 5.45352 137.503 3.76086C138.534 3.52147 139.564 3.40697 140.579 3.40697Z" fill="#000072"/>
<path d="M134.983 20.4425C135.762 23.7937 139.11 25.8786 142.461 25.1002C145.812 24.3218 147.898 20.9741 147.118 17.6229C146.34 14.2714 142.993 12.1863 139.641 12.9647C136.29 13.7437 134.205 17.0913 134.983 20.4425Z" fill="white"/>
<path d="M136.365 20.1215C136.656 21.373 137.417 22.4362 138.507 23.1158C139.598 23.7954 140.888 24.0081 142.14 23.718C144.723 23.1182 146.337 20.5279 145.737 17.9444C145.446 16.6929 144.685 15.6297 143.595 14.9501C142.503 14.271 141.214 14.0584 139.962 14.347C138.711 14.6377 137.647 15.3989 136.968 16.4894C136.288 17.5798 136.074 18.8699 136.365 20.1215ZM141.036 26.6836C139.624 26.6836 138.237 26.2902 137.007 25.524C135.273 24.4442 134.063 22.7536 133.602 20.7631C133.139 18.7735 133.48 16.7225 134.559 14.9886C135.64 13.255 137.33 12.0453 139.321 11.5834C143.428 10.6265 147.546 13.1942 148.501 17.3019C149.455 21.4095 146.89 25.5278 142.782 26.4824C142.202 26.6168 141.617 26.6836 141.036 26.6836Z" fill="#000072"/>
<path d="M147.947 28.3071C146.988 27.3763 145.993 26.4742 144.965 25.6044C146.571 24.6463 147.758 23.1319 148.326 21.3843C148.582 21.3404 148.838 21.2879 149.093 21.2289C150.9 20.8089 152.537 20.0456 153.951 19.0242C153.363 22.816 151.174 26.2099 147.947 28.3071ZM133.466 18.024C131.505 17.0474 129.518 16.2037 127.514 15.4954C128.183 12.3574 129.953 9.54139 132.495 7.58057C132.456 8.73867 132.564 9.9211 132.839 11.1035C133.178 12.5615 133.74 13.908 134.481 15.1177C133.942 16.0216 133.6 17.0079 133.466 18.024Z" fill="#443978"/>
<path d="M127.515 15.4954C127.39 15.4506 127.265 15.4073 127.14 15.364C127.583 11.6034 129.596 8.18816 132.646 5.97607C132.565 6.50381 132.514 7.04014 132.495 7.58063C129.954 9.54145 128.183 12.3575 127.515 15.4954Z" fill="#8682AF"/>
<path d="M147.953 28.313C147.95 28.3106 147.949 28.3091 147.947 28.3067C151.174 26.2095 153.363 22.8155 153.951 19.0238C153.959 19.0185 153.967 19.0132 153.973 19.0078C153.387 22.8102 151.192 26.2148 147.953 28.313Z" fill="#000072"/>
<path d="M142.488 23.6239C141.752 23.0671 141 22.5272 140.236 22.0057C138.929 21.1149 137.604 20.2854 136.265 19.5201C136.198 18.8746 136.262 18.2291 136.453 17.6147C138.751 19.9087 141.836 21.3394 145.145 21.5551C144.554 22.5144 143.629 23.2676 142.488 23.6239Z" fill="#B2B2D4"/>
<path d="M144.965 25.6044C144.159 24.9233 143.333 24.2626 142.487 23.624C143.628 23.2677 144.553 22.5145 145.145 21.5552C145.434 21.5736 145.724 21.5833 146.017 21.5833C146.78 21.5833 147.552 21.5181 148.327 21.3843C147.758 23.1318 146.571 24.6462 144.965 25.6044ZM136.265 19.5202C135.339 18.9916 134.405 18.4926 133.466 18.0239C133.6 17.0079 133.942 16.0216 134.481 15.1177C135.042 16.0328 135.706 16.8697 136.452 17.6148C136.262 18.2292 136.197 18.8747 136.265 19.5202Z" fill="#000072"/>
<path d="M102.566 15.5088C76.7224 21.5135 61.7083 51.9264 66.9468 74.4747C72.1858 97.0233 99.1182 102.374 121.538 97.1651C143.957 91.9563 165.772 75.2798 160.533 52.7312C155.294 30.182 128.409 9.5047 102.566 15.5088Z" fill="white"/>
<path d="M102.951 17.1681C91.3326 19.8679 81.2577 27.8432 74.5823 39.6277C68.3726 50.5884 66.1386 63.4711 68.6058 74.0898C73.4722 95.0344 98.7241 100.717 121.152 95.5067C143.581 90.295 163.74 74.0611 158.874 53.1164C153.885 31.6432 128.369 11.2616 102.951 17.1681ZM105.635 100.72C86.8088 100.72 69.4631 92.8307 65.2881 74.8599C62.6322 63.4317 64.9995 49.6329 71.6185 37.9487C78.7691 25.3258 89.6234 16.7673 102.18 13.8504C114.737 10.9326 128.252 13.8291 140.236 22.0058C151.328 29.5756 159.536 40.9172 162.192 52.3463C167.564 75.4689 146 93.23 121.923 98.8247C116.557 100.071 111.034 100.72 105.635 100.72Z" fill="#000072"/>
<path d="M126.389 53.3576C133.013 61.8037 143.239 64.8422 149.229 60.1437C155.219 55.4454 154.705 44.7899 148.081 36.3444C141.456 27.8984 131.23 24.8607 125.24 29.5584C119.25 34.2569 119.764 44.9121 126.389 53.3576Z" fill="#62527B"/>
<path d="M109.157 59.0953C106.934 69.5965 99.0957 76.8314 91.6482 75.2556C84.1997 73.6799 79.9639 63.8888 82.1858 53.3876C84.4085 42.8863 92.2474 35.6515 99.6947 37.2272C107.143 38.803 111.379 48.5941 109.157 59.0953Z" fill="#62527B"/>
<path d="M113.979 59.4939C114.552 60.6428 115.761 61.4236 117.018 61.9475C119.495 62.9804 122.392 62.3076 124.161 60.2884C125.058 59.2632 125.799 58.0297 125.806 56.7464C125.83 52.5341 112.101 55.7236 113.979 59.4939Z" fill="#000072"/>
<path d="M127.075 68.2918L122.269 67.7661L115.212 69.8195C115.212 69.8195 118.212 76.8571 121.876 77.6287C126.055 78.5088 127.589 75.8007 127.075 68.2918Z" fill="#000072"/>
<path d="M125.23 76.0961C124.638 77.4553 122.505 77.8365 120.466 76.948C118.427 76.0587 117.254 74.237 117.847 72.8775C118.439 71.5182 120.572 71.137 122.611 72.0255C124.65 72.9148 125.822 74.7365 125.23 76.0961Z" fill="#F04643"/>
<path d="M123.261 79.3048C122.73 79.3048 122.163 79.2416 121.563 79.1149C117.25 78.2066 114.153 71.2102 113.815 70.4149C113.486 69.6434 113.844 68.7511 114.615 68.4224C115.387 68.0934 116.279 68.4526 116.609 69.2242C117.654 71.665 120.092 75.7011 122.189 76.1426C123.818 76.4858 124.329 76.0408 124.496 75.8949C125.175 75.3048 125.911 73.5241 125.56 68.3951C125.503 67.5582 126.135 66.8335 126.972 66.7766C127.81 66.719 128.534 67.3515 128.591 68.1877C128.956 73.5226 128.307 76.6065 126.49 78.1867C125.634 78.931 124.552 79.3048 123.261 79.3048Z" fill="#000072"/>
<path d="M126.439 69.8686C124.301 69.8686 122.083 68.8356 120.674 67.8707C119.981 67.3966 119.805 66.4512 120.279 65.7586C120.754 65.0668 121.698 64.8906 122.39 65.3646C122.429 65.3904 126.594 68.1273 128.192 66.0033C129.537 64.2163 128.09 62.9292 127.786 62.6892C127.127 62.1697 127.014 61.2142 127.535 60.556C128.054 59.8974 129.01 59.7859 129.668 60.3053C131.336 61.6212 132.966 64.7123 130.619 67.8303C129.491 69.3278 127.986 69.8686 126.439 69.8686Z" fill="#000072"/>
<path d="M115.941 71.3732C115.285 71.3732 114.639 71.3064 114.029 71.1703C110.763 70.439 109.121 67.9202 109.743 64.5969C109.897 63.7731 110.692 63.2285 111.516 63.3833C112.341 63.5376 112.883 64.3311 112.729 65.1558C112.528 66.2311 112.512 67.7173 114.692 68.2056C117.019 68.7265 119.719 67.6004 119.966 66.6512C120.748 63.6613 119.106 60.1431 119.089 60.1072C118.731 59.351 119.052 58.4451 119.808 58.0844C120.564 57.7251 121.469 58.0425 121.83 58.7981C121.918 58.9811 123.972 63.3385 122.906 67.4183C122.249 69.9318 118.996 71.3732 115.941 71.3732Z" fill="#000072"/>
<path d="M113.982 59.7675C114.585 60.9787 115.86 61.801 117.185 62.3539C119.795 63.442 122.849 62.7327 124.713 60.6043C125.658 59.5242 126.44 58.2243 126.447 56.8716C126.472 52.4314 112.002 55.7933 113.982 59.7675Z" fill="#000072"/>
<path d="M105.601 97.3203C90.8584 97.3194 77.1807 92.2147 71.0933 80.7817C78.3866 90.0972 91.2085 94.1177 104.538 94.1177C109.851 94.1177 115.248 93.4781 120.403 92.28C138.491 88.0774 156.183 76.4103 159.593 60.2168C159.024 77.6847 140.975 90.9009 121.152 95.5066C116.023 96.6982 110.748 97.3203 105.601 97.3203Z" fill="#B2B2D4"/>
<path d="M105.67 99.0031C87.8771 99.0031 70.9808 91.8368 66.947 74.475C66.7504 73.626 66.5845 72.7649 66.4448 71.8954C67.5089 75.2733 69.093 78.2264 71.0933 80.782C77.1807 92.215 90.8584 97.3197 105.601 97.3205C110.748 97.3205 116.023 96.6985 121.152 95.5069C140.975 90.9011 159.024 77.685 159.593 60.2171C160.26 57.0436 160.38 53.6939 159.846 50.1943C160.104 51.0365 160.336 51.8825 160.533 52.7315C165.772 75.2801 143.957 91.9566 121.538 97.1654C116.381 98.3638 110.987 99.0031 105.67 99.0031Z" fill="#000072"/>
<path d="M172.78 171.079L172.777 171.076C171.109 169.826 169.563 168.517 168.131 167.161C169.563 168.517 171.109 169.826 172.777 171.076L172.78 171.079Z" fill="#000072"/>
<path d="M102.681 206.551C98.198 206.551 94.7121 206.216 92.3983 205.895C90.2963 203.847 88.3984 201.647 86.7188 199.32C86.8454 199.189 86.97 199.056 87.0922 198.921C89.3218 199.175 92.298 199.394 95.9272 199.394C108.114 199.394 127.672 196.922 151.084 184.993C158.803 181.062 165.364 176.842 170.937 172.538C172.942 175.136 175.175 177.537 177.632 179.74C172.072 184.029 165.531 188.232 157.838 192.151C134.424 204.079 114.868 206.551 102.681 206.551Z" fill="#B2B2D4"/>
<path d="M92.3982 205.895C90.2953 203.847 88.3977 201.648 86.7178 199.321C86.7187 199.321 86.7178 199.321 86.7187 199.321C88.3983 201.648 90.2962 203.847 92.3982 205.895ZM177.632 179.74C175.175 177.538 172.942 175.136 170.937 172.538C170.937 172.538 170.938 172.538 170.937 172.538C172.942 175.135 175.176 177.538 177.632 179.74Z" fill="#000072"/>
<path d="M180.717 177.27C178.133 175.011 175.9 172.6 173.975 170.103C190.135 156.666 197.104 142.763 200.04 134.389C203.211 135.229 205.928 136.149 208.168 137.018C206.4 144 200.315 160.978 180.717 177.27Z" fill="#2465DE"/>
<path d="M208.168 137.018C205.928 136.15 203.211 135.229 200.04 134.389C200.108 134.195 200.174 134.003 200.238 133.815C203.717 134.963 206.387 136.121 208.175 136.988C208.173 136.998 208.17 137.008 208.168 137.018Z" fill="#298BD8"/>
<path d="M177.632 179.74C175.176 177.538 172.942 175.135 170.938 172.539C171.565 172.054 172.18 171.568 172.782 171.082C173.185 170.756 173.583 170.431 173.975 170.104C175.9 172.6 178.133 175.012 180.717 177.271C180.329 177.594 179.935 177.916 179.535 178.239C178.914 178.74 178.28 179.24 177.632 179.74ZM174.918 174.35C176.341 175.695 177.875 176.993 179.531 178.234L179.534 178.237L179.531 178.234C177.875 176.993 176.341 175.695 174.918 174.35ZM208.175 136.988C206.387 136.122 203.717 134.963 200.238 133.815C200.241 133.807 200.243 133.799 200.246 133.791C203.719 134.941 206.387 136.108 208.177 136.98C208.177 136.983 208.176 136.985 208.175 136.988Z" fill="#000072"/>
<path d="M92.3981 205.895C90.2605 205.598 89.1235 205.313 89.1235 205.313C87.6245 203.934 86.2202 202.483 84.9126 200.968C85.5536 200.453 86.1558 199.904 86.7177 199.32C88.3976 201.647 90.2952 203.846 92.3981 205.895ZM208.177 136.979C206.387 136.107 203.719 134.94 200.246 133.79C200.715 132.405 201.069 131.186 201.336 130.164C206.242 132.07 208.839 133.723 208.839 133.723C208.839 133.723 208.7 134.903 208.177 136.979Z" fill="#000072"/>
<path d="M84.9127 200.968C84.4897 200.478 84.0759 199.98 83.6733 199.476C84.0204 199.198 84.3598 198.904 84.6888 198.598C85.3547 198.702 86.1574 198.815 87.0922 198.921C86.97 199.056 86.8454 199.189 86.7187 199.321C86.7178 199.321 86.7187 199.321 86.7178 199.321C86.156 199.905 85.5538 200.453 84.9127 200.968Z" fill="#000072"/>
<path d="M83.6733 199.476C83.3452 199.066 83.0239 198.652 82.7095 198.234C83.0788 198.314 83.7448 198.448 84.6887 198.597C84.3597 198.904 84.0203 199.198 83.6733 199.476Z" fill="#000072"/>
<path d="M130.937 35.9088C134.586 33.7733 139.792 36.0287 142.567 40.9459C145.341 45.8631 144.633 51.58 140.985 53.7155C137.336 55.8502 132.13 53.5954 129.355 48.6782C126.581 43.761 127.289 38.0435 130.937 35.9088Z" fill="#000072"/>
<path d="M132.145 37.9468C133.564 37.8549 134.85 39.3693 135.019 41.3292C135.187 43.2894 134.174 44.9524 132.756 45.0444C131.337 45.1363 130.051 43.622 129.882 41.662C129.714 39.7018 130.727 38.0388 132.145 37.9468Z" fill="white"/>
<path d="M141.054 47.1467C141.801 47.2766 142.292 48.2128 142.152 49.238C142.011 50.2641 141.291 50.99 140.545 50.861C139.798 50.7311 139.306 49.7948 139.448 48.7696C139.588 47.7435 140.308 47.0177 141.054 47.1467Z" fill="#B199C5"/>
<path d="M99.5154 45.3024C95.233 44.4412 90.9023 48.394 89.8421 54.1314C88.7827 59.8688 91.395 65.2179 95.6774 66.0791C99.9597 66.9403 104.291 62.9875 105.351 57.2503C106.411 51.5129 103.799 46.1635 99.5154 45.3024Z" fill="#000072"/>
<path d="M99.0199 47.7C97.6028 48.0874 96.8547 49.9987 97.3483 51.9711C97.8419 53.9432 99.3904 55.2279 100.808 54.8414C102.225 54.4549 102.973 52.5427 102.48 50.5706C101.986 48.5991 100.438 47.3134 99.0199 47.7Z" fill="white"/>
<path d="M93.4033 59.6838C92.7175 60.0611 92.552 61.1412 93.0334 62.0964C93.5158 63.051 94.4627 63.5194 95.1491 63.1421C95.8358 62.7647 96.0014 61.6841 95.519 60.7295C95.0367 59.7749 94.0898 59.3065 93.4033 59.6838Z" fill="#B199C5"/>
<path d="M121.819 56.2688C121.873 56.5138 120.985 56.9173 119.834 57.1685C118.684 57.4201 117.708 57.4245 117.654 57.1792C117.601 56.9333 118.489 56.5307 119.64 56.2792C120.79 56.0279 121.766 56.0226 121.819 56.2688Z" fill="white"/>
</svg>
