<svg width="197" height="261" viewBox="0 0 197 261" fill="none" xmlns="http://www.w3.org/2000/svg">
<path d="M66.0617 184.735C61.2314 174.558 44.65 170.055 41.1138 185.069C38.0464 198.088 53.2602 205.844 64.9749 203.457C69.209 202.594 72.0126 197.274 66.0617 184.735Z" fill="#5F5F82"/>
<path d="M47.9475 198.677C47.0915 198.075 46.3033 197.41 45.5997 196.684C43.4698 194.488 41.1946 190.746 42.4572 185.385C43.5061 180.933 45.6312 178.714 47.8128 177.656C41.506 184.657 44.0402 192.662 49.3457 193.657C48.8681 195.289 48.4009 196.971 47.9475 198.677Z" fill="#4C4C7F"/>
<path d="M51.858 176.771C51.4909 176.771 51.127 176.789 50.7664 176.828C47.8216 177.141 43.9901 178.88 42.4572 185.385C41.1945 190.745 43.4697 194.488 45.5996 196.684C50.0403 201.263 57.8936 203.49 64.6998 202.105C65.9463 201.851 66.8669 201.145 67.4357 200.007C68.2675 198.341 69.0339 194.218 64.8144 185.327C62.4537 180.353 56.9287 176.771 51.858 176.771ZM60.6142 205.266C54.2203 205.266 47.6828 202.797 43.6181 198.607C39.9286 194.803 38.5619 189.882 39.7705 184.752C41.7738 176.246 47.3367 174.417 50.4743 174.083C57.0239 173.389 64.2561 177.714 67.3082 184.143C70.8581 191.623 71.7561 197.535 69.9053 201.239C68.9646 203.122 67.3114 204.39 65.2509 204.809C63.7397 205.118 62.1802 205.266 60.6142 205.266Z" fill="#000072"/>
<path d="M52.872 183.252C52.6695 183.215 52.4702 183.178 52.2742 183.14C49.3092 182.569 44.8904 182.043 49.3415 179.913C50.304 179.452 51.3109 179.261 52.2936 179.261C52.8406 179.261 53.3803 179.32 53.9007 179.424C53.8652 179.959 53.8394 180.492 53.8249 181.026C53.5046 181.729 53.1875 182.472 52.872 183.252Z" fill="#8F8FA8"/>
<path d="M56.652 178.537C51.2392 187.68 45.8643 211.619 43.197 227.317C43.197 227.317 39.0355 227.342 36.2513 230.732C34.0083 233.462 33.1257 238.891 39.0363 241.286C43.9772 243.288 56.8464 249.453 62.824 246.001C73.6868 239.729 77.6982 216.094 87.6936 208.499L56.652 178.537Z" fill="#686779"/>
<path d="M87.6925 208.499C77.697 216.094 73.6872 239.729 62.8253 246.002C56.8453 249.453 43.9752 243.287 39.0344 241.285C33.1238 238.891 34.0072 233.463 36.2501 230.73C39.0344 227.342 43.1959 227.318 43.1959 227.318C43.9615 222.794 44.9555 217.584 46.1149 212.243C47.6849 204.962 49.5583 197.437 51.5696 191.06C53.2018 185.878 54.9267 181.455 56.6525 178.539L87.6925 208.499Z" fill="#5F5F82"/>
<path d="M75.7805 224.096C75.6732 224.087 75.5594 224.077 75.44 224.066C74.1499 223.956 71.9014 223.764 68.7992 222.744C73.7223 221.806 71.4342 216.577 69.3333 214.482C67.2929 212.448 55.1345 205.391 52.1187 193.973C52.8101 191.646 53.5136 189.461 54.2228 187.468C54.9594 192.115 56.736 196.715 59.9971 201.181C59.9971 201.181 62.987 205.28 67.13 207.891C67.1808 207.922 67.2316 207.955 67.2816 207.986C73.3802 211.803 78.8221 213.599 78.8221 213.599C79.5377 213.849 80.2469 214.084 80.9456 214.303C79.0779 217.273 77.4038 220.675 75.7805 224.096Z" fill="#4C4C7F"/>
<path d="M58.2652 248.395C52.3256 248.395 44.878 245.245 40.3551 243.333C39.6636 243.04 39.0448 242.778 38.5172 242.565C35.0423 241.157 33.8087 238.881 33.3859 237.219C32.6453 234.305 33.8297 231.505 35.1843 229.855C37.4159 227.139 40.3906 226.306 42.0138 226.05C44.4294 212.156 49.7858 187.425 55.464 177.833L57.84 179.24C52.9242 187.542 47.6268 209.485 44.5569 227.548C44.4447 228.208 43.8743 228.693 43.2047 228.697C43.1756 228.698 39.6354 228.785 37.3175 231.607C36.4332 232.683 35.5732 234.621 36.0613 236.539C36.4477 238.057 37.6224 239.224 39.5547 240.006C40.0929 240.225 40.7246 240.492 41.4305 240.79C46.6126 242.982 57.3955 247.543 62.1338 244.806C67.474 241.722 71.249 233.71 74.8998 225.961C78.3174 218.706 81.852 211.203 86.859 207.4L88.5283 209.598C84.061 212.993 80.6725 220.183 77.3961 227.138C73.5646 235.271 69.6032 243.68 63.5143 247.196C62.0386 248.048 60.2346 248.395 58.2652 248.395Z" fill="#000072"/>
<path d="M51.9104 236.313C49.3682 237.567 47.2608 240.777 48.9737 243.425C49.4868 244.214 50.2775 244.913 51.1496 245.545C51.6071 245.866 51.7144 246.502 51.3852 246.955C51.0818 247.373 50.5114 247.485 50.0725 247.235C48.4121 246.308 46.7138 244.704 46.2967 242.671C45.6142 239.299 48.1709 235.488 51.6982 235.334C52.2686 235.312 52.4292 236.096 51.9104 236.313Z" fill="#232333"/>
<path d="M43.663 233.191C41.1199 234.444 39.0134 237.654 40.7254 240.302C41.2385 241.091 42.0292 241.79 42.9014 242.422C43.3588 242.744 43.4661 243.379 43.1369 243.832C42.8336 244.251 42.2632 244.363 41.8251 244.113C40.1647 243.186 38.4656 241.581 38.0485 239.549C37.3667 236.176 39.9227 232.366 43.45 232.212C44.0204 232.189 44.1809 232.973 43.663 233.191Z" fill="#232333"/>
<path d="M70.8499 244.303C70.9306 247.296 70.1892 252.797 68.4667 254.193C65.6646 256.464 56.3986 255.331 48.7904 254.286C38.3117 252.847 29.5975 250.194 26.7422 248.135C24.5413 246.053 26.2234 240.161 28.0331 237.048L70.8499 244.303Z" fill="white"/>
<path d="M70.3626 249.696C69.9761 251.679 69.3517 253.476 68.4674 254.192C65.6654 256.463 56.3977 255.331 48.7904 254.286C38.31 252.848 29.5966 250.194 26.7405 248.137C26.1225 247.552 25.8135 246.672 25.7256 245.634C29.2537 247.737 37.997 250.294 48.3733 251.719C56.4082 252.821 66.1858 254.017 69.1467 251.622C69.6236 251.235 70.027 250.553 70.3626 249.696Z" fill="#E8E8E8"/>
<path d="M61.9628 256.555C58.2064 256.555 53.5253 255.982 48.649 255.312C38.6689 253.941 29.4117 251.336 26.1369 248.976C26.0998 248.949 26.0643 248.92 26.0304 248.888C23.3558 246.357 25.1106 240.017 27.1381 236.528C27.4253 236.034 28.0587 235.867 28.5532 236.154C29.0478 236.441 29.2156 237.075 28.9284 237.569C27.0429 240.812 25.9634 245.851 27.4092 247.34C30.0329 249.18 38.2227 251.791 48.9306 253.261C54.6201 254.042 65.2126 255.497 67.8145 253.39C69.0312 252.403 69.9041 247.627 69.8146 244.332C69.7993 243.76 70.2503 243.284 70.8215 243.268C71.3911 243.268 71.8687 243.704 71.8848 244.275C71.955 246.875 71.3556 253.184 69.1175 254.998C67.7137 256.135 65.1763 256.555 61.9628 256.555Z" fill="#000072"/>
<path d="M75.4477 230.581C74.9878 231.671 74.3335 232.98 73.7203 234.663C64.3824 231.582 49.2557 223.632 40.7061 219.03C41.6032 216.552 42.7997 214.05 45.3766 213.129C46.2472 212.817 50.1811 212.371 58.7929 217.919C69.5088 224.824 74.8337 225.948 75.396 226.627C76.369 227.809 76.1262 228.953 75.4477 230.581Z" fill="#FFCE31"/>
<path d="M156.893 183.785C156.893 183.785 161.092 191.878 148.935 196.716C134.727 202.368 122.619 186.575 138.099 169.553C138.099 169.553 136.739 166.783 131.064 164.6L121.653 145.882L115.623 133.888C115.623 133.888 125.969 135.594 135.415 140.536C136.1 140.894 136.778 141.269 137.449 141.662C142.815 144.804 183.088 170.074 156.893 183.785Z" fill="#686779"/>
<path d="M156.895 183.783C156.895 183.783 161.091 191.878 148.935 196.716C134.726 202.368 122.618 186.575 138.101 169.553C138.101 169.553 136.741 166.783 131.065 164.599L121.652 145.88L120.883 144.348L115.624 133.886C115.624 133.886 125.969 135.594 135.416 140.535C136.099 140.894 136.779 141.27 137.448 141.664C137.642 141.778 137.883 141.919 138.166 142.092C145.647 146.622 182.138 170.572 156.895 183.783Z" fill="#5F5F82"/>
<path d="M127.764 143.836C127.604 142.512 127.313 140.866 126.792 139.058C126.883 139.058 126.974 139.058 127.066 139.058C127.621 139.058 128.18 139.055 128.744 139.046C131.19 139.994 133.739 141.143 136.177 142.522C133.455 143.079 130.646 143.52 127.764 143.836Z" fill="#4C4C7F"/>
<path d="M92.0711 141.391C74.8846 137.016 61.2586 128.282 54.7646 117.611C64.4366 122.217 76.0956 127.23 87.862 131.229C91.0876 132.327 92.3091 136.464 92.0711 141.391Z" fill="#545468"/>
<path d="M127.763 143.837C122.767 144.386 117.553 144.565 112.202 144.327C97.3403 143.668 83.8143 139.9 73.2524 134.132C76.4893 127.63 84.4904 117.597 102.581 119.843C122.87 122.362 126.955 137.171 127.763 143.837Z" fill="#545468"/>
<path d="M143.092 196.504C140.786 196.504 138.643 195.871 136.867 194.654C137.004 194.038 137.121 193.418 137.22 192.793C137.221 192.792 137.221 192.789 137.221 192.787C137.222 192.783 137.222 192.778 137.223 192.773C137.224 192.768 137.226 192.761 137.226 192.756V192.754C138.168 186.781 137.467 180.431 136.095 174.288C136.574 173.584 137.105 172.87 137.689 172.148C140.084 177.987 140.332 183.849 140.646 191.877C140.715 193.608 143.549 194.282 145.386 194.282C145.771 194.282 146.112 194.253 146.375 194.197C154.114 192.561 149.866 185.457 149.866 185.457C149.866 185.457 152.493 185.04 155.568 184.164C155.592 184.248 155.624 184.331 155.664 184.411C155.71 184.504 156.794 186.719 155.796 189.338C154.855 191.811 152.374 193.862 148.426 195.433C146.613 196.153 144.807 196.504 143.092 196.504Z" fill="#4C4C7F"/>
<path d="M139.338 168.942C139.188 168.637 137.872 166.199 133.257 164.033C132.547 161.803 131.819 159.656 131.132 157.627C131.061 157.418 130.991 157.21 130.922 157.004C131.187 156.765 131.466 156.629 131.759 156.612C131.793 156.61 131.828 156.608 131.863 156.608C133.337 156.608 135.293 158.508 137.646 160.408C139.999 162.307 142.749 164.207 145.81 164.207C145.997 164.207 146.184 164.2 146.374 164.185C146.374 164.185 143.085 165.847 139.338 168.942Z" fill="#4C4C7F"/>
<path d="M143.156 199.242C138.626 199.242 134.505 197.261 131.964 193.593C128.389 188.429 127.734 179.447 136.33 169.47C135.569 168.629 133.881 167.162 130.57 165.888C129.859 165.615 129.504 164.816 129.778 164.104C130.052 163.394 130.849 163.038 131.562 163.312C137.567 165.623 139.176 168.61 139.339 168.944C139.589 169.452 139.502 170.062 139.122 170.481C130.832 179.597 131.162 187.586 134.234 192.021C137.222 196.335 142.792 197.674 148.426 195.433C152.374 193.862 154.855 191.812 155.797 189.338C156.794 186.719 155.71 184.504 155.664 184.412C155.327 183.738 155.587 182.91 156.253 182.562C161.491 179.82 164.194 176.442 164.287 172.521C164.538 161.95 146.386 148.493 136.753 142.854C127.158 137.237 115.517 135.27 115.401 135.252C114.649 135.127 114.139 134.417 114.263 133.665C114.388 132.913 115.095 132.404 115.849 132.528C116.346 132.609 128.115 134.599 138.148 140.472C139.012 140.978 146.806 145.601 154.121 152.019C162.841 159.666 167.189 166.586 167.047 172.586C166.935 177.292 164.094 181.269 158.599 184.424C158.971 185.722 159.288 187.874 158.399 190.26C157.186 193.514 154.173 196.117 149.446 197.998C147.338 198.836 145.205 199.242 143.156 199.242Z" fill="#000072"/>
<path d="M157.416 185.061C154.957 185.765 152.472 186.127 149.929 186.144C149.546 186.145 149.235 185.835 149.234 185.453C149.232 185.111 149.481 184.826 149.806 184.769C150.957 184.544 152.089 184.235 153.193 183.847C154.258 183.476 155.392 183.014 156.371 182.506C158.188 181.647 159.317 184.398 157.416 185.061Z" fill="#000072"/>
<path d="M137.195 168.509C140 166.518 142.829 164.529 146.163 163.528C146.532 163.432 146.91 163.653 147.006 164.021C147.096 164.367 146.908 164.718 146.585 164.842C143.718 166.171 141.278 168.445 138.997 170.601C137.557 171.919 135.675 169.743 137.195 168.509Z" fill="#000072"/>
<path d="M87.8628 131.231C60.9988 122.097 34.6883 107.688 31.3255 104.911C30.6389 103.013 28.91 100.587 27.1423 99.6637C25.0309 98.5608 22.1038 99.1667 20.0223 102.279C17.0952 99.6887 11.9828 98.443 9.1378 100.746C7.53283 102.046 6.88416 103.803 6.84003 105.374C2.02037 105.941 0.242429 111.18 2.09637 115.259C0.896098 120.064 2.79893 125.451 10.4917 128.762C35.6556 148.771 60.7689 158.067 77.3244 162.339C89.144 165.389 97.567 134.531 87.8628 131.231Z" fill="#5F5F82"/>
<path d="M73.2508 134.131C66.0178 130.182 60.1725 125.297 56.2354 119.826C57.335 120.341 58.4573 120.86 59.5981 121.38C60.8567 122.273 62.1492 123.108 63.4602 123.889C67.4265 126.173 71.5637 128.206 75.8301 129.902C74.7482 131.368 73.9027 132.821 73.2508 134.131Z" fill="#4C4C7F"/>
<path d="M61.1021 155.794C46.4942 150.379 28.935 141.664 11.3508 127.681C11.2814 127.626 11.2069 127.578 11.1284 127.537C12.4015 127.714 13.7424 127.825 15.0974 127.825C16.8669 127.825 18.6612 127.635 20.3643 127.151C20.3643 127.151 39.1208 144.162 56.8987 144.162C61.9226 144.163 66.8675 142.804 71.2904 139.319C71.2904 139.319 68.1519 143.564 64.6133 149.504C63.4539 151.449 62.251 153.575 61.1021 155.794Z" fill="#4C4C7F"/>
<path d="M12.9397 100.922C11.8122 100.922 10.7761 101.195 10.0063 101.819C8.50535 103.034 8.24306 104.592 8.21974 105.413C8.20046 106.098 7.6816 106.665 7.00131 106.745C5.03393 106.976 3.99977 108.125 3.47906 109.048C2.56036 110.677 2.51187 112.838 3.35296 114.688C3.48181 114.972 3.51093 115.29 3.43533 115.593C2.70889 118.503 2.73011 123.918 11.0373 127.494C11.1496 127.541 11.2551 127.605 11.3509 127.681C36.2906 147.513 61.1804 156.748 77.669 161.002C82.7865 162.323 87.3433 155.47 89.412 148.542C91.454 141.703 91.2668 133.846 87.4184 132.538C60.6697 123.442 34.0155 108.922 30.4462 105.975C30.2566 105.818 30.1114 105.613 30.0275 105.38C29.4587 103.807 27.9491 101.642 26.5034 100.886C25.1737 100.193 22.9785 100.34 21.1696 103.045C20.9485 103.376 20.5944 103.596 20.199 103.646C19.8013 103.697 19.4059 103.575 19.1082 103.312C17.4971 101.886 15.0566 100.922 12.9397 100.922ZM78.9889 163.935C78.333 163.935 77.6625 163.851 76.98 163.675C60.2639 159.362 35.0474 150.01 9.77501 129.955C2.74197 126.865 -0.636905 121.453 0.650909 115.384C-0.345005 112.846 -0.193729 109.941 1.0748 107.692C2.07144 105.926 3.64446 104.717 5.57368 104.211C5.88607 102.43 6.81929 100.848 8.26903 99.6738C11.4044 97.1348 16.3587 98.0126 19.7746 100.342C22.3177 97.4833 25.5287 97.2639 27.7813 98.4402C29.8161 99.5019 31.6273 101.996 32.4761 104.06C36.8683 107.359 62.4632 121.136 88.3066 129.924C94.26 131.948 94.4238 141.404 92.0567 149.332C89.7887 156.928 84.985 163.935 78.9889 163.935Z" fill="#000072"/>
<path d="M21.2041 118.478C19.864 120.494 18.7167 124.621 15.6853 122.546C12.6536 120.472 11.8778 116.332 13.9525 113.3C16.0269 110.269 20.1665 109.493 23.1985 111.568C26.2304 113.642 22.6523 116.301 21.2041 118.478Z" fill="white"/>
<path d="M27.2026 106.454C27.3027 107.912 26.2006 109.177 24.7419 109.276C23.2824 109.376 22.0189 108.275 21.9189 106.815C21.8189 105.356 22.9209 104.093 24.3796 103.993C25.8383 103.893 27.1026 104.994 27.2026 106.454Z" fill="white"/>
<path d="M16.0294 106.212C16.1295 107.671 15.0278 108.935 13.5688 109.035C12.1099 109.135 10.846 108.033 10.746 106.574C10.6462 105.115 11.7478 103.852 13.2069 103.751C14.6659 103.651 15.9294 104.754 16.0294 106.212Z" fill="white"/>
<path d="M10.4856 111.962C10.5856 113.421 9.48387 114.685 8.02485 114.785C6.56583 114.885 5.30206 113.783 5.2021 112.324C5.10214 110.865 6.2039 109.602 7.66284 109.502C9.12186 109.402 10.3856 110.503 10.4856 111.962Z" fill="white"/>
<path d="M11.0129 119.663C11.1129 121.123 10.0111 122.386 8.55212 122.486C7.09318 122.586 5.82933 121.484 5.72944 120.026C5.62948 118.567 6.73117 117.303 8.19018 117.203C9.6492 117.103 10.913 118.205 11.0129 119.663Z" fill="white"/>
<path d="M133.615 197.167C135.527 206.653 134.697 223.979 132.809 242.115C132.809 242.115 136.734 243.497 138.26 247.609C139.488 250.922 138.551 256.342 132.182 256.677C126.858 256.956 112.492 258.741 108.158 253.369C102.908 246.863 103.637 230.994 98.2295 208.502L133.615 197.167Z" fill="#686779"/>
<path d="M132.183 256.677C126.859 256.957 112.491 258.741 108.157 253.368C105.321 249.849 104.231 243.593 102.971 235.033C101.902 227.763 100.715 218.832 98.2305 208.502L133.615 197.167C134.026 199.206 134.312 201.611 134.485 204.31C135.12 214.143 134.288 227.88 132.807 242.113C132.807 242.113 136.734 243.496 138.259 247.609C139.488 250.922 138.549 256.343 132.183 256.677Z" fill="#5F5F82"/>
<path d="M104.519 225.071C103.903 225.071 103.433 225.038 103.075 225.012C103.004 225.007 102.936 225.002 102.868 224.997C102.476 222.533 102.031 219.926 101.509 217.197C103.591 217.121 105.889 216.951 108.28 216.635C108.28 216.635 112.817 216.098 118.06 214.107C118.482 213.947 118.909 213.778 119.337 213.599C122.945 212.09 125.559 210.652 127.176 209.668C128.485 208.872 129.14 208.372 129.14 208.372C130.684 206.911 131.98 205.36 133.058 203.737C133.128 204.692 133.183 205.698 133.224 206.752C126.829 216.842 110.258 217.672 108.554 221.721C108.031 222.963 108.346 223.891 109.072 224.584C107.019 224.976 105.559 225.071 104.519 225.071Z" fill="#4C4C7F"/>
<path d="M121.907 258.572C116.061 258.572 109.93 257.762 107.083 254.235C103.767 250.125 102.724 242.945 101.28 233.009C100.313 226.349 99.1088 218.062 96.8877 208.823L99.5719 208.178C101.822 217.54 103.036 225.897 104.012 232.612C105.392 242.114 106.39 248.98 109.232 252.502C112.603 256.681 124.259 255.847 129.86 255.447C130.715 255.385 131.476 255.331 132.109 255.297C134.19 255.189 135.682 254.47 136.543 253.16C137.63 251.507 137.45 249.395 136.965 248.089C135.696 244.665 132.377 243.426 132.344 243.414C131.749 243.198 131.37 242.602 131.436 241.972C133.62 220.993 133.905 205.594 132.262 197.439L134.968 196.894C136.664 205.308 136.433 220.237 134.283 241.273C135.724 242.028 138.315 243.79 139.554 247.129C140.296 249.131 140.501 252.165 138.849 254.677C137.908 256.109 135.999 257.858 132.254 258.054C131.635 258.087 130.893 258.14 130.057 258.2C127.716 258.367 124.847 258.572 121.907 258.572Z" fill="#000072"/>
<path d="M122.381 246.435C126.332 247.959 127.09 254.086 123.632 256.538C122.526 257.364 121.284 257.782 120.077 258.012C119.533 258.116 119.008 257.759 118.904 257.215C118.805 256.701 119.12 256.203 119.611 256.063C120.621 255.756 121.573 255.361 122.299 254.796C124.722 252.894 123.797 249.27 121.86 247.291C121.441 246.911 121.857 246.227 122.381 246.435Z" fill="#232333"/>
<path d="M131.024 246.181C134.975 247.705 135.733 253.833 132.275 256.284C131.17 257.11 129.928 257.528 128.721 257.758C128.177 257.862 127.651 257.506 127.548 256.961C127.448 256.447 127.763 255.949 128.255 255.809C129.264 255.502 130.217 255.107 130.942 254.543C133.366 252.64 132.44 249.016 130.504 247.037C130.084 246.658 130.5 245.973 131.024 246.181Z" fill="#232333"/>
<path d="M123.836 242.051C127.927 241.057 132.483 240.491 136.343 242.655C137.892 243.621 136.535 245.93 134.936 245.041C133.543 243.849 131.675 243.196 129.812 242.908C127.908 242.601 125.901 242.561 123.972 242.727C123.556 242.784 123.427 242.159 123.836 242.051Z" fill="#232333"/>
<path d="M129.139 208.372C129.139 208.372 125.864 210.868 119.337 213.598C113.575 216.008 108.28 216.635 108.28 216.635C101.774 217.495 95.9647 217.277 93.2966 216.998C90.6454 216.722 84.9664 215.751 78.8202 213.597C78.8202 213.597 73.2912 211.773 67.1296 207.891C62.9867 205.28 59.9967 201.181 59.9967 201.181C52.3386 190.69 52.863 179.467 55.8401 168.607C57.611 162.152 61.2868 155.082 64.6132 149.504C68.1519 143.564 71.2903 139.319 71.2903 139.319L102.58 119.844L127.953 147.088C128.538 149.941 129.751 153.55 131.132 157.626C136.273 172.828 143.7 194.588 129.139 208.372Z" fill="white"/>
<path d="M85.4996 215.571C85.4988 215.571 85.4988 215.571 85.498 215.571C85.4988 215.571 85.4988 215.571 85.4996 215.571ZM85.498 215.571C84.9163 215.429 84.3176 215.276 83.7061 215.109C84.3176 215.275 84.9163 215.429 85.498 215.571Z" fill="#63CC89"/>
<path d="M80.9452 214.303C80.2465 214.084 79.5373 213.849 78.8217 213.599C78.8217 213.599 73.3798 211.803 67.2812 207.986C73.3815 211.803 78.8201 213.597 78.8201 213.597C79.5365 213.848 80.2457 214.083 80.9452 214.302C80.9452 214.303 80.9452 214.303 80.9452 214.303Z" fill="#3D3D7C"/>
<path d="M83.7062 215.109C82.8114 214.867 81.8877 214.599 80.9453 214.303C80.9453 214.303 80.9453 214.303 80.9453 214.303C81.8877 214.599 82.8114 214.867 83.7062 215.109Z" fill="#000072"/>
<path d="M118.06 214.107C118.482 213.947 118.909 213.777 119.337 213.598C122.945 212.09 125.559 210.652 127.176 209.668C125.559 210.653 122.945 212.09 119.337 213.599C118.909 213.778 118.482 213.948 118.06 214.107Z" fill="#3D3D7C"/>
<path d="M133.329 203.321C133.33 203.319 133.332 203.316 133.334 203.313C133.332 203.316 133.33 203.319 133.329 203.321Z" fill="#000072"/>
<path d="M135.386 199.373C135.654 198.728 135.896 198.075 136.112 197.416C135.896 198.075 135.654 198.729 135.386 199.373Z" fill="#63CC89"/>
<path d="M136.867 194.654C137.004 194.037 137.121 193.419 137.22 192.793C137.121 193.418 137.004 194.038 136.867 194.654Z" fill="#3D3D7C"/>
<path d="M136.112 197.416C136.41 196.508 136.66 195.585 136.867 194.654C136.66 195.586 136.41 196.508 136.112 197.416Z" fill="#000072"/>
<path d="M133.336 203.308C134.146 202.036 134.823 200.722 135.386 199.373C134.824 200.722 134.146 202.037 133.336 203.308Z" fill="#000072"/>
<path d="M137.221 192.788C137.221 192.783 137.222 192.779 137.223 192.773C137.222 192.778 137.221 192.784 137.221 192.788ZM137.226 192.757C137.226 192.755 137.226 192.757 137.226 192.755V192.757Z" fill="#3D3D7C"/>
<path d="M98.8437 217.245C96.4749 217.245 94.5426 217.128 93.2969 216.997C91.6559 216.826 88.8547 216.39 85.5 215.571C85.4992 215.571 85.4992 215.571 85.4984 215.571C84.9167 215.429 84.3181 215.275 83.7065 215.11C82.8118 214.867 81.888 214.599 80.9456 214.303C80.2461 214.083 79.537 213.848 78.8205 213.598C78.8205 213.598 73.3819 211.803 67.2817 207.986C67.2316 207.955 67.1816 207.923 67.1316 207.892C62.9879 205.279 59.9963 201.181 59.9963 201.181C53.537 192.33 52.8988 182.959 54.648 173.722C54.6133 180.257 62.95 206.999 94.132 208.827C95.5632 208.911 96.9557 208.951 98.3039 208.951C126.45 208.952 136.578 191.398 137.656 186.689C137.671 188.738 137.539 190.768 137.226 192.755C137.226 192.756 137.226 192.755 137.226 192.756C137.226 192.762 137.225 192.768 137.223 192.773C137.222 192.779 137.222 192.783 137.221 192.788C137.221 192.79 137.221 192.792 137.22 192.793C137.121 193.419 137.004 194.038 136.867 194.654C136.661 195.586 136.41 196.508 136.112 197.416C135.896 198.076 135.654 198.728 135.386 199.373C134.824 200.723 134.146 202.036 133.337 203.308C133.336 203.31 133.335 203.312 133.334 203.313C133.332 203.317 133.33 203.319 133.329 203.321C132.198 205.096 130.815 206.787 129.14 208.371C129.14 208.371 128.485 208.871 127.176 209.668C125.559 210.652 122.945 212.09 119.337 213.598C118.909 213.777 118.482 213.947 118.06 214.107C112.816 216.097 108.278 216.635 108.278 216.635C104.813 217.093 101.545 217.245 98.8437 217.245Z" fill="#CCCCE3"/>
<path d="M131.132 157.626C103.411 164.982 77.9465 155.953 64.6133 149.504C68.1519 143.564 71.2904 139.319 71.2904 139.319C71.2904 139.319 76.2465 116.574 102.58 119.844C128.914 123.113 127.954 147.089 127.954 147.089C128.538 149.941 129.751 153.55 131.132 157.626Z" fill="#5F5F82"/>
<path d="M116.82 144.43C115.293 144.43 113.754 144.396 112.202 144.327C97.3403 143.668 83.8143 139.9 73.2524 134.131C73.9043 132.822 74.7499 131.369 75.8318 129.902C82.4863 132.548 89.4562 134.373 96.5883 135.057C96.6109 135.058 96.6327 135.059 96.6545 135.059C97.0369 135.059 97.2725 134.778 97.3201 134.467L114.331 136.964C114.284 137.284 114.441 137.631 114.846 137.737C118.679 138.628 122.562 138.959 126.479 139.056C126.584 139.057 126.686 139.057 126.792 139.058C127.312 140.866 127.603 142.512 127.763 143.837C124.216 144.227 120.558 144.43 116.82 144.43Z" fill="#4C4C7F"/>
<path d="M59.4384 201.587C55.6585 197.206 53.2196 191.587 52.6016 185.806C51.4422 174.569 55.6085 162.533 61.0714 152.874C63.8968 147.946 67.0691 143.257 70.7344 138.911C71.279 138.285 72.3036 138.993 71.8446 139.732C68.9506 144.5 66.13 149.323 63.5273 154.219C60.9955 159.097 58.5235 164.07 57.0688 169.367C54.0998 180.117 54.5193 191.202 60.5534 200.774C60.9891 201.472 60.0015 202.238 59.4384 201.587Z" fill="#000072"/>
<path d="M108.37 217.319C100.965 219.033 93.0288 219.042 85.7103 216.899C83.2673 216.221 80.8728 215.359 78.5919 214.249C78.2466 214.081 78.103 213.666 78.2708 213.321C78.4144 213.025 78.7412 212.877 79.0486 212.947C83.849 213.994 88.6293 215.074 93.4943 215.636C98.3384 216.102 103.29 216.047 108.189 215.951C109.003 215.931 109.17 217.125 108.37 217.319Z" fill="#000072"/>
<path d="M128.63 146.95C130.246 152.058 132.427 157.025 134.124 162.141C139.128 177.155 143.773 197.337 129.614 208.873C129.318 209.115 128.882 209.072 128.64 208.776C128.42 208.507 128.437 208.12 128.665 207.871C130.422 205.886 131.916 203.728 133.072 201.418C140.329 186.525 133.436 170.033 129.078 155.257C128.332 152.645 127.636 149.984 127.277 147.227C127.228 146.847 127.495 146.5 127.874 146.451C128.22 146.406 128.538 146.625 128.63 146.95Z" fill="#000072"/>
<path d="M75.7591 231.792C75.2169 233.08 74.4021 234.67 73.7026 236.822C73.6719 236.921 73.6413 237.021 73.6066 237.124V237.134C73.4283 237.696 73.2605 238.299 73.1096 238.943C72.0373 243.473 71.6364 247.781 70.0123 249.292C69.2612 249.995 67.658 250.304 65.5676 250.368C64.0968 250.417 62.384 250.341 60.5606 250.19C57.8667 249.971 54.934 249.591 52.1885 249.217C52.1683 249.214 52.1514 249.21 52.1304 249.21C51.3421 249.104 50.5716 248.998 49.8245 248.895C39.345 247.456 29.9111 244.2 27.0567 242.144C25.3664 240.328 25.5552 235.948 27.7344 233.337C30.1644 230.311 36.6447 228.059 38.8101 225.449C40.8731 222.96 40.986 216.024 45.6881 214.338C46.5586 214.027 50.4926 213.581 59.1043 219.129C69.8203 226.034 75.7309 226.028 76.2924 226.706C77.2662 227.889 76.4376 230.164 75.7591 231.792Z" fill="white"/>
<path d="M75.7591 231.792C75.5736 232.237 75.3541 232.716 75.1145 233.245C74.6691 234.245 74.1617 235.413 73.7026 236.822C73.6719 236.921 73.6413 237.021 73.6066 237.124V237.134C73.4283 237.696 73.2605 238.299 73.1096 238.943C72.0373 243.473 71.6364 247.781 70.0123 249.292C69.2612 249.995 67.658 250.304 65.5676 250.368C64.0968 250.417 62.384 250.341 60.5606 250.19C57.8667 249.971 54.934 249.591 52.1885 249.217C52.1683 249.214 52.1514 249.21 52.1304 249.21C51.3421 249.104 50.5716 248.998 49.8245 248.895C39.345 247.456 29.9111 244.2 27.0567 242.144C25.3664 240.328 25.5552 235.948 27.7344 233.337C30.1644 230.311 36.6447 228.059 38.8101 225.449C40.1776 223.8 40.6883 220.205 42.2438 217.47C43.0353 216.076 44.0979 214.907 45.6881 214.338C46.5586 214.027 50.4926 213.581 59.1043 219.129C69.8203 226.034 75.7317 226.027 76.2932 226.706C77.267 227.888 76.4376 230.164 75.7591 231.792Z" fill="white"/>
<path d="M75.7591 231.792C75.5736 232.237 75.3541 232.716 75.1145 233.245C74.6691 234.245 74.1617 235.413 73.7026 236.822C73.6719 236.921 73.6413 237.021 73.6066 237.124V237.134C73.4283 237.696 73.2605 238.299 73.1096 238.943C72.0373 243.473 71.6364 247.781 70.0123 249.292C69.2612 249.995 67.658 250.304 65.5676 250.368C64.0968 250.417 62.384 250.341 60.5606 250.19C57.8667 249.971 54.934 249.591 52.1885 249.217C52.1683 249.214 52.1514 249.21 52.1304 249.21C51.3421 249.104 50.5716 248.998 49.8245 248.895C39.345 247.456 29.9111 244.2 27.0567 242.144C25.3664 240.328 25.5552 235.948 27.7344 233.337C30.1644 230.311 36.6447 228.059 38.8101 225.449C40.1776 223.8 40.6883 220.205 42.2438 217.47C43.0353 216.076 44.0979 214.907 45.6881 214.338C46.5586 214.027 50.4926 213.581 59.1043 219.129C69.8203 226.034 75.7317 226.027 76.2932 226.706C77.267 227.888 76.4376 230.164 75.7591 231.792Z" fill="white"/>
<path d="M75.7592 231.79C75.5744 232.237 75.3558 232.717 75.1137 233.245C74.6708 234.246 74.1633 235.412 73.7026 236.823C73.6728 236.921 73.6421 237.021 73.605 237.122V237.132C73.4275 237.697 73.2589 238.298 73.1112 238.944C72.0366 243.473 71.6364 247.781 70.0131 249.293C69.2604 249.995 67.6581 250.304 65.5677 250.368C64.0961 250.416 62.3824 250.341 60.5607 250.191C57.8659 249.972 54.9324 249.589 52.1877 249.216C52.1675 249.213 52.1506 249.209 52.1304 249.209C51.3438 249.105 50.5709 248.997 49.8254 248.893C39.3442 247.455 29.9128 244.199 27.0567 242.143C25.3656 240.328 25.5544 235.95 27.7352 233.336C28.7332 232.096 30.4065 230.986 32.1871 229.928C34.351 228.641 36.6729 227.432 38.1115 226.162C38.3769 225.926 38.6117 225.687 38.8102 225.449C40.1777 223.799 40.6884 220.203 42.2447 217.472C43.0337 216.077 44.0995 214.908 45.6889 214.336C46.5587 214.027 50.4942 213.58 59.1028 219.128C69.8187 226.033 75.7325 226.027 76.2933 226.705C77.2679 227.888 76.4377 230.163 75.7592 231.79Z" fill="white"/>
<path d="M59.9365 219.652C59.2168 221.836 57.7121 223.852 56.351 225.704C53.0044 223.93 49.7853 222.075 46.9897 220.399L49.2641 214.481C51.4384 214.988 54.6439 216.255 59.103 219.128C59.2378 219.213 59.3685 219.296 59.4992 219.38C59.6476 219.474 59.792 219.565 59.9365 219.652Z" fill="#FFB522"/>
<path d="M57.7789 223.722C56.63 225.395 55.3497 226.951 54.5227 228.389C53.1382 227.421 51.8949 226.387 50.8735 225.294L52.0563 219.128C53.7772 220.818 55.7289 222.351 57.7789 223.722Z" fill="#FFB522"/>
<path d="M50.8738 231.383L48.1218 237.452C44.5832 232.962 36.6733 230.809 32.1875 229.928C34.3513 228.641 36.6733 227.432 38.1118 226.162L50.8738 231.383Z" fill="#E5E5E5"/>
<path d="M76.7309 228.43C76.6599 229.521 76.1831 230.781 75.7595 231.79C75.5747 232.237 75.3561 232.717 75.1141 233.245C74.6711 234.246 74.1637 235.412 73.703 236.823C73.6731 236.921 73.6425 237.021 73.6054 237.122V237.132C73.4279 237.697 73.2592 238.298 73.1116 238.944C72.0369 243.473 71.6367 247.781 70.0135 249.293C69.2607 249.995 67.6584 250.304 65.568 250.368C64.0964 250.416 62.3828 250.341 60.561 250.191C57.8663 249.972 54.9328 249.589 52.188 249.216C52.1679 249.213 52.1509 249.209 52.1308 249.209C51.3441 249.105 50.5712 248.997 49.8257 248.893C39.3446 247.455 29.9131 244.199 27.057 242.143C26.2535 241.279 25.8735 239.838 25.934 238.281C25.9816 238.342 26.0284 238.396 26.0784 238.449C28.9312 240.506 38.3571 243.822 48.8447 245.204C76.0524 248.779 68.7936 246.211 76.7309 228.43Z" fill="#E8E8E8"/>
<path d="M52.8292 249.293C52.0668 249.196 51.3068 249.095 50.5645 248.994C50.316 248.96 50.0708 248.927 49.8255 248.893C47.2042 248.533 44.6507 248.06 42.248 247.523C41.6462 247.385 41.0548 247.247 40.4739 247.105C39.8954 246.961 39.3242 246.817 38.7667 246.669C38.2124 246.521 37.6646 246.37 37.1337 246.216C33.8105 245.258 31.0182 244.223 29.0827 243.295C28.9278 243.221 28.7769 243.147 28.6325 243.073C28.4171 242.962 28.2154 242.855 28.0274 242.751C27.9031 242.68 27.7789 242.613 27.6643 242.542C27.4933 242.438 27.3384 242.337 27.194 242.24C27.1472 242.21 27.1004 242.176 27.0568 242.143C26.7744 241.84 26.5453 241.471 26.371 241.047C26.3105 240.906 26.2565 240.758 26.2097 240.607C25.9942 239.911 25.9007 239.112 25.9337 238.281C25.9813 238.342 26.0281 238.396 26.0781 238.449C28.931 240.506 38.3568 243.823 48.8444 245.204C50.1111 245.372 51.3068 245.523 52.429 245.66C52.7623 246.931 52.9405 248.187 52.8292 249.293Z" fill="#FFB522"/>
<path d="M60.5606 250.19C57.8659 249.972 54.9323 249.589 52.1876 249.216C52.1674 249.213 52.1505 249.209 52.1303 249.209C52.0263 249.192 51.9181 249.175 51.8141 249.162C51.1355 248.006 50.5304 246.686 50.0068 245.354C53.2824 245.778 56.0312 246.104 58.3499 246.315C59.0083 247.66 59.7441 248.977 60.5606 250.19Z" fill="#FFB522"/>
<path d="M76.7305 228.43C76.6595 229.521 76.1826 230.781 75.7591 231.79C75.5743 232.237 75.3557 232.717 75.1136 233.245C74.6707 234.246 74.1632 235.412 73.7025 236.824C73.6727 236.921 73.642 237.021 73.6049 237.122V237.133C73.4274 237.697 73.2588 238.298 73.1111 238.944C72.0365 243.473 71.6363 247.781 70.013 249.294C69.2603 249.995 67.658 250.304 65.5676 250.368C64.2743 250.251 63.0003 250.137 61.9321 250.106C62.8357 249.078 63.5748 247.815 64.2234 246.582C70.8529 246.387 71.3572 243.719 73.4573 237.159C74.2132 234.784 75.1846 231.897 76.7305 228.43Z" fill="#FFB522"/>
<path d="M75.7591 231.79C75.5743 232.233 75.3557 232.711 75.1209 233.238L75.1137 233.245C65.3691 231.484 49.9092 222.314 42.2446 217.472C42.2947 217.385 42.3455 217.301 42.3955 217.213C42.5504 216.958 42.7182 216.712 42.8933 216.474C43.0103 216.32 43.1345 216.165 43.2628 216.02C43.3265 215.946 43.3935 215.873 43.4605 215.802C43.5178 215.741 43.5783 215.681 43.6388 215.623C43.6928 215.57 43.7461 215.519 43.8001 215.472C43.8469 215.429 43.8978 215.385 43.9478 215.345C44.4488 214.921 45.0232 214.575 45.6889 214.336C46.5586 214.027 50.4942 213.581 59.1027 219.128C59.2374 219.213 59.3681 219.297 59.4988 219.381C69.9727 226 76.0955 224.733 76.7135 225.348C78.8201 227.438 76.4376 230.163 75.7591 231.79Z" fill="#22C1FF"/>
<path d="M58.3455 222.865C57.8139 222.509 57.2878 222.14 56.7715 221.761C57.0103 221.217 57.283 220.582 57.5057 219.895C58.0188 220.203 58.5513 220.534 59.1031 220.889C59.1911 220.944 59.2782 221 59.3645 221.055C59.0668 221.673 58.7191 222.276 58.3455 222.865Z" fill="#1B9AE3"/>
<path d="M76.5007 227.003C75.2082 226.633 69.233 227.293 59.499 221.141C59.4546 221.112 59.4094 221.083 59.3643 221.054C59.4312 220.916 59.4958 220.776 59.5571 220.636C67.4226 225.459 72.8782 225.925 75.2639 226.128C75.5753 226.155 75.9206 226.185 76.1102 226.215C76.3224 226.463 76.4474 226.724 76.5007 227.003Z" fill="#BCECFF"/>
<path d="M59.3642 221.055C59.2779 221 59.1908 220.944 59.1028 220.889C58.551 220.533 58.0185 220.203 57.5054 219.895C57.5546 219.743 57.6014 219.588 57.6449 219.431C57.9386 219.613 58.2379 219.802 58.5437 219.999C58.8858 220.22 59.2239 220.432 59.5571 220.637C59.4957 220.776 59.4312 220.916 59.3642 221.055Z" fill="#BAE1F7"/>
<path d="M161.049 52.3431C152.313 41.0471 154.529 33.7052 158.278 29.359C163.014 23.8703 170.449 18.0945 179.576 20.5963C192.583 24.1608 199.62 36.9421 193.209 48.7173C189.379 55.7534 183.704 59.1025 178.726 60.6709C173.134 62.4321 167.523 60.7144 161.049 52.3431Z" fill="#5F5F82"/>
<path d="M158.069 29.6045C158.067 29.6029 158.063 29.6005 158.06 29.598C158.127 29.5174 158.195 29.4375 158.263 29.3592C158.543 29.0333 158.835 28.7049 159.138 28.3749C159.142 28.3765 159.147 28.3782 159.151 28.379C158.851 28.7057 158.559 29.0333 158.278 29.3592C158.235 29.4092 158.192 29.4593 158.15 29.5093C158.123 29.5416 158.096 29.573 158.069 29.6045Z" fill="#63CC89"/>
<path d="M178.75 60.6562C176.806 53.5838 173.682 46.8624 169.248 40.9114C166.226 36.8379 162.636 33.2049 158.66 30.0656C159.149 29.6195 159.656 29.183 160.179 28.7618C170.831 33.1589 174.685 48.4235 181.36 50.9956C182.93 51.6007 184.368 51.8557 185.678 51.8557C189.161 51.8557 191.735 50.0533 193.445 48.2436C193.364 48.4026 193.279 48.5575 193.195 48.7156C189.373 55.7315 183.723 59.0806 178.75 60.6562ZM158.15 29.5089C158.192 29.4589 158.235 29.4089 158.278 29.3589C158.559 29.0329 158.851 28.7054 159.151 28.3786C159.152 28.3794 159.151 28.3786 159.152 28.3794C158.806 28.7554 158.471 29.133 158.15 29.5089Z" fill="#4C4C7F"/>
<path d="M194.392 46.1436C195.407 36.3426 188.522 27.2644 177.682 24.2906C176.1 23.8565 174.567 23.6597 173.087 23.6597C168.125 23.6597 163.763 25.8703 160.179 28.7619C159.843 28.6231 159.501 28.4956 159.152 28.3794C163.07 24.1204 168.574 19.996 175.196 19.996C176.607 19.996 178.07 20.1832 179.578 20.5963C191.64 23.9025 198.57 35.1396 194.392 46.1436Z" fill="#8F8FA8"/>
<path d="M158.07 29.605C158.07 29.605 158.07 29.605 158.069 29.6042C158.095 29.5727 158.123 29.5413 158.15 29.509C158.124 29.5413 158.096 29.5727 158.07 29.605Z" fill="#92DBAD"/>
<path d="M158.66 30.0654C158.464 29.9105 158.268 29.7572 158.07 29.6047C158.096 29.5725 158.124 29.541 158.151 29.5087C158.472 29.1328 158.806 28.7552 159.152 28.3792C159.501 28.4954 159.843 28.6229 160.179 28.7616C159.656 29.1828 159.149 29.6193 158.66 30.0654Z" fill="#8282A6"/>
<path d="M153.781 34.2433C156.906 27.2701 163.821 20.6778 171.42 18.9343C175.49 17.9944 179.765 18.7648 183.539 20.4478C191.059 23.6532 197.026 31.0653 196.987 39.4714C197.073 45.6837 193.904 51.4733 189.62 55.7792C185.278 60.0423 179.369 62.5426 173.386 63.1937C171.57 63.3478 171.267 60.7112 173.071 60.4514C178.521 59.8487 183.765 57.6421 187.689 53.8066C194.4 47.1465 196.768 37.5988 190.808 29.6163C187.62 25.3556 182.474 22.4697 177.248 21.6169C171.839 20.8327 166.754 23.3055 162.676 26.8813C159.855 29.363 157.506 32.2166 154.942 34.9904C154.43 35.5745 153.46 34.9557 153.781 34.2433Z" fill="#000072"/>
<path d="M76.8016 39.9766C88.4155 31.6674 88.4034 23.9987 86.0612 18.7594C83.1027 12.1404 77.6415 4.47178 68.1801 4.24506C54.6969 3.92073 44.2835 14.1405 47.0404 27.2615C48.687 35.1019 53.1599 39.9403 57.4779 42.873C62.3276 46.1672 68.1946 46.1341 76.8016 39.9766Z" fill="#686779"/>
<path d="M76.8023 39.978C68.1945 46.1347 62.3259 46.1678 57.4794 42.8752C53.1582 39.9393 48.6877 35.1025 47.0394 27.2621C47.0039 27.0862 46.9668 26.9135 46.9345 26.7376L46.9321 26.7304C44.5666 13.8659 54.8791 3.92376 68.1816 4.24406C77.079 4.45948 82.437 11.2519 85.5052 17.5668C85.7005 17.9693 85.886 18.3679 86.0603 18.7608C88.404 23.9978 88.4161 31.6672 76.8023 39.978Z" fill="#5F5F82"/>
<path d="M57.6053 42.959C57.5633 42.9316 57.5214 42.9033 57.4794 42.8751C53.1582 39.9391 48.6877 35.1024 47.0395 27.2619C47.004 27.086 46.9668 26.9134 46.9346 26.7375C48.3804 29.6121 51.2098 32.8893 56.6299 32.8893C56.9817 32.8893 57.3447 32.8756 57.7191 32.8466C64.8552 32.3012 72.9361 18.7776 84.4104 17.636C84.8041 18.212 85.1777 18.7977 85.5295 19.3883C73.5743 24.0169 64.1727 32.5012 57.6053 42.959ZM86.0305 18.6921C85.8627 18.3193 85.6876 17.9442 85.5044 17.5666C85.5053 17.5666 85.5044 17.5666 85.5052 17.5666C85.6892 17.9458 85.8643 18.3209 86.0305 18.6921Z" fill="#4C4C7F"/>
<path d="M86.2202 19.126C86.1944 19.0647 86.1677 19.0017 86.1411 18.9404C86.1685 19.0025 86.1952 19.0639 86.2226 19.126H86.2202Z" fill="#A4FFB1"/>
<path d="M86.2196 19.127C86.1679 19.0035 86.1155 18.8809 86.0606 18.7607C86.0509 18.7373 86.0404 18.7147 86.0308 18.6921C86.0679 18.7752 86.105 18.8583 86.1413 18.9406C86.1679 19.0019 86.1945 19.0648 86.2204 19.1261L86.2196 19.127Z" fill="#9695A1"/>
<path d="M46.6476 24.457C45.8214 12.9117 55.3513 4.23699 67.5582 4.23699C67.7648 4.23699 67.9705 4.23941 68.1787 4.24506C77.0769 4.45967 82.4364 11.2529 85.5047 17.567C85.1368 17.5775 84.7713 17.6008 84.4106 17.6363C81.0326 12.706 76.0692 8.4977 68.933 8.32747C68.7176 8.32263 68.5014 8.32022 68.2876 8.32022C57.3433 8.32022 48.4564 14.9634 46.6476 24.457Z" fill="#8F8FA8"/>
<path d="M85.5297 19.3887C85.1779 18.7981 84.8044 18.2124 84.4106 17.6363C84.7713 17.6008 85.1368 17.5774 85.5047 17.5669C85.6878 17.9445 85.8629 18.3197 86.0307 18.6924C86.0404 18.715 86.0509 18.7376 86.0605 18.761C86.1154 18.8812 86.1679 19.0038 86.2195 19.1273C85.9888 19.2128 85.7588 19.2999 85.5297 19.3887Z" fill="#8282A6"/>
<path d="M87.6387 25.1109C84.5559 18.6614 81.557 11.1468 75.0373 7.58078C71.9158 5.79211 68.3295 5.45567 64.7715 5.8623C57.6895 6.57471 50.8002 11.1622 48.717 18.1345C46.6153 24.9972 49.2947 32.924 54.0395 38.102C56.4881 40.7709 59.5887 42.8387 62.9482 44.2845C63.6541 44.5814 63.9833 45.3979 63.6799 46.1015C63.379 46.8018 62.5674 47.1253 61.8671 46.8235C58.1864 45.2414 54.7575 42.9646 52.0104 39.9738C50.6364 38.4837 49.4415 36.8265 48.4484 35.0564C45.5826 29.7016 44.2119 23.2448 46.0796 17.3197C48.7687 8.20848 58.2881 2.6803 67.4655 2.77551C75.1131 2.58107 81.2206 7.28308 84.9552 13.6439C87.0328 17.0583 88.4955 20.8091 88.965 24.7293C89.0498 25.5119 87.9751 25.8169 87.6387 25.1109Z" fill="#000072"/>
<path d="M114.938 137.053C114.938 137.053 158.738 142.884 173.06 119.833C180.571 107.746 178.742 91.8929 178.743 91.8751C178.701 91.1571 187.681 50.0877 152.662 27.574C142.788 21.2261 133.037 18.4862 123.253 16.9323C113.436 15.6091 103.309 15.4308 92.0277 18.6734C52.0153 30.1735 48.8139 72.0916 48.567 72.7669C48.563 72.7846 42.2554 87.4434 45.9756 101.179C53.069 127.373 96.6975 134.376 96.6975 134.376L114.938 137.053Z" fill="white"/>
<path d="M114.938 137.053C114.938 137.053 158.738 142.884 173.06 119.833C180.571 107.746 178.742 91.8929 178.743 91.8751C178.701 91.1571 187.681 50.0877 152.662 27.574C142.788 21.2261 133.037 18.4862 123.253 16.9323C113.436 15.6091 103.309 15.4308 92.0277 18.6734C52.0153 30.1735 48.8139 72.0916 48.567 72.7669C48.563 72.7846 42.2554 87.4434 45.9756 101.179C53.069 127.373 96.6975 134.376 96.6975 134.376L114.938 137.053Z" fill="white"/>
<path d="M114.331 136.964L97.3203 134.467L114.331 136.964Z" fill="#3D3D7C"/>
<path d="M114.331 136.964L97.3202 134.467C97.3694 134.145 97.2145 133.791 96.807 133.694C89.4861 131.577 82.1176 129.477 75.0936 126.52C63.9695 121.721 52.3572 114.55 47.994 102.7C46.5007 98.5131 46.0601 93.8595 46.3248 89.2413C46.5071 90.4298 46.7532 91.6206 47.0743 92.805C54.1685 119.001 97.7954 126.002 97.7954 126.002L116.035 128.679C116.035 128.679 120.98 129.338 128.088 129.338C142.14 129.338 164.646 126.768 174.157 111.462C174.996 110.112 175.719 108.716 176.341 107.299C175.361 111.937 173.678 116.443 171.083 120.151C168.223 124.352 164.125 127.522 159.606 129.875C147.923 135.759 134.708 136.404 121.775 136.404C119.515 136.404 117.261 136.384 115.029 136.369C115.022 136.369 115.016 136.369 115.009 136.369C114.616 136.369 114.376 136.652 114.331 136.964Z" fill="#CCCCE3"/>
<path d="M115.029 136.369C130.039 136.469 145.882 136.787 159.606 129.875C164.125 127.522 168.224 124.352 171.084 120.151C176.626 112.233 178.009 100.668 177.256 91.9642C179.972 75.0593 177.291 56.6046 166.872 42.68C163.063 37.5399 158.274 33.113 152.956 29.5598C144.092 23.4314 133.639 19.9976 123.043 18.3663C114.537 17.194 105.81 17.0552 97.3849 18.8334C89.0217 20.5576 80.8964 23.8816 74.0345 29.0031C60.0454 39.3455 52.1049 56.2528 49.8765 73.2464C46.5783 81.6565 44.6565 93.343 47.9943 102.7C52.3574 114.55 63.9697 121.721 75.0939 126.52C82.1179 129.477 89.4864 131.576 96.8073 133.694C97.6286 133.89 97.4245 135.126 96.5886 135.057C84.8828 133.934 73.615 129.738 63.4606 123.888C55.8122 119.336 48.7809 112.89 45.5037 104.391C41.7448 94.1304 43.3681 82.5932 47.1366 72.584L47.2052 72.413C47.2004 72.4259 47.2012 72.4412 47.2076 72.4574L47.2577 72.2879C47.2399 72.3121 47.2286 72.3388 47.223 72.367C47.2214 72.3783 47.2205 72.3912 47.2238 72.3646L47.2512 72.1685L47.3069 71.7651C50.4889 48.5462 64.3804 26.7973 87.1329 18.7963C94.474 16.0725 102.313 14.6913 110.133 14.6042C125.693 14.5622 141.625 18.2848 154.6 27.1176C160.202 30.8515 165.229 35.4922 169.248 40.9115C179.897 55.2015 182.989 73.9403 180.335 91.2929L180.272 91.6947L180.242 91.8899C180.237 91.9174 180.24 91.9029 180.242 91.8891C180.246 91.8552 180.242 91.8206 180.231 91.7875L180.23 91.9763C180.242 91.9577 180.246 91.9375 180.246 91.919L180.261 92.1029L180.294 92.4821C180.938 103.445 178.915 115.621 171.608 124.208C160.842 136.477 141.965 139.126 126.479 139.056C122.563 138.959 118.68 138.629 114.846 137.737C114.039 137.527 114.217 136.35 115.029 136.369Z" fill="#000072"/>
<path d="M87.9442 93.1817C91.9548 92.9389 101.479 90.4201 103.363 76.4616C105.212 62.763 100.567 57.5559 91.8895 56.0827C83.2123 54.6094 70.4423 57.3219 62.6672 64.2467C57.1277 69.1803 54.5992 78.4875 56.1127 82.7256C59.1044 91.1026 83.9328 93.4254 87.9442 93.1817Z" fill="#5F5F82"/>
<path d="M134.366 99.9955C130.593 98.6103 122.195 93.4605 124.402 79.5496C126.568 65.8978 132.514 62.2454 141.249 63.3273C149.983 64.41 161.435 70.6781 166.892 79.5448C170.78 85.8628 170.527 95.5033 167.859 99.1282C162.587 106.293 138.138 101.382 134.366 99.9955Z" fill="#5F5F82"/>
<path d="M151.949 84.8701C151.122 91.1914 145.883 95.5634 140.247 94.6356C134.612 93.7078 130.714 87.831 131.541 81.5098C132.369 75.1893 137.608 70.8165 143.243 71.7451C148.879 72.6721 152.776 78.5488 151.949 84.8701Z" fill="#000072"/>
<path d="M135.769 85.7624C135.928 88.3256 137.607 90.2829 139.519 90.1336C141.431 89.9843 142.852 87.7858 142.693 85.2226C142.534 82.6594 140.856 80.7021 138.944 80.8514C137.032 81.0006 135.61 83.1992 135.769 85.7624Z" fill="white"/>
<path d="M146.962 82.5835C145.954 82.5835 144.896 81.5815 144.456 80.1195C143.949 78.4374 144.45 76.7834 145.575 76.4244C145.722 76.3776 145.872 76.355 146.023 76.355C147.031 76.355 148.089 77.3571 148.529 78.819C149.035 80.5011 148.534 82.1551 147.41 82.5141C147.263 82.5609 147.113 82.5835 146.962 82.5835Z" fill="#5959A3"/>
<path d="M76.5604 40.3199C75.9134 38.8879 83.206 28.0058 93.1845 33.0103C96.778 34.8135 96.59 38.5498 93.5452 38.9032C90.6439 39.2404 89.4765 38.4506 84.9269 39.334C82.3532 39.8342 77.2075 41.7528 76.5604 40.3199Z" fill="#5F5F82"/>
<path d="M160.058 52.6523C161.091 51.4679 157.256 38.9423 146.257 40.8496C142.295 41.5362 141.396 45.1676 144.208 46.3859C146.888 47.5476 148.233 47.1289 152.333 49.2895C154.653 50.5126 159.024 53.8367 160.058 52.6523Z" fill="#5F5F82"/>
<path d="M52.8292 249.292C51.811 249.163 50.8041 249.029 49.8247 248.893C39.346 247.457 29.9113 244.201 27.0544 242.142C25.4376 240.404 25.5424 236.313 27.4691 233.675C31.3296 237.268 40.5788 241.183 48.9098 237.701C48.9098 237.701 53.2834 244.784 52.8292 249.292Z" fill="#22C1FF"/>
<path d="M49.9676 247.869H49.9651C39.4534 246.425 30.389 243.192 27.7499 241.366C27.2989 240.833 27.0319 239.985 26.9722 239.015C30.5842 241.069 39.2702 243.942 48.8413 245.203C49.1809 246.101 49.5569 247.005 49.9676 247.869Z" fill="#1B9AE3"/>
<path d="M75.7591 231.791C75.2169 233.08 74.4021 234.669 73.7026 236.822C67.7363 235.18 56.2362 231.031 50.8726 225.293L52.0553 219.129C59.1318 226.075 70.118 230.366 75.7591 231.791Z" fill="#22C1FF"/>
<path d="M55.3215 227.138C55.0246 226.719 54.6914 226.313 54.3291 225.923C54.843 225.226 55.361 224.449 55.8297 223.631C56.2743 223.952 56.7253 224.265 57.1803 224.57C56.5381 225.461 55.887 226.317 55.3215 227.138Z" fill="#1B9AE3"/>
<path d="M51.9911 224.961C56.6552 229.639 65.9641 233.507 73.0429 235.56C73.4786 234.362 73.9353 233.346 74.3177 232.497L74.3266 232.476C68.8879 230.925 59.5428 227.165 52.7197 221.159L51.9911 224.961ZM73.7037 237.857C73.6126 237.857 73.5206 237.845 73.4286 237.82C65.8132 235.725 55.1384 231.372 50.1169 226C49.891 225.759 49.7942 225.423 49.8563 225.099L51.0383 218.934C51.1109 218.559 51.3828 218.254 51.7467 218.141C52.1105 218.027 52.5083 218.123 52.781 218.39C59.8477 225.327 70.7089 229.447 76.0128 230.787C76.3048 230.861 76.5501 231.059 76.6856 231.329C76.8196 231.599 76.8301 231.914 76.7139 232.192C76.5622 232.551 76.3904 232.935 76.2056 233.345C75.7239 234.417 75.1777 235.631 74.6872 237.141C74.546 237.577 74.1418 237.857 73.7037 237.857Z" fill="#000072"/>
<path d="M47.6149 238.487C47.4988 238.487 47.3826 238.467 47.2704 238.428C46.9332 238.309 46.6815 238.025 46.604 237.676L46.5306 237.34C46.4394 236.902 46.6395 236.454 47.0276 236.231L47.6045 235.898C47.9845 235.678 48.4629 235.724 48.7969 236.011C49.1301 236.298 49.2455 236.765 49.0849 237.174C48.9833 237.431 48.9082 237.571 48.9082 237.571C48.8848 237.615 48.8526 237.667 48.8235 237.707C48.7792 237.767 48.6073 237.984 48.2612 238.261C48.0748 238.41 47.8457 238.487 47.6149 238.487Z" fill="#232333"/>
<path d="M48.1205 237.83C47.9923 237.83 47.8624 237.807 47.7365 237.756C47.2048 237.543 46.9475 236.941 47.1596 236.41C47.4364 235.719 47.9761 233.888 47.0128 231.835C45.8841 229.429 43.1022 227.494 38.7447 226.085C38.2009 225.91 37.9024 225.325 38.0783 224.782C38.2542 224.238 38.8375 223.939 39.3821 224.115C44.3076 225.709 47.505 228.01 48.887 230.955C50.1948 233.743 49.459 236.237 49.0823 237.179C48.9193 237.584 48.5312 237.83 48.1205 237.83Z" fill="#232333"/>
<path d="M41.742 239.982C40.1083 239.982 38.1292 239.786 35.7395 239.286C31.1342 238.319 28.0975 236.528 26.713 233.962C26.4411 233.458 26.6291 232.83 27.1317 232.559C27.6344 232.287 28.262 232.475 28.5339 232.978C29.6013 234.956 32.2404 236.436 36.1646 237.259C43.5194 238.8 46.2964 237.174 46.9725 236.639C47.4203 236.285 48.0714 236.36 48.4264 236.81C48.7814 237.257 48.7047 237.908 48.257 238.263C47.3178 239.007 45.3888 239.982 41.742 239.982Z" fill="#000072"/>
<path d="M75.7592 231.791H75.7625H75.7592ZM52.2297 248.179C52.2725 248.182 52.3136 248.188 52.3588 248.196C55.0826 248.566 57.9959 248.942 60.6446 249.158C62.5705 249.317 64.2147 249.375 65.5339 249.334C68.1608 249.251 69.0241 248.799 69.3048 248.536C70.2649 247.643 70.7974 244.99 71.3614 242.181C71.5865 241.06 71.8196 239.899 72.1028 238.704C72.2464 238.088 72.4142 237.475 72.5998 236.885C72.6071 236.854 72.6151 236.824 72.6248 236.796C72.6563 236.701 72.6853 236.608 72.7144 236.516C73.2436 234.885 73.839 233.56 74.3175 232.496C74.4942 232.103 74.6588 231.736 74.804 231.391C74.9686 230.997 75.2009 230.58 75.4462 230.139C76.399 228.429 76.967 227.213 76.1102 226.215C75.9206 226.185 75.5753 226.155 75.2639 226.128C72.7773 225.916 66.9538 225.418 58.5437 219.999C49.5035 214.175 46.0714 215.301 46.0375 215.312C43.4606 216.236 42.4787 219.128 41.5291 221.924C40.9773 223.55 40.4553 225.086 39.6073 226.109C38.4536 227.5 36.3769 228.698 34.1784 229.966C31.9718 231.239 29.6894 232.556 28.5421 233.984C26.6518 236.25 26.5412 239.938 27.7498 241.366C30.3888 243.192 39.4532 246.425 49.965 247.869L50.1796 247.898C50.8461 247.99 51.531 248.085 52.2297 248.179ZM52.095 250.244C52.1071 250.244 52.1184 250.245 52.1305 250.245C52.1192 250.245 52.1071 250.244 52.095 250.244ZM64.6327 251.417C63.4346 251.417 62.063 251.353 60.4752 251.221C57.7789 251.002 54.8325 250.621 52.0498 250.243L52.0361 250.24C52.0216 250.239 52.007 250.237 51.9933 250.236C51.2785 250.14 50.579 250.044 49.8973 249.949L49.6835 249.92C39.3016 248.494 29.5409 245.209 26.4509 242.983C26.396 242.944 26.3444 242.898 26.2984 242.848C24.1717 240.562 24.4831 235.616 26.9406 232.673C28.3178 230.957 30.7713 229.542 33.1441 228.173C35.0877 227.052 37.0974 225.893 38.0131 224.787C38.6174 224.059 39.0797 222.699 39.5694 221.258C40.5731 218.302 41.822 214.625 45.3389 213.364C46.0601 213.103 50.1441 212.125 59.6652 218.259C67.6428 223.4 73.1065 223.866 75.4397 224.066C76.466 224.153 77.0307 224.202 77.4438 224.612C79.6666 226.818 78.157 229.527 77.255 231.147C77.0388 231.536 76.8339 231.903 76.7145 232.189L76.7137 232.192C76.562 232.551 76.3901 232.935 76.2054 233.345C75.7237 234.417 75.1775 235.631 74.687 237.141C74.6652 237.215 74.6394 237.296 74.612 237.382C74.6063 237.403 74.6007 237.425 74.5934 237.446C74.4159 238.007 74.2562 238.589 74.1174 239.178C73.8423 240.342 73.6131 241.484 73.3913 242.589C72.7047 246.005 72.1633 248.704 70.7167 250.05C69.818 250.891 68.1914 251.322 65.6 251.402C65.2902 251.413 64.9683 251.417 64.6327 251.417Z" fill="#000072"/>
<path d="M73.6068 237.124V237.133C73.4285 237.696 73.2607 238.299 73.1099 238.943C72.0376 243.473 71.6366 247.781 70.0125 249.292C69.2614 249.995 67.6583 250.304 65.5679 250.368C64.2754 250.252 63.0007 250.135 61.9316 250.108C63.7276 248.066 64.8789 245.098 65.9342 243.268C68.1279 239.464 71.0638 237.706 73.6068 237.124Z" fill="#22C1FF"/>
<path d="M65.5676 250.368C65.5023 250.363 65.4369 250.357 65.3716 250.35C65.4369 250.357 65.5023 250.363 65.5676 250.368C67.6581 250.304 69.2612 249.995 70.0123 249.292C70.7666 248.59 71.2572 247.285 71.6735 245.634C71.2572 247.285 70.7674 248.591 70.0131 249.294C69.2603 249.995 67.6581 250.304 65.5676 250.368Z" fill="#000072"/>
<path d="M62.5853 249.29L62.5845 249.289C63.2025 248.444 63.739 247.504 64.2239 246.582C64.2247 246.582 64.2239 246.582 64.2247 246.582C63.7406 247.505 63.2033 248.445 62.5853 249.29Z" fill="#CC9132"/>
<path d="M61.9329 250.106C61.9321 250.106 61.9321 250.106 61.9321 250.106C62.1596 249.847 62.3759 249.574 62.584 249.289L62.5848 249.29C62.3775 249.574 62.1597 249.847 61.9329 250.106ZM72.0857 243.813C72.3995 242.312 72.7069 240.643 73.1095 238.943C73.1458 238.787 73.1838 238.635 73.2217 238.484C73.1838 238.635 73.1474 238.788 73.1111 238.944C72.7077 240.643 72.3995 242.312 72.0857 243.813ZM73.4774 237.153C73.5202 237.142 73.5613 237.131 73.6049 237.122V237.123C73.563 237.133 73.5202 237.144 73.4774 237.153Z" fill="#000072"/>
<path d="M65.5677 250.368C65.5024 250.363 65.437 250.357 65.3717 250.35C64.1462 250.24 62.9473 250.135 61.9331 250.107C62.1598 249.848 62.3777 249.574 62.585 249.29C63.203 248.445 63.7403 247.505 64.2244 246.582C70.8531 246.387 71.3573 243.719 73.4574 237.159C73.4647 237.158 73.4711 237.156 73.4776 237.154C73.5204 237.144 73.5631 237.133 73.6051 237.124V237.133C73.4703 237.561 73.3413 238.01 73.2218 238.484C73.1839 238.635 73.146 238.787 73.1097 238.943C72.7071 240.643 72.3997 242.312 72.0859 243.814C71.9519 244.454 71.8172 245.064 71.6736 245.634C71.2573 247.285 70.7667 248.59 70.0124 249.292C69.2613 249.995 67.6582 250.304 65.5677 250.368Z" fill="#1B9AE3"/>
<path d="M63.9144 249.186C64.4437 249.227 64.9931 249.277 65.5555 249.327L65.5966 249.331C68.1751 249.244 69.0263 248.797 69.3047 248.537C70.2648 247.644 70.7973 244.99 71.3612 242.182C71.5847 241.068 71.8162 239.916 72.0962 238.73C70.4907 239.468 68.4825 240.921 66.831 243.785C66.5301 244.306 66.2106 244.946 65.8717 245.623C65.2989 246.771 64.6736 248.023 63.9144 249.186ZM65.5676 251.403C65.5361 251.403 65.5055 251.402 65.4748 251.399L65.3699 251.39C64.1057 251.276 62.9116 251.169 61.9047 251.143C61.5029 251.132 61.1431 250.89 60.9825 250.522C60.822 250.154 60.8881 249.726 61.1536 249.424C62.3234 248.094 63.2246 246.29 64.0201 244.699C64.3727 243.992 64.7059 243.325 65.0375 242.75C67.7693 238.013 71.4338 236.559 73.375 236.114C73.6808 236.043 74.0051 236.117 74.2512 236.314C74.498 236.51 74.6417 236.808 74.6417 237.123V237.134C74.6417 237.24 74.6255 237.346 74.5932 237.446C74.4157 238.007 74.256 238.59 74.1172 239.179C73.8421 240.342 73.613 241.485 73.3911 242.59C72.7045 246.006 72.1632 248.705 70.7174 250.05C69.8178 250.892 68.1913 251.323 65.5998 251.403C65.5886 251.403 65.5781 251.403 65.5676 251.403Z" fill="#000072"/>
<path d="M60.561 250.189C57.8671 249.97 54.9344 249.59 52.1888 249.216C52.1686 249.213 52.1517 249.209 52.1307 249.209C52.025 249.192 51.9185 249.175 51.8161 249.162C49.4062 245.06 47.9402 238.915 47.6143 237.452C47.8813 237.236 47.991 237.093 47.991 237.093C47.991 237.093 48.0459 236.986 48.1217 236.794L53.9331 233.429C53.9331 233.429 56.0098 243.432 60.561 250.189Z" fill="#22C1FF"/>
<path d="M58.5811 248.965C56.5633 248.755 54.4648 248.482 52.4648 248.21C51.9993 247.367 51.5717 246.445 51.1836 245.505C53.4168 245.788 55.3911 246.022 57.1402 246.199C57.5831 247.135 58.0632 248.065 58.5811 248.965Z" fill="#1B9AE3"/>
<path d="M52.4645 248.21C54.4645 248.481 56.563 248.755 58.5808 248.965C55.6263 243.833 53.9079 237.724 53.2406 235.026L48.9347 237.519C48.9202 237.55 48.9113 237.566 48.9113 237.566C48.8847 237.617 48.8492 237.675 48.8137 237.721C48.8024 237.736 48.7831 237.76 48.7548 237.793C49.2026 239.68 50.4943 244.64 52.4645 248.21ZM52.095 250.244C52.1071 250.244 52.1184 250.245 52.1305 250.245C52.1192 250.245 52.1071 250.244 52.095 250.244ZM60.5615 251.225C60.5333 251.225 60.5051 251.224 60.4768 251.221C57.7789 251.002 54.8324 250.621 52.0498 250.243L52.0361 250.24C52.0127 250.238 51.9909 250.235 51.9683 250.231C51.8449 250.212 51.7601 250.198 51.6779 250.187C51.3624 250.145 51.0841 249.96 50.9227 249.686C48.3974 245.387 46.8822 238.928 46.6039 237.677C46.5184 237.294 46.658 236.895 46.9629 236.648C47.0315 236.592 47.0831 236.546 47.1194 236.511C47.1307 236.484 47.1436 236.452 47.1574 236.416C47.2429 236.198 47.4002 236.016 47.6027 235.898L53.4141 232.533C53.7021 232.366 54.0523 232.348 54.3556 232.483C54.659 232.62 54.8792 232.893 54.947 233.218C54.9672 233.316 57.0382 243.107 61.4192 249.611C61.641 249.942 61.6556 250.369 61.4547 250.713C61.2675 251.032 60.9262 251.225 60.5615 251.225Z" fill="#000072"/>
<path d="M40.9854 223.581C40.9854 223.581 41.9382 222.647 43.2791 217.146C44.0423 214.014 46.0908 209.876 53.6102 213.225C58.1783 215.259 57.1012 218.449 55.749 221.512C54.5251 224.286 52.3677 226.848 51.3664 227.793C49.9287 229.151 40.9854 223.581 40.9854 223.581Z" fill="white"/>
<path d="M55.7488 221.514C55.41 222.28 55.0033 223.03 54.566 223.732C53.4236 225.577 52.0932 227.109 51.3671 227.795C49.9294 229.152 40.9844 223.581 40.9844 223.581C40.9844 223.581 41.7775 222.805 42.9368 218.49C43.0474 218.077 43.1619 217.63 43.2789 217.146C44.0421 214.015 46.0914 209.878 53.6084 213.225C58.1789 215.257 57.1002 218.45 55.7488 221.514Z" fill="white"/>
<path d="M54.566 223.732C53.4236 225.577 52.0932 227.109 51.3671 227.795C49.9294 229.152 40.9844 223.581 40.9844 223.581C40.9844 223.581 41.7775 222.805 42.9368 218.49C47.016 218.631 52.6039 220.187 54.566 223.732Z" fill="#E5E5E5"/>
<path d="M42.3972 223.231C46.1448 225.479 49.7964 227.126 50.7274 226.972C51.7569 225.974 53.7086 223.572 54.8018 221.094C56.3847 217.508 56.5275 215.657 53.189 214.17C50.4459 212.949 48.307 212.695 46.8379 213.417C45.6268 214.012 44.7918 215.311 44.2843 217.391C43.5211 220.523 42.8652 222.267 42.3972 223.231ZM50.6903 229.048C49.677 229.048 48.0384 228.572 45.1694 227.12C42.7409 225.891 40.5311 224.517 40.4383 224.459C40.1503 224.28 39.9228 224.011 39.905 223.673C39.8889 223.344 39.9865 223.066 40.2382 222.86C40.3818 222.658 41.1749 221.404 42.273 216.9C42.9346 214.187 44.1294 212.44 45.9254 211.559C47.973 210.553 50.7 210.795 54.0313 212.279C59.8184 214.856 57.7869 219.458 56.6961 221.93C55.4456 224.763 53.2495 227.439 52.078 228.545C51.7779 228.828 51.3785 229.048 50.6903 229.048Z" fill="#000072"/>
<path d="M47.3528 232.932C47.3528 232.932 44.9074 236.198 46.9623 238.411C49.3698 241.006 54.4228 238.439 56.2897 234.135C58.7278 228.518 52.7777 223.416 47.3124 221.404C40.1803 218.779 38.1343 222.32 38.1714 224.939C38.2085 227.557 47.3528 232.932 47.3528 232.932Z" fill="#22C1FF"/>
<path d="M55.5215 235.557V235.556C55.8144 235.11 56.0733 234.634 56.2896 234.135C56.4598 233.743 56.5889 233.354 56.6809 232.968C56.5889 233.354 56.4598 233.743 56.2904 234.135C56.0749 234.634 55.8152 235.11 55.5215 235.557Z" fill="white"/>
<path d="M55.3271 235.841C55.3933 235.747 55.4578 235.653 55.5216 235.556V235.557C55.4587 235.653 55.3933 235.747 55.3271 235.841Z" fill="#B2B2D4"/>
<path d="M55.5536 227.48C55.4786 227.365 55.4012 227.251 55.3213 227.138C55.4012 227.251 55.4786 227.365 55.5536 227.48Z" fill="#BCECFF"/>
<path d="M55.3215 227.138C55.0246 226.719 54.6914 226.313 54.3291 225.923C54.6914 226.313 55.0246 226.719 55.3215 227.138Z" fill="#BAE1F7"/>
<path d="M52.8019 224.504C51.1608 223.171 49.2076 222.102 47.3124 221.404C46.6815 221.172 46.0909 220.988 45.5366 220.847C46.0901 220.988 46.6807 221.172 47.3116 221.403C49.2076 222.101 51.1608 223.17 52.8019 224.503V224.504Z" fill="#F7F7F7"/>
<path d="M54.329 225.924C53.8635 225.424 53.3504 224.949 52.8018 224.504V224.503C53.3504 224.949 53.8635 225.424 54.329 225.924Z" fill="#B2B2D4"/>
<path d="M54.8753 236.43C55.0205 236.172 55.1544 235.906 55.2722 235.63C57.7079 230.012 51.761 224.911 46.2933 222.902C44.5216 222.249 43.0637 221.977 41.8737 221.977C40.3311 221.977 39.2395 222.434 38.498 223.113C39.0507 221.704 40.3706 220.481 42.8959 220.481C43.6616 220.481 44.5378 220.593 45.5366 220.847C46.0908 220.988 46.6814 221.171 47.3123 221.404C49.2075 222.102 51.1608 223.171 52.8018 224.504C53.3504 224.949 53.8635 225.423 54.3291 225.924C54.6913 226.313 55.0245 226.719 55.3214 227.138C55.4013 227.251 55.4788 227.364 55.5538 227.48C56.6373 229.147 57.1432 231.014 56.6809 232.969C56.5889 233.354 56.4598 233.743 56.2896 234.135C56.0734 234.634 55.8144 235.11 55.5215 235.556C55.4578 235.653 55.3932 235.747 55.3271 235.841C55.1835 236.044 55.0326 236.24 54.8753 236.43Z" fill="#BCECFF"/>
<path d="M48.1831 233.55C48.1637 233.576 46.2838 236.159 47.7207 237.707C48.2807 238.31 49.0657 238.531 50.0484 238.364C52.1001 238.013 54.326 236.061 55.3402 233.723C55.9775 232.255 55.9735 230.744 55.3273 229.235C54.1614 226.511 50.8753 223.819 46.9551 222.375C44.0393 221.302 41.8013 221.23 40.4805 222.163C39.3066 222.995 39.1985 224.371 39.2066 224.923C39.2219 226.007 43.2737 229.332 47.8773 232.04C48.1314 232.189 48.3097 232.44 48.3678 232.729C48.4259 233.016 48.3589 233.315 48.1831 233.55ZM49.4481 240.486C48.1677 240.486 47.0382 240.014 46.2032 239.116C44.3588 237.127 45.2197 234.634 45.9272 233.284C43.0494 231.522 37.1743 227.601 37.1363 224.953C37.1105 223.119 37.9133 221.445 39.2849 220.474C41.2139 219.109 44.0345 219.095 47.6707 220.433C51.1948 221.73 55.5572 224.51 57.2305 228.42C58.1099 230.474 58.1123 232.535 57.2394 234.547C55.9461 237.528 53.1328 239.936 50.3969 240.404C50.0734 240.459 49.7563 240.486 49.4481 240.486Z" fill="#000072"/>
<path d="M33.8354 228.979C33.8354 228.979 41.6888 228.654 48.3175 235.283C48.3175 235.283 52.8017 236.376 51.9626 232.214C51.0816 227.84 41.0926 223.851 38.5036 224.486C36.0187 225.095 33.9726 226.862 33.8354 228.979Z" fill="white"/>
<path d="M52.0628 233.299C51.9587 236.172 48.3168 235.284 48.3168 235.284C41.6906 228.655 33.834 228.981 33.834 228.981C33.9042 227.922 34.4488 226.954 35.2854 226.171C35.1878 226.463 35.1273 226.763 35.1071 227.072C35.1071 227.072 42.3264 226.772 48.7606 232.587C49.544 233.295 50.613 233.641 51.6441 233.42C51.7861 233.39 51.9273 233.35 52.0628 233.299Z" fill="#E5E5E5"/>
<path d="M48.822 234.327C49.4054 234.415 50.3525 234.43 50.7624 234.033C51.1166 233.691 51.0585 232.966 50.9488 232.419C50.7035 231.205 49.4094 229.801 47.3036 228.464C43.9635 226.342 39.8738 225.216 38.75 225.491C37.0718 225.903 35.7406 226.861 35.1686 227.989C37.7729 228.197 43.6061 229.248 48.822 234.327ZM49.503 236.45C48.7761 236.45 48.1976 236.319 48.0725 236.289C47.8886 236.244 47.72 236.149 47.586 236.015C41.3519 229.782 33.9535 230.013 33.8785 230.013C33.584 230.03 33.3008 229.912 33.0951 229.702C32.8902 229.492 32.7837 229.205 32.803 228.912C32.9644 226.424 35.1557 224.241 38.2578 223.48C40.4458 222.944 45.2737 224.721 48.4138 226.716C50.2436 227.878 52.5204 229.739 52.9779 232.01C53.2877 233.547 53.0247 234.731 52.1953 235.528C51.424 236.269 50.3598 236.45 49.503 236.45Z" fill="#000072"/>
<path d="M57.9282 236.995L60.8133 242.678L70.8096 236.248L61.4943 239.42L57.9282 236.995Z" fill="#000072"/>
<path d="M70.888 79.4199C71.2809 73.3689 75.8499 67.5971 81.9719 66.4885C88.9628 65.217 95.1138 69.1824 95.848 76.4202C96.0199 78.1258 95.8778 79.7991 95.4502 81.3788C95.297 81.9444 94.7144 82.2792 94.1489 82.1259C93.7414 82.0154 93.4542 81.683 93.3816 81.2933C92.5845 77.5812 91.7236 73.2318 88.06 71.5213C81.2603 68.7322 75.3375 73.4197 72.9179 79.8257C72.5137 80.9593 70.8235 80.6172 70.888 79.4199Z" fill="#000072"/>
<path d="M100.343 96.4943C101.455 99.7675 106.974 100.338 108.816 97.4657C109.785 96.1804 110.112 94.3587 110.466 92.8056C111.101 92.9008 112.357 93.0823 112.993 93.1767C112.928 94.1642 112.782 95.4277 112.888 96.4104C113.051 99.6271 115.529 101.381 118.625 101.141C119.799 101.038 120.885 100.596 121.619 99.6174C121.843 99.2931 122.296 99.2172 122.611 99.4544C123.482 100.145 121.979 101.832 121.361 102.319C117.821 105.05 111.833 103.451 110.446 99.1059C109.862 97.4511 109.821 95.7681 110.183 94.0803L111.334 95.723L111.313 95.7198L112.888 94.4773C112.869 94.7492 112.848 94.9283 112.819 95.1445C112.176 99.5835 108.668 102.736 104.084 101.733C101.647 101.245 99.1364 99.3746 98.9823 96.7242C98.963 96.341 99.2575 96.015 99.6407 95.9949C99.9691 95.9779 100.255 96.1925 100.343 96.4943Z" fill="#000072"/>
<path d="M119.869 89.8407C119.619 91.5301 117.196 92.696 115.024 93.4108C112.752 94.1587 110.382 93.8086 108.423 92.4362C106.551 91.1235 104.568 89.3058 104.818 87.6172C105.57 82.5222 120.621 84.7466 119.869 89.8407Z" fill="#000072"/>
<path d="M112.849 89.2104C112.209 89.2104 111.569 89.0515 111.004 88.7457C110.245 88.3351 109.435 87.7752 109.507 87.2887C109.585 86.7578 110.415 86.5335 111.433 86.5335C113.23 86.5335 115.614 87.2322 115.475 88.1705C115.403 88.657 114.465 88.9587 113.621 89.1322C113.367 89.1846 113.108 89.2104 112.849 89.2104Z" fill="#8080B9"/>
<path d="M117.52 102.395C121.636 102.013 121.28 97.5381 125.917 97.1517C128.431 96.9427 130.165 99.5043 128.973 101.954C127.677 104.615 123.496 105.408 121.193 104.751C118.75 104.053 117.52 102.395 117.52 102.395Z" fill="#FF8080"/>
<path d="M117.52 102.395H117.524H117.52ZM119.941 102.896C120.375 103.159 120.904 103.413 121.525 103.59C123.401 104.126 126.899 103.453 127.887 101.426C128.264 100.65 128.23 99.8087 127.796 99.1753C127.398 98.5936 126.751 98.2935 126.017 98.3556C124.132 98.513 123.349 99.4601 122.359 100.66C121.732 101.418 121.01 102.293 119.941 102.896ZM122.935 106.177C122.181 106.177 121.471 106.086 120.861 105.912C118.057 105.112 116.61 103.196 116.55 103.115C116.29 102.764 116.239 102.301 116.417 101.902C116.595 101.505 116.974 101.233 117.408 101.192C118.901 101.054 119.57 100.244 120.496 99.1221C121.575 97.8159 122.918 96.1902 125.816 95.949C127.416 95.8142 128.9 96.5121 129.789 97.811C130.72 99.1697 130.82 100.916 130.058 102.482C128.809 105.05 125.598 106.177 122.935 106.177Z" fill="#000072"/>
<path d="M148.585 27.7438C147.045 22.3124 158.582 24.0656 158.087 19.2006C157.727 15.6628 144.588 7.99739 133.49 16.4656C133.49 16.4656 133.607 13.7152 134.326 10.1604C135.186 5.90052 135.144 2.30378 133.371 1.5704C129.779 0.0834694 122.736 7.14299 109.282 13.1351C104.079 15.4522 94.2025 18.5882 89.6909 19.4636L119.978 45.5757L148.585 27.7438Z" fill="white"/>
<path d="M147.921 27.9315C146.526 24.9004 149.556 23.0116 152.017 22.1669L153.265 21.7232C154.071 21.4311 154.859 21.1649 155.497 20.8236C155.984 20.5686 156.454 20.254 156.608 19.8167C156.63 19.7417 156.646 19.6634 156.649 19.5682C156.65 19.4851 156.635 19.3141 156.628 19.3181C156.304 18.5266 155.475 17.8215 154.685 17.2398C151.409 14.9541 147.23 13.923 143.266 14.207C140.016 14.4442 136.923 15.6625 134.288 17.5915C133.397 18.2862 132.014 17.5165 132.112 16.4064C132.245 13.677 132.747 11.1 133.232 8.44082C133.42 7.20481 133.541 5.95345 133.47 4.8078C133.41 4.07926 133.332 3.3975 132.954 2.92553C132.876 2.84323 132.82 2.83841 132.718 2.80372C131.895 2.60121 130.731 3.06755 129.865 3.45965C126.392 5.14183 123.139 7.39764 119.726 9.31702C117.425 10.6458 115.075 11.9125 112.673 13.0783C107.89 15.4374 102.808 17.1801 97.7242 18.7566C95.1489 19.5368 92.6163 20.2774 89.9539 20.818C88.1943 21.1261 87.6093 18.5323 89.4182 18.1103C90.651 17.8675 91.9136 17.5464 93.1666 17.2051C99.412 15.443 105.626 13.4446 111.467 10.595C116.196 8.32464 120.598 5.59848 125.118 2.88683C127.646 1.52414 131.221 -1.04794 134.231 0.458359C137.309 2.35837 136.124 7.94383 135.596 10.8548C135.242 12.7039 134.977 14.675 134.869 16.5233L132.654 15.368L132.655 15.3672C138.508 10.4917 147.276 9.80513 154.006 13.3163C156.639 14.7145 160.494 17.2414 159.331 20.7703C158.148 23.7547 154.274 24.1202 151.672 25.0391C150.296 25.5022 149.078 25.9968 149.249 27.5555C149.338 28.3397 148.252 28.6552 147.921 27.9315Z" fill="#000072"/>
<path d="M101.307 246.114C100.676 248.98 100.372 254.416 101.773 256.078C104.052 258.784 113.184 259.405 120.704 259.806C131.061 260.358 139.942 259.413 143.072 257.959C145.577 256.361 145.046 250.376 143.879 247.044L101.307 246.114Z" fill="white"/>
<path d="M101.774 256.079C104.052 258.784 113.185 259.406 120.705 259.806C131.061 260.357 139.943 259.412 143.071 257.961C144.573 257.003 144.983 254.47 144.818 251.876C144.687 253.67 144.169 255.219 143.071 255.921C139.943 257.376 131.061 258.32 120.705 257.769C113.185 257.369 104.052 256.745 101.774 254.04C101.165 253.317 100.877 251.882 100.799 250.256C100.698 252.641 100.917 255.064 101.774 256.079Z" fill="#E8E8E8"/>
<path d="M126.632 261C124.689 261 122.679 260.948 120.649 260.839C111.701 260.363 103.463 259.691 100.982 256.745C99.1582 254.58 99.7464 248.385 100.296 245.891C100.418 245.333 100.97 244.979 101.529 245.103C102.087 245.225 102.44 245.777 102.318 246.336C101.624 249.49 101.579 254.241 102.565 255.411C104.674 257.916 115.138 258.473 120.759 258.772C131.337 259.334 139.701 258.337 142.567 257.052C144.227 255.889 144.116 250.85 142.902 247.387C142.713 246.847 142.997 246.257 143.536 246.067C144.078 245.878 144.667 246.163 144.856 246.702C145.874 249.607 146.977 256.694 143.63 258.832C143.59 258.857 143.55 258.879 143.509 258.898C140.655 260.224 134.137 261 126.632 261Z" fill="#000072"/>
<path d="M133.4 222.893C132.641 222.4 128.174 219.66 117.266 223.395C108.796 226.296 104.976 226.178 103.231 226.06C102.54 226.013 102.174 225.967 101.972 226.108C99.2987 227.975 101.349 233.709 101.349 240.519C101.349 245.084 100.373 249.032 101.773 250.695C104.052 253.4 113.184 254.022 120.704 254.422C131.061 254.974 140.749 253.584 143.879 252.131C145.842 250.695 146.468 246.443 144.855 243.525C143.072 240.161 137.247 236.796 135.644 233.88C134.119 231.103 136.334 224.797 133.4 222.893Z" fill="#FCFCFC"/>
<path d="M101.35 240.52C101.35 245.083 100.372 249.031 101.773 250.695C103.759 253.051 110.946 253.827 117.737 254.25C118.742 254.314 119.737 254.371 120.705 254.421C131.061 254.976 140.748 253.585 143.88 252.129C145.758 250.755 146.413 246.797 145.046 243.901C144.985 243.772 144.922 243.648 144.855 243.524C143.073 240.16 137.247 236.797 135.644 233.88C134.119 231.105 136.333 224.797 133.4 222.892C132.64 222.399 128.174 219.66 117.267 223.396C108.799 226.296 104.98 226.178 103.233 226.06C102.54 226.013 102.173 225.967 101.972 226.108C99.2995 227.976 101.35 233.709 101.35 240.52Z" fill="#FCFCFC"/>
<path d="M101.35 240.52C101.35 245.083 100.372 249.031 101.773 250.695C103.759 253.051 110.946 253.827 117.737 254.25C118.742 254.314 119.737 254.371 120.705 254.421C131.061 254.976 140.748 253.585 143.88 252.129C145.758 250.755 146.413 246.797 145.046 243.901C144.985 243.772 144.922 243.648 144.855 243.524C143.073 240.16 137.247 236.797 135.644 233.88C134.908 232.543 135.042 230.382 135.05 228.289C135.056 226.044 134.918 223.88 133.4 222.892C132.64 222.399 128.174 219.66 117.267 223.396C108.799 226.296 104.98 226.178 103.233 226.06C102.54 226.013 102.173 225.967 101.972 226.108C100.043 227.459 100.577 230.822 101.02 235.157C101.191 236.82 101.35 238.628 101.35 240.52Z" fill="#FCFCFC"/>
<path d="M101.35 240.52C101.35 245.083 100.372 249.031 101.773 250.695C103.759 253.051 110.946 253.827 117.737 254.25C118.742 254.314 119.737 254.371 120.705 254.421C131.061 254.976 140.748 253.585 143.88 252.129C145.758 250.755 146.413 246.797 145.046 243.901C144.985 243.772 144.922 243.648 144.855 243.524C143.073 240.16 137.247 236.797 135.644 233.88C134.908 232.543 135.042 230.382 135.05 228.289C135.056 226.044 134.918 223.88 133.4 222.892C132.64 222.399 128.174 219.66 117.267 223.396C108.799 226.296 104.98 226.178 103.233 226.06C102.54 226.013 102.173 225.967 101.972 226.108C100.043 227.459 100.577 230.822 101.02 235.157C101.191 236.82 101.35 238.628 101.35 240.52Z" fill="#FCFCFC"/>
<path d="M101.35 240.521C101.35 245.084 100.372 249.033 101.774 250.696C103.76 253.051 110.947 253.827 117.738 254.251C118.743 254.315 119.738 254.372 120.705 254.423C131.061 254.977 140.749 253.586 143.881 252.131C145.759 250.757 146.415 246.798 145.046 243.901C144.986 243.774 144.922 243.65 144.855 243.525C144.203 242.292 143.007 241.059 141.673 239.846C139.691 238.048 137.406 236.294 136.163 234.664C135.961 234.399 135.786 234.14 135.645 233.882C134.909 232.544 135.044 230.383 135.05 228.29C135.057 226.045 134.919 223.881 133.4 222.894C132.641 222.399 128.175 219.661 117.267 223.397C108.799 226.297 104.981 226.179 103.234 226.061C102.541 226.015 102.174 225.968 101.972 226.109C100.043 227.46 100.577 230.824 101.021 235.158C101.193 236.822 101.35 238.63 101.35 240.521Z" fill="#FCFCFC"/>
<path d="M118.383 231.725C119.996 231.257 121.367 230.811 122.358 230.438C123.814 229.89 125.52 229.473 127.261 229.161C127.1 227.37 126.794 224.003 126.566 221.479C124.193 221.56 121.135 222.07 117.267 223.398C117.049 223.472 116.834 223.546 116.623 223.616C116.488 226.654 117.439 229.597 118.383 231.725Z" fill="#FFB522"/>
<path d="M117.355 228.955C118.02 231.197 118.985 233.052 119.583 234.083C121.186 233.344 122.705 232.49 124.059 231.503V225.347C121.868 226.801 119.6 227.987 117.355 228.955Z" fill="#FFB522"/>
<path d="M126.636 242.598C131.233 239.443 138.347 239.577 141.673 239.846C139.691 238.048 137.405 236.294 136.162 234.664C130.948 235.262 123.44 237.708 123.185 239.161C122.843 241.12 126.636 242.598 126.636 242.598Z" fill="#E8E8E8"/>
<path d="M101.774 250.696C103.76 253.051 110.947 253.827 117.738 254.251C118.743 254.315 119.738 254.372 120.705 254.423C131.061 254.977 140.749 253.586 143.88 252.131C145.191 251.173 145.907 248.958 145.752 246.721C145.443 247.4 145.023 247.957 144.515 248.331C141.384 249.785 131.696 251.176 121.34 250.622C120.373 250.572 119.378 250.515 118.373 250.451C111.582 250.027 104.395 249.251 102.408 246.895C101.962 246.368 101.542 245.511 101.172 244.439C100.977 247.258 100.796 249.534 101.774 250.696Z" fill="#E8E8E8"/>
<path d="M101.02 235.157C107.963 234.676 118.332 231.954 122.358 230.436C126.151 229.008 131.646 228.483 135.05 228.289C135.056 226.044 134.918 223.88 133.4 222.892C132.64 222.398 128.174 219.659 117.267 223.396C108.799 226.296 104.98 226.178 103.233 226.06C102.54 226.013 102.173 225.967 101.972 226.108C100.043 227.459 100.577 230.822 101.02 235.157Z" fill="#22C1FF"/>
<path d="M117.084 227.953C116.888 227.143 116.739 226.295 116.664 225.427C116.863 225.36 117.063 225.292 117.268 225.222C117.728 225.064 118.178 224.918 118.617 224.783C118.698 225.612 118.871 226.396 119.021 227.051C118.375 227.371 117.729 227.671 117.084 227.953Z" fill="#1B9AE3"/>
<path d="M101.855 228.021C101.984 227.611 102.174 227.281 102.446 227.049C102.566 227.052 102.755 227.064 102.928 227.077C103.322 227.106 103.841 227.143 104.522 227.143C106.632 227.143 110.295 226.785 116.619 224.705C116.628 224.947 116.643 225.187 116.664 225.427C110.247 227.572 106.608 227.933 104.532 227.933C104.006 227.933 103.58 227.91 103.234 227.887C102.889 227.863 102.624 227.84 102.421 227.84C102.216 227.84 102.073 227.863 101.972 227.934C101.932 227.962 101.893 227.991 101.855 228.021Z" fill="#BCECFF"/>
<path d="M116.664 225.427C116.643 225.187 116.628 224.947 116.619 224.705C116.939 224.599 117.267 224.489 117.601 224.375C117.931 224.262 118.254 224.155 118.571 224.054C118.577 224.3 118.593 224.543 118.616 224.783C118.178 224.918 117.728 225.065 117.267 225.223C117.063 225.292 116.862 225.361 116.664 225.427Z" fill="#BAE1F7"/>
<path d="M117.737 254.25C118.742 254.314 119.737 254.371 120.705 254.421C131.061 254.976 140.748 253.585 143.88 252.129C145.758 250.755 146.413 246.797 145.046 243.901C140.664 246.645 131.034 248.705 123.654 243.813C123.654 243.813 118.134 249.824 117.737 254.25Z" fill="#22C1FF"/>
<path d="M125.391 253.511C123.897 253.511 122.358 253.473 120.798 253.391C121.436 252.521 122.037 251.598 122.59 250.68C123.76 250.725 124.917 250.747 126.054 250.746C134.523 250.746 141.866 249.561 144.515 248.331C144.576 248.286 144.635 248.24 144.693 248.19C144.54 249.516 144.045 250.67 143.344 251.237C140.902 252.314 133.823 253.511 125.391 253.511Z" fill="#1B9AE3"/>
<path d="M100.802 233.086C100.966 234.685 101.182 236.466 101.286 238.365C106.84 238.055 117.405 236.349 124.058 231.503V225.348C115.398 231.1 105.523 232.663 100.802 233.086Z" fill="#22C1FF"/>
<path d="M118.961 232.938C118.546 232.125 118.082 231.105 117.677 229.95C118.317 229.675 118.959 229.383 119.601 229.071C119.896 229.919 120.241 230.736 120.597 231.481C119.992 231.925 119.44 232.412 118.961 232.938Z" fill="#1B9AE3"/>
<path d="M101.941 234.013C102.047 235.014 102.164 236.114 102.251 237.263C108.578 236.773 117.349 234.88 123.022 230.969V227.224C115.269 231.874 106.926 233.468 101.941 234.013ZM101.286 239.4C101.031 239.4 100.785 239.307 100.595 239.137C100.39 238.953 100.267 238.696 100.251 238.422C100.17 236.931 100.021 235.532 99.8761 234.18L99.772 233.192C99.7438 232.917 99.8269 232.641 100.003 232.428C100.179 232.213 100.434 232.079 100.709 232.055C105.623 231.614 115.117 230.045 123.485 224.485C123.803 224.275 124.211 224.255 124.547 224.435C124.883 224.616 125.093 224.966 125.093 225.348V231.503C125.093 231.834 124.934 232.145 124.667 232.34C118.346 236.943 108.152 239.02 101.343 239.399C101.323 239.4 101.304 239.4 101.286 239.4Z" fill="#000072"/>
<path d="M124.948 244.847C124.647 244.847 124.359 244.716 124.161 244.484C123.877 244.152 123.751 243.909 123.719 243.843C123.699 243.799 123.678 243.743 123.663 243.698C123.663 243.698 123.615 243.547 123.564 243.274C123.485 242.841 123.687 242.406 124.067 242.188C124.45 241.969 124.927 242.016 125.26 242.303L125.753 242.73C126.091 243.022 126.203 243.499 126.031 243.911C126.031 243.911 125.986 244.019 125.899 244.223C125.757 244.551 125.456 244.783 125.102 244.836C125.051 244.843 124.999 244.847 124.948 244.847Z" fill="#232333"/>
<path d="M124.581 244.121C124.094 244.121 123.661 243.777 123.565 243.283C123.376 242.303 123.127 239.758 124.907 237.309C126.786 234.723 130.295 233.096 135.338 232.472C135.913 232.404 136.422 232.805 136.493 233.372C136.563 233.94 136.16 234.456 135.593 234.527C131.142 235.077 128.11 236.423 126.582 238.526C125.279 240.319 125.46 242.175 125.598 242.889C125.706 243.451 125.34 243.994 124.779 244.103C124.712 244.115 124.645 244.121 124.581 244.121Z" fill="#232333"/>
<path d="M135.379 247.799C128.125 247.799 125.244 245.741 124.164 244.488C123.79 244.054 123.839 243.401 124.272 243.027C124.705 242.655 125.359 242.702 125.732 243.136C126.283 243.775 128.651 245.846 136.009 245.724C139.934 245.656 142.744 244.721 144.133 243.019C144.494 242.577 145.146 242.511 145.589 242.872C146.032 243.233 146.098 243.885 145.737 244.329C143.924 246.548 140.664 247.714 136.045 247.793C135.819 247.797 135.597 247.799 135.379 247.799Z" fill="#000072"/>
<path d="M143.879 252.131H143.883H143.879ZM102.446 227.049C101.305 228.028 101.588 230.697 101.944 234.048C102.15 235.989 102.385 238.189 102.385 240.519C102.385 241.994 102.284 243.417 102.196 244.671C102.031 247.005 101.876 249.21 102.565 250.028C104.674 252.532 115.138 253.089 120.759 253.389C131.143 253.943 140.466 252.506 143.344 251.237C144.764 250.09 145.335 246.533 143.949 244.025C143.101 242.426 141.148 240.737 139.26 239.105C137.375 237.475 135.593 235.935 134.737 234.377C133.965 232.972 133.987 230.994 134.008 229.082C134.033 226.855 134.059 224.554 132.837 223.761H132.836C131.747 223.054 127.433 221.008 117.601 224.375C108.54 227.477 104.607 227.198 102.928 227.076C102.755 227.064 102.566 227.051 102.446 227.049ZM125.349 255.579C123.803 255.579 122.229 255.54 120.649 255.456C111.7 254.98 103.462 254.308 100.982 251.362C99.752 249.902 99.919 247.53 100.13 244.526C100.221 243.246 100.314 241.922 100.314 240.519C100.314 238.299 100.086 236.157 99.8851 234.267C99.4454 230.125 99.0977 226.852 101.38 225.259C101.859 224.925 102.368 224.962 103.075 225.012C104.628 225.122 108.268 225.382 116.93 222.416C127.352 218.847 132.314 220.953 133.964 222.024C136.141 223.438 136.108 226.449 136.078 229.105C136.06 230.75 136.041 232.451 136.552 233.381C137.229 234.613 138.95 236.101 140.614 237.539C142.646 239.296 144.748 241.113 145.769 243.04C147.584 246.323 146.967 251.155 144.49 252.966C144.435 253.006 144.376 253.041 144.315 253.069C141.447 254.4 133.839 255.579 125.349 255.579Z" fill="#000072"/>
<path d="M101.773 250.693C102.861 251.99 105.52 252.804 108.823 253.352C108.235 251.221 107.358 248.093 106.753 246.114C105.604 242.356 103.651 239.921 101.309 238.889C101.336 239.424 101.349 239.968 101.349 240.519C101.349 245.085 100.372 249.034 101.773 250.693Z" fill="#22C1FF"/>
<path d="M108.519 252.253C108.519 252.253 108.519 252.253 108.518 252.253C108.252 251.298 107.955 250.24 107.663 249.214C107.663 249.215 107.663 249.215 107.664 249.215C107.956 250.241 108.253 251.298 108.519 252.253Z" fill="#BABAD0"/>
<path d="M108.824 253.351C108.824 253.351 108.823 253.351 108.822 253.351C108.728 253.007 108.625 252.638 108.518 252.253C108.519 252.253 108.519 252.253 108.52 252.253C108.627 252.638 108.729 253.007 108.824 253.351ZM101.048 246.415C101.078 245.795 101.124 245.134 101.173 244.439C101.173 244.441 101.174 244.443 101.175 244.444C101.125 245.137 101.078 245.797 101.048 246.415Z" fill="#000072"/>
<path d="M108.822 253.351C105.52 252.803 102.862 251.99 101.774 250.693C101.037 249.819 100.958 248.311 101.048 246.415C101.078 245.797 101.125 245.137 101.174 244.444C101.543 245.514 101.963 246.369 102.409 246.895C103.292 247.947 105.207 248.679 107.663 249.213C107.955 250.24 108.252 251.297 108.518 252.253C108.625 252.638 108.728 253.007 108.822 253.351Z" fill="#1B9AE3"/>
<path d="M102.384 240.774C102.373 242.16 102.28 243.493 102.196 244.675C102.031 247.008 101.875 249.21 102.563 250.026L102.566 250.028C103.04 250.594 104.272 251.367 107.381 252.028C106.883 250.245 106.244 247.992 105.762 246.416C105 243.923 103.828 241.981 102.384 240.774ZM108.822 254.387C108.766 254.387 108.71 254.382 108.653 254.372C104.576 253.697 102.138 252.739 100.98 251.359C99.751 249.902 99.9188 247.531 100.13 244.53C100.221 243.248 100.314 241.922 100.314 240.519C100.314 239.992 100.301 239.461 100.275 238.941C100.257 238.582 100.426 238.24 100.722 238.037C101.018 237.834 101.398 237.797 101.726 237.942C104.455 239.144 106.535 241.864 107.742 245.81C108.393 247.941 109.324 251.277 109.82 253.076C109.914 253.416 109.828 253.782 109.592 254.044C109.394 254.264 109.113 254.387 108.822 254.387Z" fill="#000072"/>
<path d="M110.412 253.583C113.037 253.937 115.946 254.151 118.738 254.312C121.816 250.808 124.363 245.163 124.948 243.812C124.73 243.556 124.652 243.395 124.652 243.395C124.652 243.395 124.619 243.284 124.582 243.086L119.606 238.772C119.606 238.772 116 248.298 110.412 253.583Z" fill="#22C1FF"/>
<path d="M118.286 253.249C116.685 253.153 114.636 253.013 112.603 252.8C113.337 251.969 114.03 251.084 114.676 250.178C115.9 250.286 117.143 250.375 118.374 250.451C118.995 250.491 119.613 250.527 120.224 250.562C119.618 251.507 118.966 252.43 118.286 253.249Z" fill="#1B9AE3"/>
<path d="M112.602 252.801C114.636 253.013 116.685 253.153 118.286 253.249C120.831 250.184 122.984 245.667 123.765 243.929C123.742 243.889 123.727 243.86 123.719 243.843C123.698 243.799 123.677 243.743 123.662 243.698C123.662 243.698 123.657 243.681 123.648 243.646L120.018 240.499C118.928 243.046 116.302 248.617 112.602 252.801ZM118.739 255.348C118.719 255.348 118.699 255.347 118.678 255.346C116.473 255.219 113.204 255.003 110.274 254.609C109.879 254.556 109.549 254.281 109.426 253.901C109.304 253.522 109.411 253.106 109.7 252.831C115.054 247.768 118.602 238.498 118.637 238.405C118.757 238.089 119.024 237.851 119.352 237.767C119.677 237.686 120.027 237.767 120.283 237.989L125.26 242.304C125.438 242.457 125.557 242.667 125.6 242.898C125.606 242.934 125.613 242.965 125.619 242.992C125.644 243.026 125.682 243.078 125.736 243.14C125.992 243.441 126.055 243.86 125.898 244.223C125.196 245.845 122.662 251.414 119.516 254.996C119.319 255.22 119.036 255.348 118.739 255.348Z" fill="#000072"/>
<path d="M133.897 231.681C133.897 231.681 133.152 230.604 132.878 225.059C132.721 221.902 131.514 217.539 123.654 219.374C118.879 220.488 119.327 223.758 120.063 226.959C120.728 229.856 122.332 232.722 123.121 233.816C124.255 235.39 133.897 231.681 133.897 231.681Z" fill="white"/>
<path d="M120.064 226.959C120.11 227.171 120.165 227.38 120.221 227.588C120.957 230.263 122.389 232.803 123.121 233.817C124.253 235.391 133.897 231.681 133.897 231.681C133.897 231.681 133.296 230.814 132.973 226.627C132.936 226.149 132.903 225.626 132.876 225.058C132.722 221.902 131.515 217.541 123.652 219.372C118.877 220.487 119.327 223.757 120.064 226.959Z" fill="white"/>
<path d="M120.221 227.588C120.957 230.263 122.389 232.803 123.122 233.817C124.254 235.391 133.897 231.681 133.897 231.681C133.897 231.681 133.296 230.814 132.973 226.627C130.742 226.076 126.626 225.538 123.185 227.762C122.066 228.488 121.075 228.28 120.221 227.588Z" fill="#E5E5E5"/>
<path d="M123.901 233.127C124.781 233.442 128.578 232.531 132.578 231.07C132.306 230.049 131.999 228.249 131.844 225.11C131.74 223.02 131.179 221.62 130.129 220.828C128.851 219.863 126.752 219.713 123.889 220.381C120.416 221.191 120.213 222.994 121.071 226.727C121.664 229.307 123.094 231.974 123.901 233.127ZM124.424 235.24C123.353 235.24 122.673 234.967 122.281 234.421C121.357 233.138 119.734 230.153 119.053 227.191C118.458 224.601 117.35 219.781 123.419 218.365C126.907 217.552 129.584 217.824 131.375 219.174C132.946 220.36 133.776 222.268 133.911 225.008C134.136 229.532 134.665 230.89 134.767 231.114C134.975 231.363 135.018 231.655 134.941 231.975C134.86 232.304 134.585 232.525 134.269 232.646C134.168 232.685 131.785 233.599 129.219 234.333C127.107 234.938 125.549 235.24 124.424 235.24Z" fill="#000072"/>
<path d="M126.036 239.508C126.036 239.508 127.786 243.104 125.399 244.857C122.6 246.91 118.21 243.504 117.207 239.015C115.898 233.154 122.571 229.341 128.206 228.414C135.559 227.205 136.875 230.993 136.355 233.507C135.835 236.022 126.036 239.508 126.036 239.508Z" fill="#22C1FF"/>
<path d="M117.711 240.588C117.5 240.085 117.329 239.558 117.207 239.016C116.982 238.009 116.993 237.062 117.193 236.18C116.993 237.061 116.983 238.008 117.207 239.015C117.329 239.557 117.5 240.084 117.711 240.588Z" fill="#FEFEFE"/>
<path d="M118.562 233.407C118.689 233.248 118.822 233.092 118.961 232.938C118.961 232.939 118.961 232.939 118.961 232.939C118.823 233.092 118.69 233.247 118.564 233.407C118.564 233.407 118.563 233.407 118.562 233.407Z" fill="#BCECFF"/>
<path d="M118.961 232.939C118.961 232.939 118.961 232.939 118.961 232.939C119.44 232.412 119.992 231.925 120.597 231.481V231.482C119.992 231.926 119.44 232.413 118.961 232.939Z" fill="#BAE1F7"/>
<path d="M117.193 236.18C117.423 235.169 117.903 234.243 118.562 233.408C118.563 233.408 118.564 233.408 118.564 233.408C117.903 234.243 117.423 235.168 117.193 236.18Z" fill="#B2B2D4"/>
<path d="M118.592 242.225C118.254 241.719 117.955 241.169 117.711 240.588C117.954 241.167 118.252 241.715 118.589 242.22C118.59 242.222 118.591 242.223 118.592 242.225Z" fill="#B2B2D4"/>
<path d="M122.364 230.375C123.662 229.681 125.086 229.143 126.5 228.776C125.085 229.143 123.662 229.681 122.364 230.375Z" fill="#F7F7F7"/>
<path d="M120.597 231.481V231.481C121.147 231.076 121.741 230.707 122.364 230.375C121.741 230.708 121.147 231.077 120.597 231.481Z" fill="#B2B2D4"/>
<path d="M127.952 228.458C127.955 228.458 127.956 228.458 127.958 228.457C127.956 228.458 127.955 228.458 127.952 228.458ZM127.961 228.456C128.043 228.442 128.124 228.428 128.205 228.414C128.23 228.41 128.256 228.406 128.281 228.402C128.256 228.406 128.231 228.41 128.206 228.414C128.125 228.428 128.043 228.442 127.961 228.456Z" fill="#F7F7F7"/>
<path d="M118.589 242.22C118.252 241.715 117.954 241.167 117.711 240.588C117.5 240.085 117.329 239.557 117.207 239.015C116.983 238.008 116.993 237.062 117.193 236.18C117.423 235.168 117.903 234.243 118.564 233.408C118.69 233.248 118.823 233.092 118.961 232.94C119.44 232.413 119.992 231.926 120.597 231.482C121.147 231.078 121.741 230.708 122.364 230.375C123.662 229.681 125.085 229.144 126.5 228.777C126.987 228.65 127.473 228.544 127.952 228.458C127.954 228.458 127.956 228.458 127.958 228.457C127.958 228.457 127.959 228.457 127.961 228.456C128.042 228.442 128.125 228.428 128.206 228.414C128.231 228.41 128.256 228.406 128.281 228.402C129.221 228.251 130.06 228.183 130.81 228.183C135.083 228.183 136.415 230.42 136.455 232.43C135.847 231.029 134.33 229.852 131.265 229.852C130.515 229.852 129.672 229.922 128.727 230.078C123.226 230.986 116.71 234.708 117.987 240.431C118.124 241.054 118.332 241.654 118.589 242.22Z" fill="#BCECFF"/>
<path d="M130.823 229.216C130.084 229.216 129.266 229.289 128.374 229.436C124.337 230.1 120.68 232.081 119.058 234.484C118.159 235.814 117.877 237.262 118.218 238.789C118.761 241.221 120.538 243.506 122.444 244.221C123.352 244.562 124.141 244.495 124.787 244.022C126.443 242.807 125.118 239.987 125.104 239.959C124.976 239.694 124.968 239.387 125.079 239.116C125.191 238.844 125.412 238.631 125.689 238.533C130.617 236.779 135.128 234.333 135.341 233.299C135.45 232.77 135.6 231.433 134.63 230.423C133.862 229.623 132.565 229.216 130.823 229.216ZM123.52 246.503C122.935 246.503 122.329 246.389 121.716 246.16C119.163 245.201 116.893 242.356 116.198 239.24C115.727 237.136 116.112 235.146 117.342 233.325C119.68 229.864 124.4 227.991 128.037 227.393C131.793 226.776 134.513 227.312 136.123 228.989C137.269 230.183 137.734 231.95 137.369 233.717C136.842 236.265 130.474 238.953 127.369 240.122C127.799 241.562 128.157 244.117 126.012 245.691C125.277 246.23 124.425 246.503 123.52 246.503Z" fill="#000072"/>
<path d="M139.784 238.201C139.784 238.201 132.28 236.436 124.672 241.593C124.672 241.593 120.152 241.817 121.729 237.964C123.386 233.916 133.743 231.921 136.118 233.011C138.399 234.056 140.043 236.137 139.784 238.201Z" fill="white"/>
<path d="M123.387 241.475C124.075 241.624 124.674 241.593 124.674 241.593C132.281 236.435 139.785 238.2 139.785 238.2C139.825 237.887 139.818 237.578 139.775 237.269C139.24 236.802 138.608 236.415 137.91 236.15C134.143 234.725 125.178 237.056 123.521 241.106C123.468 241.233 123.424 241.354 123.387 241.475Z" fill="white"/>
<path d="M123.387 241.475C124.075 241.624 124.674 241.593 124.674 241.593C132.281 236.435 139.785 238.2 139.785 238.2C139.825 237.887 139.818 237.578 139.775 237.269C139.24 236.802 138.608 236.415 137.91 236.15C134.143 234.725 125.178 237.056 123.521 241.106C123.468 241.233 123.424 241.354 123.387 241.475Z" fill="#E8E8E8"/>
<path d="M134.171 233.749C132.382 233.749 129.511 234.208 126.917 235.232C124.647 236.129 123.145 237.238 122.687 238.356C122.482 238.859 122.294 239.538 122.566 239.926C122.881 240.376 123.781 240.535 124.358 240.559C130.292 236.653 136.078 236.699 138.648 236.977C138.287 235.804 137.182 234.637 135.687 233.951C135.399 233.819 134.866 233.749 134.171 233.749ZM124.514 242.632C123.836 242.632 121.856 242.508 120.876 241.124C120.221 240.197 120.186 239.002 120.771 237.572C121.635 235.464 124.176 234.089 126.156 233.307C129.553 231.965 134.541 231.147 136.55 232.07C139.404 233.378 141.116 235.895 140.81 238.33C140.773 238.621 140.615 238.883 140.374 239.051C140.133 239.218 139.833 239.275 139.548 239.208C139.449 239.186 132.353 237.637 125.253 242.45C125.096 242.556 124.913 242.619 124.723 242.627C124.688 242.629 124.615 242.632 124.514 242.632Z" fill="#000072"/>
<path d="M115.101 241.464L111.272 246.404L102.834 238.365L111.218 243.141L115.101 241.464Z" fill="#000072"/>
<path d="M126.109 100.849C125.432 103.46 123.081 105.518 120.287 105.186C119.9 105.157 119.531 105.068 119.147 105.004C118.58 104.91 118.197 104.373 118.291 103.806C118.386 103.239 118.922 102.856 119.489 102.95C119.574 102.963 119.705 103.008 119.787 103.035C120.799 103.458 121.96 103.654 122.989 103.176C124.062 102.719 124.943 101.688 125.453 100.635C125.608 100.232 126.226 100.435 126.109 100.849Z" fill="#000072"/>
</svg>
