<svg width="769" height="912" viewBox="0 0 769 912" fill="none" xmlns="http://www.w3.org/2000/svg">
<path d="M408.914 911.118C246.595 911.118 115.012 896.117 115.012 877.611C115.012 867.439 154.782 858.325 217.561 852.181C267.809 888.343 339.501 894.313 363.282 894.313C369.832 894.313 379.803 893.995 390.773 892.436C406.628 897.781 424.045 899.746 441.41 899.746C458.075 899.746 474.695 897.933 489.823 895.56C528.261 888.998 567.916 876.639 598.661 852.026C662.372 858.17 702.812 867.352 702.812 877.611C702.812 896.117 571.229 911.118 408.914 911.118Z" fill="black" fill-opacity="0.09"/>
<path d="M522 528.908C507.181 533.416 490.463 537.088 472.331 539.751L465.463 497.73C481.693 497.73 495.747 504.744 508.06 515.098L508.088 515.141C513 519.274 517.638 523.94 522 528.908Z" fill="#535360"/>
<path d="M513.322 519.847C500.722 524.094 486.379 527.609 470.769 530.245L465.454 497.727C481.683 497.727 495.738 504.74 508.051 515.095L508.082 515.138C509.867 516.636 511.608 518.22 513.322 519.847Z" fill="#93B3C1"/>
<path d="M309.657 686.722C250.611 738.566 144.526 716.966 144.526 716.966V602.12C144.526 602.12 205.731 607.518 228.052 600.319C252.034 592.48 257.312 504.799 340.538 504.799L309.657 686.722Z" fill="#777782"/>
<path d="M340.532 504.796L309.663 686.728C250.614 738.559 144.526 716.959 144.526 716.959V602.116C144.526 602.116 205.737 607.521 228.046 600.322C243.904 595.134 251.595 555.034 279.048 528.478V528.465C280.573 526.98 282.154 525.551 283.812 524.162C297.18 512.96 314.848 505.04 339.39 504.808C339.771 504.796 340.151 504.796 340.532 504.796Z" fill="#777782"/>
<path d="M340.532 504.796L334.518 540.268L309.663 686.728C250.614 738.559 144.526 716.959 144.526 716.959V602.116C144.526 602.116 205.737 607.521 228.046 600.322C243.904 595.134 251.595 555.034 279.048 528.478V528.465C280.518 527.036 282.043 525.647 283.648 524.298C283.704 524.258 283.76 524.205 283.812 524.162C297.18 512.96 314.848 505.04 339.39 504.808C339.771 504.796 340.151 504.796 340.532 504.796Z" fill="#5F5F82"/>
<path d="M303.81 532.135C298.798 530.47 293.984 528.682 289.381 526.779C294.634 522.671 300.549 519.107 307.281 516.351C308.664 516.505 310.041 516.648 311.423 516.781C306.928 522.724 303.303 527.72 300.868 531.132C301.842 531.473 302.823 531.803 303.81 532.135Z" fill="#4C4C7F"/>
<path d="M522.315 524.273C507.614 530.943 490.423 536.373 471.477 540.252L465.46 504.796C465.84 504.796 466.224 504.796 466.605 504.808C491.147 505.04 508.815 512.96 522.179 524.162C522.219 524.205 522.275 524.246 522.315 524.273Z" fill="#535360"/>
<path d="M505.112 531.104C476.514 541.057 441.19 546.922 402.956 546.922C364.749 546.922 329.453 541.069 300.868 531.132C315.228 511.002 370.927 435.838 403.011 435.838C435.065 435.838 490.738 510.934 505.112 531.104Z" fill="#535360"/>
<path d="M193.688 612.248C182.139 612.248 169.904 611.794 159.518 611.258C159.045 610.389 158.559 609.476 158.061 608.536C166.364 609.025 177.418 609.507 188.676 609.507C204.225 609.507 220.154 608.585 229.744 605.492C239.721 602.234 245.961 590.32 253.866 575.242C257.491 568.318 261.458 560.751 266.206 553.305C254.911 578.685 246.719 603.827 229.215 609.263C221.97 611.512 208.383 612.248 193.688 612.248Z" fill="#CFCFD9"/>
<path d="M187.977 715.796C170.581 715.339 156.675 713.461 149.971 712.387V711.493C150.621 711.134 151.276 710.791 151.948 710.457C169.43 701.745 179.423 691.607 181.152 678.601C181.48 676.262 181.529 673.822 181.304 671.279C181.307 671.282 181.307 671.285 181.31 671.285C190.64 680.968 199.497 685.123 207.99 685.123C217.243 685.126 226.063 680.194 234.601 672.098C232.587 680.693 231.26 689.386 230.743 698.051C230.196 698.036 229.655 698.029 229.11 698.029C219.517 698.029 210.554 700.436 202.613 704.715C197.227 707.601 192.308 711.351 187.977 715.796Z" fill="#4C4C7F"/>
<path d="M196.169 726.995C167.227 726.995 145.414 722.701 143.44 722.299C140.903 721.783 139.081 719.552 139.081 716.966V602.119C139.081 600.591 139.725 599.134 140.851 598.104C141.977 597.071 143.477 596.548 145.006 596.696C145.606 596.746 205.363 601.915 226.381 595.137C232.13 593.256 238.001 582.051 244.22 570.187C259.001 541.979 281.337 499.354 340.538 499.354C343.545 499.354 345.983 501.792 345.983 504.799C345.983 507.806 343.545 510.244 340.538 510.244C287.927 510.244 268.239 547.81 253.866 575.242C245.961 590.32 239.721 602.234 229.744 605.492C210.591 611.673 166.129 609.176 149.971 608.007V712.387C170.259 715.635 256.393 726.244 306.062 682.632C308.323 680.646 311.764 680.869 313.747 683.13C315.733 685.392 315.507 688.829 313.249 690.815C279.698 720.276 232.362 726.995 196.169 726.995Z" fill="#000072"/>
<path d="M181.152 678.601C179.423 691.607 169.43 701.745 151.948 710.457C138.265 717.269 129.005 729.35 117.571 737.817C114.202 740.323 110.644 742.498 106.728 744.141C96.33 748.503 77.6677 751.627 72.7998 738.235C68.2636 725.78 78.6469 719.24 86.4086 713.566C90.9439 710.256 94.5882 707.23 93.8117 703.515C90.022 705.516 86.3652 707.116 82.8818 708.325C78.7186 709.764 74.7872 710.673 71.1296 711.119H71.115H71.1008C53.8629 713.207 42.7167 704.969 42.4429 693.652C42.0398 676.671 58.788 674.57 72.1517 673.289C76.141 672.9 79.8277 672.596 82.6652 671.993H82.6776C84.4348 671.619 85.861 671.127 86.8417 670.422C83.7882 669.933 80.9795 669.314 78.3876 668.55H78.3731C56.916 662.329 50.983 647.38 54.2951 631.556C57.4917 616.363 70.3663 608.916 81.1236 609.275C86.2075 609.449 90.8139 611.364 93.6941 615.067C93.6941 615.079 93.7096 615.094 93.7251 615.122C93.8117 615.24 93.8829 615.354 93.9695 615.469C94.0283 615.54 94.0685 615.599 94.084 615.614V615.627C94.4861 616.19 94.8605 616.781 95.1791 617.412C100.163 627.494 91.1048 633.298 96.5032 639.145C99.8722 642.801 109.809 641.505 115.124 638.034C123.245 632.735 126.586 622.51 121.72 618.349C118.898 615.942 115.102 616.787 110.944 617.628C106.465 618.535 101.571 619.441 97.0229 616.289C96.9518 616.245 96.8775 616.19 96.8064 616.131C96.4444 615.859 96.101 615.583 95.7545 615.296C95.6401 615.209 95.5256 615.122 95.4235 615.008C91.8534 611.682 89.7776 604.582 91.7947 597.454C93.9973 589.649 101.113 581.813 116.55 578.861C134.45 575.434 144.746 586.076 151.846 597.454H151.861C157.13 605.878 160.66 614.705 164.261 618.507L180.892 668.148C181.526 671.832 181.613 675.319 181.152 678.601Z" fill="#5F5F82"/>
<path d="M65.879 711.444C51.641 711.444 42.6879 703.781 42.4429 693.652C42.4383 693.451 42.4358 693.256 42.4358 693.061C42.4321 676.624 58.9445 674.555 72.1517 673.289C76.141 672.9 79.8277 672.596 82.6652 671.993H82.6745C79.8348 672.6 76.1444 672.906 72.1517 673.289C73.4637 674.527 75.0285 676.092 76.588 677.856C69.524 680.485 58.3648 680.597 53.4452 687.647C47.829 695.697 55.9944 709.117 71.1008 711.119C69.2922 711.338 67.548 711.444 65.879 711.444Z" fill="#CFCFD9"/>
<path d="M78.3729 668.55C60.5407 663.38 53.4306 652.181 53.438 639.463C53.4395 636.877 53.7353 634.229 54.2949 631.556C57.418 616.712 69.7775 609.263 80.3761 609.263C80.6264 609.263 80.8751 609.269 81.1235 609.275C82.9064 611.425 84.2955 613.337 85.3473 615.091C79.1996 615.295 71.2436 617.015 66.4345 623.924C50.2339 647.21 78.3729 668.55 78.3729 668.55Z" fill="#CFCFD9"/>
<path d="M97.0357 616.32C96.9954 616.285 96.9489 616.251 96.9055 616.217C96.9458 616.248 96.9893 616.276 97.0296 616.304L97.0357 616.32Z" fill="#E7FFDE"/>
<path d="M95.6616 615.224C95.5781 615.162 95.4976 615.091 95.4234 615.008C95.5038 615.082 95.5811 615.153 95.6616 615.224ZM96.0514 605.461C94.7551 604.13 93.6259 602.215 92.7164 599.512C92.4411 598.72 92.141 598.03 91.7945 597.454C93.9972 589.649 101.113 581.813 116.55 578.861C118.873 578.419 121.07 578.209 123.146 578.209C137.07 578.209 145.668 587.555 151.846 597.454C142.388 590.091 132.854 587.146 124.389 587.146C109.954 587.146 98.6253 595.7 96.0514 605.461Z" fill="#CFCFD9"/>
<path d="M82.6777 671.993H82.6747C84.435 671.616 85.8642 671.121 86.8418 670.422C85.8611 671.127 84.4349 671.619 82.6777 671.993ZM121.72 618.349C120.334 617.17 118.716 616.771 116.934 616.771C115.084 616.771 113.061 617.201 110.945 617.628C108.825 618.058 106.613 618.488 104.389 618.488C101.914 618.488 99.4269 617.956 97.0293 616.304L97.0231 616.289C99.4207 617.95 101.914 618.485 104.395 618.485C106.617 618.485 108.829 618.055 110.945 617.628C113.061 617.198 115.084 616.771 116.934 616.771C118.713 616.771 120.334 617.167 121.72 618.349ZM95.1792 617.412C94.8637 616.78 94.4894 616.193 94.0903 615.636C94.0996 615.63 94.0965 615.623 94.0841 615.614C94.0686 615.599 94.0284 615.54 93.9696 615.469C93.883 615.354 93.8118 615.24 93.7252 615.122C93.7097 615.094 93.6943 615.079 93.6943 615.067C90.8141 611.363 86.2076 609.448 81.1238 609.275C87.2007 609.479 92.5867 612.186 95.1792 617.412ZM96.9055 616.217C96.4879 615.924 96.0733 615.593 95.6619 615.224C95.6928 615.249 95.7237 615.274 95.7547 615.296C96.1012 615.583 96.4446 615.859 96.8065 616.131C96.8375 616.162 96.8715 616.19 96.9055 616.217Z" fill="#8CCC8C"/>
<path d="M117.571 737.817C117.472 731.682 116.405 723.561 111.94 719.097C107.105 714.252 100.355 712.981 94.2354 712.981C91.4078 712.981 88.7163 713.253 86.4084 713.566C90.5292 710.559 93.9106 707.787 93.9167 704.523C93.9167 704.192 93.8827 703.855 93.8116 703.514C90.0218 705.516 86.3651 707.115 82.8816 708.325C84.8523 703.254 85.8175 695.91 83.4849 688.727C82.2474 684.943 79.4279 681.067 76.5879 677.855C79.7388 676.683 82.0742 675.009 82.6775 671.993C84.4347 671.619 85.8608 671.127 86.8415 670.421C83.7881 669.933 80.9793 669.314 78.3875 668.55C83.9737 666.591 89.3474 660.29 89.1092 653.208C88.8679 646.127 83.8592 639.172 86.2352 632.561C88.5121 626.259 89.4155 621.866 85.3473 615.091C85.8021 615.076 86.2476 615.069 86.6807 615.069C88.6606 615.069 90.3931 615.212 91.6862 615.354C92.9763 615.496 93.827 615.639 94.0405 615.639C94.0652 615.639 94.0807 615.639 94.09 615.636C94.4891 616.192 94.8634 616.78 95.179 617.411C96.336 619.756 96.7351 621.866 96.7351 623.803C96.732 628.137 94.7211 631.583 94.718 634.751C94.718 636.258 95.1697 637.7 96.5031 639.144C97.9138 640.673 100.472 641.338 103.359 641.338C107.377 641.338 112.033 640.054 115.124 638.034C120.661 634.423 123.975 628.521 123.984 623.812C123.987 621.613 123.269 619.673 121.72 618.349C120.334 617.167 118.712 616.771 116.934 616.771C115.084 616.771 113.06 617.198 110.944 617.628C108.828 618.055 106.616 618.485 104.395 618.485C101.914 618.485 99.4204 617.95 97.0228 616.288C95.346 612.759 95.114 609.028 96.0514 605.461C98.0808 607.539 100.531 608.189 103.219 608.189C105.484 608.189 107.916 607.731 110.412 607.27C112.912 606.809 115.477 606.348 118.004 606.348C120.662 606.348 123.273 606.859 125.723 608.412C137.615 615.96 126.58 647.046 145.946 647.046C146.218 647.046 146.5 647.039 146.784 647.027C144.65 649.746 141.637 650.597 138.113 650.597C135.165 650.597 131.857 650 128.408 649.403C124.962 648.809 121.37 648.212 117.852 648.212C113.509 648.212 109.274 649.121 105.561 652.07C90.2724 664.2 95.3213 687.962 105.202 699.165C110.907 705.643 116.135 707.898 121.633 707.898C130.707 707.901 140.51 701.76 154.41 698.317C168.768 694.744 177.062 685.054 181.152 678.601C179.423 691.607 169.43 701.745 151.948 710.456C151.276 710.791 150.621 711.134 149.971 711.493C146.16 713.59 142.685 716.09 139.394 718.778C131.793 724.987 125.16 732.199 117.571 737.817ZM94.0838 615.614C94.0405 615.571 93.9106 615.397 93.7249 615.122C93.8116 615.24 93.8827 615.354 93.9693 615.469C94.0281 615.54 94.0683 615.598 94.0838 615.614Z" fill="#4C4C7F"/>
<path d="M76.5879 677.856C75.0284 676.092 73.4636 674.527 72.1516 673.289C76.1443 672.906 79.8348 672.6 82.6744 671.993H82.6775C82.0742 675.01 79.7388 676.683 76.5879 677.856Z" fill="#A6A6C4"/>
<path d="M94.0902 615.636C94.0871 615.633 94.0871 615.629 94.084 615.626V615.614C94.0965 615.623 94.0996 615.629 94.0902 615.636Z" fill="#B9CCC8"/>
<path d="M94.0408 615.639C93.8273 615.639 92.9766 615.497 91.6865 615.354C90.3934 615.212 88.6609 615.07 86.681 615.07C86.2478 615.07 85.8023 615.076 85.3476 615.091C84.2957 613.337 82.9067 611.425 81.1238 609.275C86.2076 609.448 90.8141 611.363 93.6943 615.067C93.6943 615.079 93.7097 615.094 93.7252 615.122C93.9108 615.398 94.0408 615.571 94.0841 615.614V615.627C94.0872 615.63 94.0872 615.633 94.0903 615.636C94.081 615.639 94.0655 615.639 94.0408 615.639Z" fill="#A6A6C4"/>
<path d="M97.029 616.304C96.9888 616.276 96.9455 616.248 96.9053 616.218C96.8713 616.19 96.8372 616.162 96.8063 616.131C96.8774 616.19 96.9517 616.245 97.0228 616.289L97.029 616.304Z" fill="#B9CCC8"/>
<path d="M97.0228 616.289C96.9516 616.245 96.8774 616.19 96.8062 616.131C96.4443 615.859 96.1009 615.583 95.7544 615.295C95.7235 615.274 95.6925 615.249 95.6616 615.224C95.5811 615.153 95.5038 615.082 95.4234 615.008C92.8154 612.579 91.0056 608.134 91.0056 603.137C91.0056 601.294 91.25 599.375 91.7945 597.454C92.141 598.03 92.4411 598.72 92.7164 599.512C93.6259 602.215 94.7551 604.13 96.0514 605.461C95.114 609.028 95.346 612.759 97.0228 616.289Z" fill="#A6A6C4"/>
<path d="M164.254 618.504C158.902 614.206 155.518 607.784 151.394 602.472C147.502 597.092 143.273 592.124 138.503 588.665C133.72 585.188 128.461 583.595 122.898 583.861C110.468 584.526 93.4928 592.671 97.4342 607.376C100.5 617.501 110.941 610.395 118.57 611.397C131.675 613.173 131.675 628.023 124.723 636.425C119.665 643.278 111.043 647.064 102.403 646.758C99.4791 646.715 94.953 645.632 92.4874 642.82C92.1471 642.427 91.782 642.015 91.4727 641.57C89.7031 639.358 88.9142 635.494 89.4092 632.833C89.7495 630.201 90.8725 627.438 91.1633 625.328C91.5284 623.051 91.0674 621.118 89.9382 619.206C85.7308 612.926 76.2794 613.956 69.9971 617.708C62.6515 621.922 58.9688 630.553 58.8988 638.891C58.196 655.324 73.1801 663.015 87.816 665.069C92.5895 665.716 93.9878 672.284 90.0094 674.858C84.4377 678.313 78.9189 677.886 73.0301 678.675C65.132 679.579 54.7453 680.092 49.8817 686.057C47.9501 688.587 47.5089 692.52 48.1459 695.672C49.8183 703.122 58.4008 706.07 65.7748 705.989C74.3427 706.02 83.2528 702.93 91.3891 698.639C94.4983 696.937 98.5417 698.92 99.1388 702.395C100.126 706.095 98.3066 710.345 96.0296 712.802C90.6869 718.909 83.0888 721.959 79.133 728.353C77.2375 731.391 78.0944 735.583 80.0874 738.219C84.1407 742.427 90.6807 741.48 96.3328 740.524C103.523 739.054 109.543 735.893 115.39 731.37C124.513 724.322 133.565 714.274 144.248 708.087C147.759 705.962 151.641 704.39 155.224 702.413C169.421 694.849 180.146 685.061 180.892 668.151C186.813 680.73 181.285 695.378 171.227 704.167C165.08 710.101 157.575 713.652 150.413 717.996C140.362 724.715 133.305 733.486 123.365 741.511C111.452 751.407 92.0852 758.548 76.9467 751.865C68.8747 748.066 64.404 738.832 65.4741 730.098C66.1062 724.514 69.5132 719.524 73.376 716.013C78.3787 711.208 84.2088 708.839 88.3759 704.365C88.444 704.266 88.3976 704.591 88.4842 704.641L96.3607 708.328C87.1663 713.114 76.9473 716.861 65.7328 716.879C54.0511 717.219 40.0358 710.76 37.508 697.995C35.3084 688.504 39.5984 677.661 48.5183 673.323C55.7841 669.419 64.3718 668.587 72.0005 667.835C75.8128 667.38 80.376 667.325 83.6736 666.001L85.9876 675.808C75.195 674.118 63.2705 670.001 55.7145 661.137C42.4325 645.697 46.7426 618.723 64.3938 608.372C77.2956 600.14 98.1983 602.782 101.79 619.992C102.993 624.805 101.208 630.027 100.2 634.294C100.154 635.03 100.092 634.909 100.435 635.358L100.5 635.444L100.472 635.41C100.423 635.37 100.42 635.373 100.472 635.401C100.673 635.553 101.707 635.853 102.851 635.878C107.776 636.017 112.989 634.034 116.064 629.823C117.763 627.5 119.149 624.576 118.251 622.569C117.985 622.364 117.939 622.303 117.422 622.262C115.04 622.176 111.687 623.175 108.791 623.63C102.081 625.084 93.9909 622.918 89.6784 617.118C82.863 608.013 84.0603 594.831 90.9313 586.23C96.6731 578.932 105.345 575.124 114.056 573.413C124.658 570.982 136.77 573.679 144.572 581.41C150.218 586.722 153.72 593.185 156.542 599.53C159.441 605.823 160.938 612.465 164.254 618.504Z" fill="#000072"/>
<path d="M94.4027 656.33C91.5441 671.761 91.2688 687.811 101.277 700.548C104.296 704.712 108.204 708.409 112.312 712.492C109.469 711.967 106.681 711.091 104.055 709.807C83.3861 700.341 79.3724 672.535 94.4027 656.33Z" fill="#000072"/>
<path d="M496.335 686.722C555.377 738.566 661.466 716.966 661.466 716.966V602.12C661.466 602.12 600.26 607.518 577.94 600.319C553.957 592.48 548.68 504.799 465.454 504.799L496.335 686.722Z" fill="#777782"/>
<path d="M465.46 504.796L496.329 686.728C555.377 738.559 661.465 716.959 661.465 716.959V602.116C661.465 602.116 600.254 607.521 577.946 600.322C562.088 595.134 554.397 555.034 526.944 528.478V528.465C525.418 526.98 523.837 525.551 522.179 524.162C508.812 512.96 491.144 505.04 466.602 504.808C466.221 504.796 465.84 504.796 465.46 504.796Z" fill="#5F5F82"/>
<path d="M502.188 532.113C502.185 532.11 502.185 532.107 502.182 532.103C503.166 531.776 504.143 531.441 505.111 531.104C502.702 527.726 499.138 522.807 494.714 516.954C496.161 516.812 497.6 516.657 499.045 516.49C505.625 519.221 511.426 522.73 516.583 526.758C511.995 528.66 507.19 530.448 502.188 532.113Z" fill="#4C4C7F"/>
<path d="M612.304 612.248C597.609 612.248 584.022 611.512 576.773 609.263C559.272 603.827 551.08 578.685 539.785 553.305C544.534 560.751 548.5 568.318 552.126 575.242C560.03 590.32 566.27 602.234 576.269 605.498C585.844 608.588 601.761 609.507 617.3 609.507C628.561 609.507 639.624 609.025 647.931 608.536C647.433 609.476 646.947 610.389 646.474 611.258C636.088 611.794 623.853 612.248 612.304 612.248Z" fill="#CFCFD9"/>
<path d="M625.347 715.531C614.105 702.367 598.451 693.655 580.034 693.655C578.404 693.655 576.752 693.723 575.078 693.862C574.45 686.66 573.277 679.458 571.638 672.331C580.099 680.287 588.839 685.123 598.002 685.123C606.494 685.123 615.351 680.968 624.682 671.285C624.685 671.285 624.685 671.282 624.688 671.279C624.462 673.822 624.512 676.263 624.84 678.601C626.569 691.607 636.561 701.745 654.044 710.457C654.715 710.791 655.371 711.134 656.021 711.493V712.39C650.288 713.312 639.29 714.822 625.347 715.531Z" fill="#4C4C7F"/>
<path d="M609.823 726.995C573.627 726.995 526.297 720.276 492.743 690.815C490.485 688.829 490.262 685.392 492.245 683.13C494.228 680.869 497.668 680.646 499.93 682.632C549.657 726.296 635.739 715.648 656.021 712.39V608.007C639.862 609.176 595.406 611.673 576.269 605.498C566.27 602.234 560.03 590.32 552.126 575.242C537.753 547.81 518.065 510.244 465.454 510.244C462.447 510.244 460.009 507.806 460.009 504.799C460.009 501.792 462.447 499.354 465.454 499.354C524.654 499.354 546.991 541.979 561.772 570.187C567.99 582.051 573.862 593.256 579.632 595.143C600.629 601.915 660.386 596.749 660.986 596.696C662.505 596.548 664.015 597.071 665.141 598.104C666.267 599.134 666.91 600.591 666.91 602.119V716.966C666.91 719.552 665.088 721.783 662.551 722.299C660.578 722.701 638.758 726.995 609.823 726.995Z" fill="#000072"/>
<path d="M624.84 678.601C626.569 691.607 636.562 701.745 654.044 710.457C667.727 717.269 676.986 729.35 688.421 737.817C691.79 740.323 695.347 742.498 699.264 744.141C709.662 748.503 728.323 751.627 733.192 738.235C737.728 725.78 727.345 719.24 719.583 713.566C715.048 710.256 711.403 707.23 712.18 703.515C715.97 705.516 719.626 707.116 723.11 708.325C727.274 709.764 731.203 710.673 734.863 711.119H734.875H734.891C752.128 713.207 763.275 704.969 763.547 693.652C763.953 676.671 747.203 674.57 733.839 673.289C729.851 672.9 726.163 672.596 723.326 671.993H723.314C721.557 671.619 720.131 671.127 719.15 670.422C722.203 669.933 725.013 669.314 727.605 668.55H727.617C749.075 662.329 755.009 647.38 751.695 631.556C748.5 616.363 735.627 608.916 724.867 609.275C719.784 609.449 715.178 611.364 712.294 615.067C712.294 615.079 712.282 615.094 712.267 615.122C712.18 615.24 712.109 615.354 712.022 615.469C711.963 615.54 711.923 615.599 711.908 615.614V615.627C711.506 616.19 711.128 616.781 710.813 617.412C705.829 627.494 714.887 633.298 709.488 639.145C706.119 642.801 696.183 641.505 690.868 638.034C682.747 632.735 679.406 622.51 684.272 618.349C687.093 615.942 690.889 616.787 695.047 617.628C699.524 618.535 704.421 619.441 708.969 616.289C709.043 616.245 709.114 616.19 709.185 616.131C709.544 615.859 709.891 615.583 710.237 615.296C710.352 615.209 710.466 615.122 710.568 615.008C714.138 611.682 716.214 604.582 714.197 597.454C711.994 589.649 704.879 581.813 689.442 578.861C671.542 575.434 661.246 586.076 654.146 597.454H654.13C648.862 605.878 645.332 614.705 641.731 618.507L625.099 668.148C624.465 671.832 624.379 675.319 624.84 678.601Z" fill="#5F5F82"/>
<path d="M740.113 711.444C738.442 711.444 736.7 711.338 734.891 711.119C749.997 709.117 758.161 695.697 752.546 687.647C747.627 680.597 736.468 680.485 729.402 677.856C730.962 676.092 732.527 674.527 733.839 673.289C729.848 672.906 726.157 672.6 723.317 671.993H723.326C726.163 672.596 729.851 672.9 733.839 673.289C747.046 674.555 763.56 676.624 763.557 693.061C763.557 693.256 763.553 693.451 763.547 693.652C763.303 703.781 754.35 711.444 740.113 711.444Z" fill="#CFCFD9"/>
<path d="M727.617 668.55C727.617 668.55 755.757 647.21 739.556 623.924C734.748 617.015 726.791 615.295 720.644 615.091C721.696 613.337 723.085 611.425 724.867 609.275C725.118 609.269 725.365 609.263 725.616 609.263C736.215 609.263 748.574 616.712 751.695 631.556C752.255 634.229 752.552 636.877 752.552 639.463C752.562 652.181 745.449 663.38 727.617 668.55Z" fill="#CFCFD9"/>
<path d="M708.957 616.32L708.963 616.304C709.003 616.276 709.046 616.245 709.09 616.217C709.043 616.251 708.997 616.285 708.957 616.32Z" fill="#E7FFDE"/>
<path d="M710.33 615.224C710.41 615.153 710.488 615.082 710.568 615.008C710.494 615.091 710.413 615.162 710.33 615.224ZM709.937 605.461C707.366 595.7 696.037 587.146 681.602 587.146C673.138 587.146 663.603 590.091 654.146 597.454C660.324 587.555 668.921 578.209 682.846 578.209C684.922 578.209 687.118 578.419 689.441 578.861C704.879 581.813 711.994 589.649 714.197 597.454C713.85 598.03 713.55 598.72 713.275 599.512C712.366 602.215 711.236 604.13 709.937 605.461Z" fill="#CFCFD9"/>
<path d="M723.317 671.993H723.314C721.557 671.619 720.131 671.127 719.15 670.422C720.125 671.121 721.557 671.616 723.317 671.993ZM684.272 618.349C685.658 617.167 687.276 616.771 689.058 616.771C690.908 616.771 692.931 617.198 695.047 617.628C697.163 618.055 699.375 618.485 701.597 618.485C704.078 618.485 706.571 617.95 708.969 616.289L708.963 616.304C706.565 617.956 704.078 618.488 701.603 618.488C699.378 618.488 697.167 618.058 695.047 617.628C692.931 617.201 690.908 616.771 689.058 616.771C687.276 616.771 685.658 617.17 684.272 618.349ZM710.813 617.412C713.405 612.186 718.791 609.479 724.867 609.275C719.784 609.448 715.178 611.363 712.295 615.067C712.295 615.079 712.282 615.094 712.267 615.122C712.18 615.24 712.109 615.354 712.022 615.469C711.964 615.54 711.923 615.599 711.908 615.614C711.895 615.623 711.892 615.63 711.902 615.636C711.503 616.193 711.128 616.78 710.813 617.412ZM709.089 616.217C709.12 616.19 709.155 616.162 709.185 616.131C709.544 615.859 709.891 615.583 710.237 615.296C710.268 615.274 710.299 615.249 710.33 615.224C709.919 615.593 709.504 615.92 709.089 616.217Z" fill="#8CCC8C"/>
<path d="M688.421 737.817C680.832 732.199 674.199 724.987 666.598 718.778C663.306 716.09 659.832 713.59 656.021 711.493C655.371 711.134 654.715 710.791 654.044 710.456C636.562 701.745 626.569 691.607 624.84 678.601C628.93 685.054 637.224 694.744 651.582 698.317C665.481 701.76 675.285 707.898 684.359 707.898C689.856 707.898 695.085 705.643 700.789 699.165C710.671 687.962 715.719 664.2 700.431 652.07C696.715 649.121 692.483 648.212 688.139 648.212C684.622 648.212 681.03 648.809 677.584 649.403C674.134 650 670.827 650.597 667.879 650.597C664.355 650.597 661.342 649.746 659.207 647.027C659.492 647.039 659.77 647.046 660.046 647.046C679.412 647.046 668.377 615.96 680.269 608.412C682.719 606.859 685.33 606.348 687.988 606.348C690.515 606.348 693.08 606.809 695.577 607.27C698.076 607.731 700.508 608.189 702.769 608.189C705.461 608.189 707.908 607.539 709.937 605.461C710.878 609.028 710.646 612.759 708.969 616.288C706.571 617.95 704.078 618.485 701.597 618.485C699.376 618.485 697.164 618.055 695.048 617.628C692.931 617.198 690.908 616.771 689.058 616.771C687.276 616.771 685.658 617.167 684.272 618.349C682.722 619.673 682.005 621.613 682.008 623.812C682.017 628.521 685.33 634.423 690.868 638.034C693.959 640.054 698.615 641.338 702.633 641.338C705.52 641.338 708.078 640.673 709.489 639.144C710.822 637.7 711.274 636.258 711.274 634.751C711.271 631.583 709.26 628.137 709.257 623.803C709.257 621.866 709.656 619.756 710.813 617.411C711.128 616.78 711.503 616.192 711.902 615.636C711.911 615.639 711.927 615.639 711.951 615.639C712.165 615.639 713.016 615.496 714.306 615.354C715.599 615.212 717.331 615.069 719.311 615.069C719.744 615.069 720.19 615.076 720.644 615.091C716.576 621.866 717.48 626.259 719.757 632.561C722.133 639.172 717.124 646.127 716.883 653.208C716.641 660.29 722.018 666.591 727.605 668.55C725.013 669.314 722.204 669.933 719.15 670.421C720.131 671.127 721.557 671.619 723.314 671.993C723.918 675.009 726.253 676.683 729.403 677.855C726.563 681.067 723.744 684.943 722.507 688.727C720.174 695.91 721.14 703.254 723.11 708.325C719.627 707.115 715.97 705.516 712.18 703.514C712.109 703.855 712.075 704.192 712.075 704.523C712.081 707.787 715.463 710.559 719.583 713.566C717.276 713.253 714.584 712.981 711.756 712.981C705.637 712.981 698.887 714.252 694.051 719.097C689.587 723.561 688.52 731.682 688.421 737.817ZM711.908 615.614C711.923 615.598 711.964 615.54 712.022 615.469C712.109 615.354 712.18 615.24 712.267 615.122C712.081 615.397 711.951 615.571 711.908 615.614Z" fill="#4C4C7F"/>
<path d="M729.402 677.856C726.253 676.683 723.917 675.01 723.314 671.993H723.317C726.157 672.6 729.848 672.906 733.839 673.289C732.527 674.527 730.962 676.092 729.402 677.856Z" fill="#A6A6C4"/>
<path d="M711.902 615.636C711.892 615.629 711.895 615.623 711.908 615.614V615.626C711.905 615.629 711.905 615.633 711.902 615.636Z" fill="#B9CCC8"/>
<path d="M711.951 615.639C711.926 615.639 711.911 615.639 711.902 615.636C711.905 615.633 711.905 615.63 711.908 615.627V615.614C711.951 615.571 712.081 615.398 712.267 615.122C712.282 615.094 712.295 615.079 712.295 615.067C715.178 611.363 719.784 609.448 724.867 609.275C723.085 611.425 721.696 613.337 720.644 615.091C720.19 615.076 719.744 615.07 719.311 615.07C717.331 615.07 715.599 615.212 714.305 615.354C713.015 615.497 712.165 615.639 711.951 615.639Z" fill="#A6A6C4"/>
<path d="M708.963 616.304L708.969 616.289C709.043 616.245 709.114 616.19 709.185 616.131C709.154 616.162 709.12 616.19 709.089 616.218C709.046 616.245 709.003 616.276 708.963 616.304Z" fill="#B9CCC8"/>
<path d="M708.969 616.289C710.646 612.759 710.878 609.028 709.937 605.461C711.236 604.13 712.366 602.215 713.275 599.512C713.55 598.72 713.851 598.03 714.197 597.454C714.742 599.375 714.986 601.294 714.986 603.137C714.986 608.134 713.176 612.579 710.568 615.008C710.488 615.082 710.41 615.153 710.33 615.224C710.299 615.249 710.268 615.274 710.237 615.295C709.891 615.583 709.544 615.859 709.185 616.131C709.114 616.19 709.043 616.245 708.969 616.289Z" fill="#A6A6C4"/>
<path d="M641.737 618.504C645.054 612.465 646.551 605.823 649.45 599.53C652.271 593.185 655.773 586.722 661.419 581.411C669.228 573.689 681.33 570.976 691.935 573.413C700.647 575.124 709.318 578.933 715.06 586.231C721.931 594.831 723.128 608.016 716.313 617.118C712.004 622.925 703.908 625.078 697.2 623.63C694.311 623.175 690.939 622.154 688.569 622.262C685.94 622.361 688.452 628.174 689.927 629.823C693.002 634.037 698.215 636.014 703.14 635.878C704.285 635.853 705.318 635.553 705.519 635.401C705.615 635.355 705.498 635.404 705.491 635.445L705.556 635.358C705.897 634.916 705.838 635.03 705.788 634.294C704.783 630.031 702.998 624.805 704.201 619.992C707.855 602.754 728.626 600.143 741.598 608.372C759.25 618.723 763.56 645.697 750.278 661.137C742.721 670.001 730.795 674.119 720.004 675.808L722.318 666.001C725.616 667.322 730.17 667.38 733.99 667.835C749.883 668.94 769.209 673.228 768.998 693.21C769.125 708.675 754.028 717.266 740.258 716.879C729.044 716.861 718.825 713.114 709.631 708.328L717.507 704.641C717.594 704.588 717.548 704.266 717.616 704.365C717.674 704.433 717.931 704.798 718.377 705.228C724.347 710.441 732.976 714.274 737.573 721.919C744.054 731.803 739.881 746.891 729.044 751.865C717.448 756.989 704.789 753.879 693.927 748.896C682.422 743.281 673.348 732.79 664.445 724.957C658.675 719.416 652.024 715.871 645.214 711.982C634.114 705.34 623.215 694.432 622.693 680.714C622.541 676.266 623.361 671.965 625.096 668.151C625.857 685.067 636.552 694.84 650.771 702.413C654.35 704.39 658.233 705.962 661.744 708.087C672.423 714.277 681.478 724.326 690.602 731.37C696.449 735.893 702.469 739.058 709.659 740.524C715.311 741.502 721.854 742.417 725.903 738.219C727.893 735.562 728.753 731.392 726.859 728.354C722.9 721.956 715.305 718.909 709.962 712.802C707.685 710.333 705.866 706.104 706.85 702.401C707.391 699.493 710.191 697.575 713.099 698.119C713.687 698.227 714.225 698.429 714.729 698.707C722.841 702.964 731.692 706.02 740.218 705.989C747.59 706.076 756.181 703.122 757.846 695.672C759.386 687.598 754.879 682.691 746.616 680.739C740.079 678.997 732.505 678.812 725.412 677.871C721.968 677.274 719.493 677.119 715.982 674.858C711.948 672.241 713.47 665.71 718.16 665.073C732.787 663.028 747.807 655.321 747.092 638.891C747.021 630.557 743.343 621.919 735.995 617.709C729.542 613.82 719.497 612.873 715.673 619.883C712.675 625.495 717.971 631.042 716.462 637.214C713.844 648.661 699.651 648.091 691.295 644.401C679.644 639.859 669.333 620.558 683.134 612.623C686.465 610.819 691.094 611.237 694.057 611.84C697.974 612.471 701.779 613.879 705.204 612.022C709.037 609.708 709.6 604.397 708.774 600.248C707.292 592.545 699.239 587.431 691.653 585.423C675.01 579.966 664.036 589.108 654.598 602.472C650.474 607.784 647.092 614.207 641.737 618.504Z" fill="#000072"/>
<path d="M711.589 656.33C726.621 672.544 722.6 700.337 701.937 709.807C699.31 711.091 696.523 711.967 693.68 712.492C697.788 708.409 701.696 704.712 704.715 700.548C714.723 687.808 714.448 671.767 711.589 656.33Z" fill="#000072"/>
<path d="M548.163 765.143C510.513 818.843 403.008 814.512 403.008 814.512C403.008 814.512 400.938 814.596 397.263 814.596C374.503 814.596 290.275 811.384 257.838 765.143C225.24 718.646 240.402 662.675 262.426 622.058C264.347 618.535 266.305 615.131 268.294 611.849C276.434 598.429 283.308 571.885 301.028 539.191L403.008 442.4L504.985 539.191C522.708 571.885 529.582 598.429 537.722 611.849C539.708 615.131 541.669 618.547 543.587 622.074C565.611 662.69 580.776 718.661 548.163 765.143Z" fill="white"/>
<path d="M550.09 766.96C511.939 821.368 403.008 816.984 403.008 816.984C403.008 816.984 400.911 817.065 397.186 817.065C374.126 817.065 288.781 813.81 255.911 766.96C239.251 743.194 234.908 716.975 237.54 691.555C240.148 666.58 249.497 642.372 260.56 621.972C262.503 618.402 264.489 614.952 266.503 611.63C274.751 598.03 281.718 571.134 299.674 538.007L403.008 439.928L506.34 538.007C524.299 571.134 531.262 598.03 539.51 611.63C541.524 614.952 543.51 618.414 545.456 621.987C556.504 642.372 565.853 666.592 568.461 691.555C571.109 716.975 566.765 743.194 550.09 766.96Z" fill="white"/>
<path d="M550.09 766.96C511.939 821.368 403.008 816.984 403.008 816.984C403.008 816.984 400.911 817.065 397.186 817.065C374.126 817.065 288.781 813.81 255.911 766.96C239.251 743.194 234.908 716.975 237.54 691.555C255.815 693.736 279.911 700.452 303.674 721.071C339.037 751.761 377.009 767.842 403.008 767.842C429.007 767.842 466.976 751.761 502.34 721.071C526.105 700.452 550.186 693.736 568.461 691.555C571.109 716.975 566.765 743.194 550.09 766.96Z" fill="#DFE7F2"/>
<path d="M402.953 582.032C342.901 582.032 264.489 614.952 266.503 611.629C274.751 598.03 281.718 571.133 299.674 538.006C299.674 538.006 366.754 439.928 403.008 439.928C439.26 439.928 506.34 538.006 506.34 538.006C524.299 571.133 531.262 598.03 539.51 611.629C541.524 614.952 463.072 582.032 402.953 582.032Z" fill="#5F5F82"/>
<path d="M303.81 532.135C302.823 531.803 301.842 531.473 300.868 531.132C303.302 527.72 306.928 522.724 311.423 516.781C312.59 516.892 313.768 517 314.931 517.096C310.276 523.206 306.461 528.431 303.81 532.135Z" fill="#424264"/>
<path d="M502.182 532.104C499.558 528.441 495.8 523.29 491.221 517.276C492.381 517.177 493.554 517.069 494.714 516.954C499.138 522.807 502.702 527.726 505.112 531.105C504.143 531.442 503.166 531.776 502.182 532.104Z" fill="#3D3D7C"/>
<path d="M402.956 546.922C366.048 546.922 331.86 541.462 303.81 532.135C306.461 528.432 310.276 523.206 314.932 517.096C322.805 517.755 330.614 518.083 338.292 518.083C348.328 518.083 358.144 517.523 367.533 516.422C367.546 516.422 367.555 516.422 367.567 516.422H438.734C438.747 516.422 438.759 516.422 438.768 516.422C448.649 517.641 458.707 518.241 468.842 518.241C476.279 518.241 483.747 517.919 491.221 517.276C495.8 523.29 499.559 528.441 502.182 532.104C474.116 541.447 439.897 546.922 402.956 546.922Z" fill="#4C4C7F"/>
<path d="M506.343 538.003C522.804 557.849 531.556 582.206 542.288 605.096C546.465 612.514 551.062 619.655 554.805 627.314C579.486 674.515 587.19 734.788 549.973 777.97C515.921 815.728 451.084 823.951 402.789 822.513L403.005 811.44L403.231 822.509C355.007 823.967 290.077 815.672 256.099 777.92C218.87 734.433 226.675 674.948 251.381 627.401C256.972 616.007 264.375 605.968 269.244 594.138C277.811 574.815 286.897 554.975 299.67 538.003C294.557 551.767 287.528 571.805 282.785 585.906C279.627 594.859 276.616 604.329 271.865 613.121C270.389 615.893 268.672 618.615 267.209 621.384C242.116 666.409 229.8 726.702 266.163 769.042C297.226 803.097 358.626 810.902 402.782 811.446L403.005 822.516L403.231 811.446C435.906 811.184 469.909 806.874 500.381 794.994C523.185 786.106 542.43 771.507 552.658 749.323C570.787 712.192 561.689 668.473 544.299 632.512C540.778 624.852 536.28 617.625 532.357 610.179C521.561 586.404 514.866 562.694 506.343 538.003Z" fill="#000072"/>
<path d="M241.568 169.278C283.896 128.544 279.283 97.3352 266.627 77.3996C250.645 52.2234 223.851 24.2597 185.202 28.9683C130.131 35.6753 93.8272 83.4756 112.859 135.242C124.232 166.175 145.318 183.206 164.641 192.574C186.343 203.095 210.205 199.466 241.568 169.278Z" fill="#5F5F82"/>
<path d="M109.592 124.058C99.1822 76.7716 134.125 35.1928 185.199 28.9683C188.1 28.6156 190.934 28.4454 193.703 28.4454C228.151 28.4454 252.319 54.6272 267.063 78.0958C267.069 78.1081 267.075 78.1174 267.082 78.1267C266.166 78.6433 265.26 79.1599 264.353 79.6859C248.919 60.9259 227.48 44.5882 199.63 44.5882C196.722 44.5882 193.746 44.7677 190.699 45.1389C144.798 50.7415 111.334 83.5622 109.592 124.058Z" fill="#8F8FA8"/>
<path d="M276.938 102.273C258.98 74.8782 239.316 41.7729 204.797 35.3195C193.963 33.1787 183.036 34.6142 172.23 37.3459C143.744 44.4892 118.36 67.3452 114.023 97.0598C109.509 126.23 125.243 157.164 147.657 175.382C159.24 184.812 173.124 191.395 187.689 195.287C190.613 196.045 192.364 199.043 191.581 201.963C190.804 204.868 187.822 206.594 184.917 205.818C169.022 201.573 153.739 194.362 140.805 183.846C134.342 178.612 128.504 172.592 123.418 165.993C108.603 145.952 99.1947 120.55 103.263 95.383C108.767 56.7988 144.146 28.7176 181.455 23.6594C212.442 18.3445 239.904 33.7757 258.899 57.3928C269.374 70.0304 277.557 84.4005 281.894 100.024C282.696 103.04 278.649 104.859 276.938 102.273Z" fill="#000072"/>
<path d="M564.315 169.445C522.031 128.665 526.677 97.462 539.352 77.5419C555.359 52.378 582.181 24.4422 620.824 29.1909C675.891 35.9568 712.146 83.7911 693.061 135.539C681.655 166.46 660.553 183.469 641.22 192.815C619.509 203.315 595.651 199.664 564.315 169.445Z" fill="#5F5F82"/>
<path d="M696.341 124.358C694.639 83.8623 661.206 51.0076 615.311 45.3554C612.239 44.978 609.242 44.7986 606.309 44.7986C578.781 44.7986 557.5 60.7712 542.1 79.2559C541.165 78.7114 540.228 78.1762 539.288 77.6472C554.078 54.3611 578.132 28.662 612.255 28.662C615.045 28.662 617.907 28.8322 620.831 29.191C671.898 35.4681 706.797 77.081 696.341 124.358Z" fill="#8F8FA8"/>
<path d="M524.061 100.147C532.766 70.0523 556.894 39.0815 586.723 27.5174C602.686 21.2837 620.487 21.8776 636.8 26.4656C669.237 35.0041 697.866 61.5478 702.698 95.6926C706.739 120.863 697.306 146.252 682.472 166.281C667.366 186.176 644.853 199.841 620.933 206.041C613.929 207.677 611.243 197.561 618.133 195.516C640.005 189.805 660.089 177.672 673.806 159.682C697.238 128.408 701.185 88.1595 672.083 59.0512C656.516 43.555 633.812 34.8464 611.955 34.4844C589.399 34.5092 570.088 47.651 555.594 64.6816C545.586 76.4747 537.713 89.5176 529.017 102.4C527.365 104.992 523.191 103.124 524.061 100.147Z" fill="#000072"/>
<path d="M438.743 516.419C541.747 514.513 620.153 482.797 649.648 423.265C671.879 378.398 655.597 332.247 655.591 332.175C655.028 329.478 666.134 141.042 520.682 75.1937C479.669 56.6286 441.141 51.6818 403.154 51.2549H403.15C365.16 51.6818 326.632 56.6286 285.622 75.1937C140.167 141.042 151.273 329.478 150.71 332.175C150.707 332.247 134.425 378.398 156.656 423.265C186.151 482.797 264.557 514.513 367.561 516.419H438.743Z" fill="white"/>
<path d="M649.648 423.265C647.72 427.154 645.589 430.913 643.253 434.554C609.829 486.8 535.034 514.637 438.734 516.422H367.567C269.987 514.609 194.498 486.067 161.736 432.454C159.908 429.471 158.206 426.405 156.653 423.265C134.431 378.392 150.704 332.253 150.704 332.179C151.28 329.472 140.164 141.039 285.625 75.1968C306.133 65.9097 326.019 60.0348 345.519 56.4183C365.03 52.8049 384.155 51.4653 403.151 51.2488C441.141 51.6819 479.675 56.6348 520.676 75.1968C666.137 141.039 655.034 329.472 655.597 332.179C655.597 332.253 671.882 378.392 649.648 423.265Z" fill="white"/>
<path d="M645.675 430.078C644.825 431.501 644.017 433.001 643.253 434.554C609.829 486.8 535.033 514.637 438.734 516.422C438.734 516.422 429.116 517.771 402.934 517.771C376.755 517.771 367.567 516.422 367.567 516.422C269.987 514.609 194.498 486.067 161.736 432.454C161.244 431.56 160.74 430.696 160.239 429.83C206.795 468.08 270.432 495.815 402.934 495.874C535.451 495.945 599.072 468.281 645.675 430.078Z" fill="#DFE7F2"/>
<path d="M438.74 516.419C486.244 508.18 535.182 503.574 578.828 481.968C637.759 453.398 668.328 400.177 650.078 335.266C649.797 334.421 649.54 333.537 649.416 332.664L649.527 333.441C649.23 330.994 649.438 327.946 649.385 325.481C648.85 266.726 636.324 206.505 604.747 156.35C571.057 103.071 516.958 71.9795 455.462 61.6157C387.197 50.6208 312.092 59.2244 254.454 99.6277C188.84 145.767 160.88 228.333 156.759 305.712C156.276 313.196 156.27 321.273 156.292 328.785C156.292 331.659 156.431 332.615 155.927 334.193C137.479 399.59 168.49 452.637 227.672 481.572C271.209 503.289 320.005 508.657 367.561 516.419C274.395 527.355 140.669 484.891 139.27 373.621C139.165 359.248 140.953 344.835 145.188 331.086L145.216 331.003C145.157 331.235 145.105 331.492 145.142 331.736L145.244 331.037C145.17 331.124 145.142 331.356 145.151 331.343L145.148 330.53C144.997 313.032 146.042 295.423 148.257 278.073C159.571 184.935 204.67 99.2409 296.224 64.5547C361.498 39.0227 444.863 38.8557 510.226 64.1773C557.673 81.7617 597.857 117.175 622.309 161.408C650.53 212.256 662.159 271.091 661.794 328.881L661.775 330.533L661.769 331.343C661.775 331.328 661.744 331.037 661.658 330.913L661.769 331.69C661.797 331.396 661.75 331.096 661.664 330.814L661.692 330.901C662.703 334.211 663.601 337.62 664.287 341.005C676.575 399.039 652.739 450.651 602.649 481.621C555.028 510.751 494.021 523.243 438.74 516.419Z" fill="#000072"/>
<path d="M302.411 375.066C318.353 367.22 332.739 359.072 338.533 354.728C349.042 346.849 354.549 336.537 355.387 317.821C357.188 277.68 334.165 252.176 298.81 249.058C266.169 246.178 227.647 261.658 205.685 301.081C190.306 328.689 187.206 384.27 229.033 393.634C256.641 399.815 292.836 379.778 302.411 375.066Z" fill="#5F5F82"/>
<path d="M267.809 195.426C270.943 183.624 295.098 144.402 317.642 161.591C325.586 167.651 323.891 184.481 312.751 187.302C296.512 191.414 293.05 189.288 267.809 195.426Z" fill="#000072"/>
<path d="M538.344 195.562C535.223 183.757 511.108 144.514 488.548 161.681C480.595 167.732 482.275 184.561 493.412 187.395C509.647 191.522 513.112 189.4 538.344 195.562Z" fill="#000072"/>
<path d="M262.166 87.6458C317.97 54.3084 376.588 58.2312 381.269 5.47794C381.269 5.47794 406.244 20.4389 403.154 43.8363C409.799 38.0635 418.452 27.5946 453.11 30.7718C483.707 33.5747 498.859 21.596 498.859 21.596C498.859 21.596 502.389 59.2366 459.824 69.8974" fill="white"/>
<path d="M259.375 82.9713C281.483 69.616 306.384 61.5168 330.115 52.4183C353.466 43.4188 374.027 31.9227 375.852 4.92735C376.112 1.95743 378.729 -0.239005 381.696 0.0208634C383.713 0.175547 385.365 1.70686 386.865 2.69374C389.439 4.5716 391.871 6.5979 394.145 8.83153C400.369 14.8889 405.474 22.3231 407.701 30.9421C408.905 35.3474 408.979 40.0157 408.552 44.5479L399.583 39.7249C415.219 23.7152 436.083 23.7771 456.73 25.5498C469.652 26.2861 483.379 24.6526 494.615 17.9084C494.946 17.7042 495.397 17.3886 495.484 17.3236L495.694 17.1721C498.952 14.6539 504.038 17.0144 504.282 21.0887C507.859 47.5056 485.368 69.2757 459.823 69.8975C465.005 67.3854 469.884 64.6135 474.147 61.2971C486.85 52.112 492.264 37.2159 493.439 22.1034L502.238 25.8685C488.851 35.0505 471.938 37.2747 456.086 36.4209C446.23 35.6846 435.417 34.9452 426.109 37.0767C418.09 38.7566 412.865 42.1133 406.724 47.9479C403.243 51.2241 397.254 48.2326 397.724 43.5333C398.544 36.851 396.867 30.3264 393.158 24.6185C389.452 18.9509 384.183 13.8495 378.472 10.1495L386.692 5.9607C384.211 37.7914 361.327 52.1676 334.109 62.5469C310.443 71.6547 286.569 79.3084 264.959 92.3204C258.825 95.8348 253.185 86.9281 259.375 82.9713Z" fill="#000072"/>
<path d="M385.572 58.9984C395.441 54.0145 398.72 49.541 403.154 43.8363Z" fill="white"/>
<path d="M385.572 58.9984C391.998 53.9093 395.729 48.0128 398.853 40.4951L407.454 47.1775C401.443 52.5759 393.628 57.3897 385.572 58.9984Z" fill="#232333"/>
<path d="M235.201 310.402C241.259 321.354 249.89 329.997 260.548 335.455C278.732 344.739 305.31 342.886 318.563 326.656C325.957 317.514 328.376 305.288 329.834 293.152C336.751 305.783 337.958 321.02 331.526 334.477C321.304 356.034 293.95 363.858 272.072 357.887C251.205 352.64 233.37 332.262 235.201 310.402Z" fill="#000072"/>
<path d="M503.89 375.066C487.948 367.22 473.563 359.072 467.768 354.728C457.259 346.849 451.752 336.537 450.911 317.821C449.113 277.68 472.136 252.176 507.491 249.058C540.132 246.178 578.654 261.658 600.613 301.081C615.995 328.689 619.095 384.27 577.268 393.634C549.661 399.815 513.465 379.778 503.89 375.066Z" fill="#5F5F82"/>
<path d="M571.099 310.402C572.925 332.265 555.096 352.637 534.229 357.887C512.357 363.858 484.987 356.034 474.772 334.477C468.343 321.023 469.547 305.78 476.464 293.152C477.921 305.279 480.344 317.521 487.737 326.656C500.994 342.886 527.562 344.739 545.753 335.455C556.411 329.994 565.036 321.357 571.099 310.402Z" fill="#000072"/>
<path d="M419.559 392.18C413.078 390.952 408.135 389.715 402.309 389.711C396.478 389.795 391.571 391.066 385.081 392.341C386.491 384.267 394.198 378.936 402.257 378.825C410.316 378.881 418.056 384.134 419.559 392.18Z" fill="#000072"/>
<path d="M429.143 334.678C426.071 343.272 416.704 349.525 410.096 353.008C405.74 355.304 400.546 355.301 396.193 353.002C389.591 349.512 380.226 343.254 377.161 334.66C373.656 324.806 398.448 323.21 403.157 323.21C407.865 323.213 432.658 324.831 429.143 334.678Z" fill="#000072"/>
<path d="M403.191 331.646C403.166 331.646 403.154 331.646 403.154 331.646C403.154 331.646 403.144 331.646 403.126 331.646C402.575 331.646 394.349 331.591 392.378 328.231C390.927 325.744 401.18 325.342 403.151 325.342C403.151 325.342 403.154 325.342 403.157 325.342C405.109 325.342 415.389 325.753 413.932 328.237C411.967 331.585 403.8 331.646 403.191 331.646Z" fill="#8080B9"/>
<path d="M370.574 805.534C336.503 802.769 284.762 792.789 262.441 758.6C251.093 741.233 244.742 724.802 242.119 708.919C253.08 706.5 263.19 707.19 271.137 712.938C281.161 720.196 334.892 771.303 370.574 805.534Z" fill="#424272"/>
<path d="M435.324 805.534C469.398 802.769 521.14 792.789 543.461 758.6C554.808 741.233 561.159 724.802 563.78 708.919C552.822 706.5 542.712 707.19 534.764 712.938C524.741 720.196 471.01 771.303 435.324 805.534Z" fill="#424272"/>
<path d="M351.96 839.723C351.96 841.65 352.062 843.509 352.263 845.294C357.074 890.527 420.206 894.313 442.771 894.313C475.159 894.313 596.415 883.241 631.336 799.904C640.998 776.831 639.674 753.419 631.092 734.869V734.854C625.044 721.78 615.395 711.122 603.441 704.715C584.619 694.577 560.095 694.951 534.922 712.938L541.632 717.501C541.1 717.718 540.568 717.947 540.048 718.163C484.579 741.709 474.914 765.428 428.37 783.139C380.923 778.836 358.5 790.14 353.213 822.454L353.2 822.513C352.365 827.698 351.96 833.427 351.96 839.723Z" fill="#5F5F82"/>
<path d="M438.031 793.63C435.785 791.78 433.286 790.168 430.52 788.782C441.073 784.822 451.347 779.801 460.897 773.763C472.572 766.403 483.363 757.57 494.231 749.193C509.078 737.48 524.728 727.506 541.091 717.82C544.525 716.746 547.888 716.307 550.421 716.307C553.039 716.307 554.768 716.777 554.768 717.501C554.768 718.999 534.922 720.397 483.484 763.888C462.84 781.339 447.365 789.695 438.031 793.63Z" fill="#CFCFD9"/>
<path d="M541.632 717.501C541.632 717.498 541.635 717.498 541.635 717.498C541.635 717.498 541.632 717.498 541.629 717.498L534.922 712.938C534.928 712.932 534.934 712.929 534.94 712.923C547.089 706.472 560.547 702.352 573.701 702.352C575.891 702.352 578.069 702.466 580.235 702.704C556.949 703.447 549.676 714.16 541.632 717.501Z" fill="#4C4C7F"/>
<path d="M441.865 888.828C432.828 888.828 423.801 888.237 414.857 886.882C430.799 881.465 445.261 872.181 451.214 856.354C461.8 863.565 475.728 868.088 492.978 868.088C507.893 868.088 525.288 864.71 545.162 856.772C603.731 833.381 625.502 793.859 630.136 750.396C632.165 759.228 632.549 768.454 631.222 777.305C629.508 789.587 624.716 801.265 618.269 811.861C590.67 856.323 537.447 875.931 487.988 884.562C472.78 887.111 457.302 888.828 441.865 888.828Z" fill="#4C4C7F"/>
<path d="M541.635 717.498C525.078 727.283 509.242 737.35 494.231 749.193C483.363 757.57 472.572 766.403 460.897 773.762C451.344 779.804 441.066 784.825 430.514 788.785C429.638 789.122 428.695 789.234 427.819 789.157C409.363 787.724 389.436 786.183 373.686 796.269C359.505 805.797 357.364 824.675 357.426 840.598C357.346 869.505 385.767 882.05 410.826 886.217C436.311 890.765 462.53 888.828 487.988 884.562C537.447 875.931 590.67 856.323 618.269 811.861C624.716 801.265 629.508 789.587 631.222 777.305C634.804 753.418 625.91 726.779 605.882 712.598C584.628 696.993 557.5 700.934 534.916 712.938C544.475 703.641 556.921 696.532 570.97 694.345C617.941 687.263 650.056 736.069 643.405 778.963C640.599 799.922 630.21 819.32 616.496 835.135C584.359 871.284 536.206 887.643 489.823 895.56C451.591 901.562 403.853 903.966 369.795 882.619C357.497 874.805 348.182 860.995 346.895 846.269C345.853 832.134 347.019 817.47 353.018 804.411C362.825 782.777 386.856 776.757 408.456 776.445C415.346 776.253 422.161 776.559 428.911 777.135L426.22 777.503C436.123 773.676 445.623 769.11 454.731 763.696C465.445 757.351 478.122 748.035 488.656 741.245C504.988 730.782 522.86 722.333 541.635 717.498Z" fill="#000072"/>
<path d="M399.153 809.661C386.367 808.662 373.123 808.857 360.767 812.418C360.148 812.619 359.236 812.882 358.744 813.139L356.043 802.589C370.726 801.315 385.387 804.94 399.153 809.661Z" fill="#363D56"/>
<path d="M393.752 846.857C386.46 847.373 378.958 847.544 371.66 846.844C363.883 846.034 355.802 844.803 348.749 841.034L355.242 832.292C356.111 833.238 357.59 834.17 358.738 834.931C369.195 841.412 381.693 844.648 393.752 846.857Z" fill="#363D56"/>
<path d="M433.252 854.427C417.561 842.473 415.29 815.617 430.115 802.1C429.503 806.988 428.76 811.338 428.395 815.657C427.294 829.04 429.923 841.35 433.252 854.427Z" fill="#363D56"/>
<path d="M454.094 839.723C454.094 841.65 453.992 843.509 453.791 845.294C448.98 890.527 385.848 894.313 363.282 894.313C330.895 894.313 209.639 883.241 174.717 799.904C165.056 776.831 166.38 753.419 174.962 734.869V734.854C181.01 721.78 190.659 711.122 202.613 704.715C221.435 694.577 245.958 694.951 271.131 712.938L264.421 717.501C264.953 717.718 265.485 717.947 266.005 718.163C321.475 741.709 331.139 765.428 377.684 783.139C425.134 778.836 447.554 790.14 452.841 822.454L452.853 822.513C453.689 827.698 454.094 833.427 454.094 839.723Z" fill="#5F5F82"/>
<path d="M452.841 822.454C443.681 798.555 422.588 793.073 405.164 793.073C390.398 793.073 378.274 797.008 378.274 797.008C378.274 797.008 358.057 793.887 322.57 763.887C271.131 720.397 251.285 718.998 251.285 717.501C251.285 716.777 253.015 716.307 255.632 716.307C258.422 716.307 262.218 716.839 266.005 718.163C321.475 741.709 331.139 765.428 377.683 783.139C384.078 782.561 390.018 782.264 395.521 782.264C430.867 782.264 448.268 794.493 452.841 822.454Z" fill="#CFCFD9"/>
<path d="M264.421 717.501C256.09 714.039 248.582 702.664 223.229 702.664C217.382 702.664 210.588 703.267 202.613 704.715C210.554 700.437 219.517 698.03 229.11 698.03C242.252 698.03 256.582 702.54 271.131 712.938L264.421 717.501Z" fill="#4C4C7F"/>
<path d="M363.283 894.313C330.895 894.313 209.639 883.241 174.717 799.904C170.095 788.863 167.986 777.744 167.986 767.117C167.986 755.538 170.488 744.543 174.962 734.869C175.927 784.306 195.411 830.621 260.891 856.772C280.765 864.71 298.161 868.088 313.075 868.088C356.337 868.088 378.695 839.658 379.914 811.61C389.65 822.311 377.353 858.21 393.755 868.652C396.846 870.622 401.888 871.724 407.825 871.724C423.253 871.724 444.733 864.283 453.791 845.294C451.372 868.042 434.202 880.308 414.857 886.882C406.903 889.583 398.584 891.325 390.773 892.436C379.803 893.995 369.832 894.313 363.283 894.313Z" fill="#4C4C7F"/>
<path d="M264.418 717.498C283.197 722.333 301.066 730.782 317.397 741.245C327.943 748.051 340.593 757.347 351.322 763.696C360.43 769.11 369.931 773.676 379.837 777.503L377.142 777.135C383.892 776.559 390.708 776.253 397.597 776.445C419.219 776.769 443.207 782.756 453.036 804.411C459.041 817.47 460.195 832.131 459.158 846.269C457.862 860.991 448.565 874.811 436.259 882.619C402.219 903.966 354.447 901.562 316.234 895.56C269.85 887.647 221.691 871.281 189.557 835.135C175.84 819.32 165.458 799.923 162.649 778.963C156.01 736.085 188.088 687.26 235.084 694.345C249.132 696.532 261.578 703.641 271.137 712.935C248.569 700.938 221.404 696.987 200.172 712.598C180.147 726.785 171.249 753.418 174.832 777.305C176.545 789.587 181.338 801.265 187.785 811.858C215.39 856.329 268.604 875.925 318.065 884.562C343.523 888.828 369.745 890.765 395.228 886.217C420.268 882.053 448.723 869.502 448.627 840.598C448.692 824.678 446.548 805.794 432.367 796.269C416.614 786.184 396.694 787.724 378.234 789.157C377.287 789.243 376.375 789.107 375.543 788.785C364.987 784.825 354.71 779.804 345.16 773.762C333.484 766.406 322.687 757.561 311.822 749.193C296.812 737.35 280.975 727.283 264.418 717.498Z" fill="#000072"/>
<path d="M406.9 809.661C420.667 804.94 435.328 801.315 450.01 802.589L447.309 813.139C446.808 812.879 445.905 812.622 445.286 812.418C432.93 808.857 419.686 808.662 406.9 809.661Z" fill="#000072"/>
<path d="M412.302 846.856C424.364 844.644 436.859 841.415 447.316 834.93C448.464 834.169 449.952 833.232 450.812 832.291L457.305 841.034C450.252 844.799 442.171 846.033 434.394 846.844C427.102 847.543 419.584 847.376 412.302 846.856Z" fill="#000072"/>
<path d="M372.802 854.427C376.131 841.35 378.76 829.037 377.659 815.657C377.297 811.338 376.551 806.988 375.939 802.1C390.764 815.617 388.493 842.473 372.802 854.427Z" fill="#000072"/>
<path d="M98.9999 258.079C102.796 248.439 103.585 237.528 100.547 226.793C93.1683 200.732 66.0626 185.585 40.0021 192.964C13.9417 200.339 -1.20366 227.446 6.17381 253.507C13.551 279.568 40.6577 294.714 66.7184 287.336C73.9669 285.285 80.3674 281.702 85.6786 277.043L108.909 278.138L98.9999 258.079Z" fill="white"/>
<path d="M8.89014 235.347C10.811 217.762 23.1362 202.22 41.1769 197.115C45.2206 195.971 49.3364 195.401 53.4269 195.401C60.9637 195.401 68.4157 197.326 75.1766 201.103C80.5546 204.107 85.1617 208.101 88.8122 212.837C79.9121 204.809 68.2177 200.172 55.9519 200.172C51.5317 200.172 47.0344 200.775 42.5712 202.037C25.7667 206.795 13.5037 219.755 8.89014 235.347Z" fill="white"/>
<path d="M53.4269 195.401C49.3365 195.401 45.2207 195.971 41.1769 197.115C17.4473 203.832 3.6062 228.603 10.3238 252.331C17.0414 276.063 41.813 289.907 65.543 283.184C72.0019 281.359 77.8193 278.2 82.8322 273.801C83.6706 273.062 84.7658 272.66 85.8795 272.734L101.799 273.486L95.1326 259.988C94.5943 258.899 94.5387 257.631 94.9873 256.498C98.5976 247.329 99.0833 237.463 96.3949 227.965C93.1403 216.469 85.6073 206.929 75.1766 201.103C68.4157 197.326 60.9637 195.401 53.4269 195.401ZM53.3805 293.511C30.1103 293.511 8.66682 278.151 2.02316 254.682C-5.99005 226.375 10.5199 196.825 38.827 188.812C52.5384 184.933 66.9428 186.622 79.384 193.573C91.8255 200.525 100.816 211.903 104.695 225.617C107.727 236.318 107.374 247.415 103.693 257.841L112.776 276.227C113.453 277.597 113.354 279.224 112.519 280.502C111.684 281.777 110.236 282.553 108.708 282.448L87.1726 281.43C81.5019 286.089 75.0238 289.468 67.8932 291.488C63.0557 292.855 58.1769 293.508 53.3805 293.511Z" fill="#000072"/>
<path d="M53.3738 284.883C35.7006 284.883 19.2816 274.312 12.2119 257.689C21.7379 269.068 35.6888 276.715 51.663 277.841C53.0177 277.937 54.364 277.984 55.7014 277.984C71.223 277.984 85.4619 271.651 95.7824 261.303L101.8 273.485L85.8796 272.734C85.7898 272.731 85.7032 272.728 85.6135 272.728C84.5926 272.728 83.6057 273.12 82.8323 273.801C77.8193 278.2 72.002 281.359 65.543 283.184C61.4847 284.335 57.3974 284.883 53.3738 284.883Z" fill="#B2B2D4"/>
<path d="M53.3348 289.201C31.9492 289.201 12.2861 275.101 6.17305 253.507C5.47079 251.026 4.97549 248.535 4.67139 246.054C6.70702 250.237 9.24475 254.144 12.2116 257.689C19.2812 274.312 35.7003 284.883 53.3735 284.883C57.3971 284.883 61.4844 284.335 65.5427 283.184C72.0017 281.359 77.819 278.2 82.832 273.801C83.6054 273.121 84.5923 272.728 85.6132 272.728C85.7029 272.728 85.7895 272.731 85.8792 272.734L101.799 273.486L95.7821 261.303C96.97 260.109 98.1085 258.862 99.1882 257.566C99.1232 257.736 99.0644 257.909 98.9995 258.079L108.909 278.138L85.6781 277.043C80.3669 281.702 73.9664 285.285 66.718 287.336C62.2513 288.601 57.7581 289.201 53.3348 289.201Z" fill="#000072"/>
<path d="M69.1747 226.353C64.9308 222.109 58.0498 222.87 53.8056 227.115L53.1451 227.773L52.4846 227.115C48.2404 222.87 41.3595 222.109 37.1153 226.353C32.8714 230.598 32.8714 237.478 37.1153 241.723L37.7761 242.382L51.1191 255.725C52.2381 256.845 54.0522 256.845 55.1709 255.725L68.5141 242.382L69.1747 241.723C73.4189 237.478 73.4189 230.598 69.1747 226.353Z" fill="#FF0068"/>
</svg>
