<svg width="970" height="261" viewBox="0 0 970 261" fill="none" xmlns="http://www.w3.org/2000/svg">
<path d="M325.051 235.7H357.823V177.736H359.607C365.18 191.335 379.002 200.699 397.506 200.699C426.042 200.699 445.438 179.742 445.438 138.722C445.438 97.4785 426.042 76.7453 397.506 76.7453C379.002 76.7453 365.18 85.8858 359.607 99.7079H357.823L356.708 78.9747H325.051V235.7ZM385.244 174.169C366.741 174.169 358.269 159.678 358.269 144.518V132.926C358.269 117.766 366.741 103.275 385.244 103.275C401.296 103.275 411.774 114.422 411.774 138.722C411.774 163.022 401.296 174.169 385.244 174.169Z" fill="black"/>
<path d="M499.963 200.476C518.467 200.476 532.289 191.335 537.863 177.513H539.646V198.469H572.418V78.9747H540.984L539.646 99.7079H537.863C532.289 85.8858 518.467 76.7453 499.963 76.7453C471.427 76.7453 452.255 97.4785 452.255 138.722C452.255 179.742 471.427 200.476 499.963 200.476ZM512.448 173.946C496.396 173.946 485.695 162.799 485.695 138.722C485.695 114.422 496.396 103.275 512.448 103.275C530.729 103.275 539.2 117.543 539.2 132.926V144.295C539.2 159.678 530.729 173.946 512.448 173.946Z" fill="black"/>
<path d="M591.549 198.469H624.32V132.034C624.32 116.874 633.684 103.498 650.627 103.498C666.456 103.498 673.144 113.307 673.144 133.371V198.469H705.916V126.237C705.916 90.3445 687.635 76.7453 663.78 76.7453C646.837 76.7453 632.123 84.7711 625.658 100.6H624.32L622.983 78.9747H591.549V198.469Z" fill="black"/>
<path d="M764.501 200.476C783.005 200.476 796.827 191.335 802.401 177.513H804.184L805.299 198.469H836.956V35.9478H804.184V99.7079H802.401C796.827 85.8858 783.005 76.7453 764.501 76.7453C735.965 76.7453 716.793 97.4785 716.793 138.722C716.793 179.742 735.965 200.476 764.501 200.476ZM776.986 173.946C760.934 173.946 750.233 162.799 750.233 138.722C750.233 114.422 760.934 103.275 776.986 103.275C795.267 103.275 803.738 117.543 803.738 132.926V144.295C803.738 159.678 795.267 173.946 776.986 173.946Z" fill="black"/>
<path d="M896.661 200.476C915.165 200.476 928.987 191.335 934.561 177.513H936.344V198.469H969.116V78.9747H937.682L936.344 99.7079H934.561C928.987 85.8858 915.165 76.7453 896.661 76.7453C868.125 76.7453 848.953 97.4785 848.953 138.722C848.953 179.742 868.125 200.476 896.661 200.476ZM909.146 173.946C893.094 173.946 882.393 162.799 882.393 138.722C882.393 114.422 893.094 103.275 909.146 103.275C927.427 103.275 935.898 117.543 935.898 132.926V144.295C935.898 159.678 927.427 173.946 909.146 173.946Z" fill="black"/>
<path d="M0 29.9062C0 13.3895 13.3895 0 29.9062 0H228.375C244.892 0 258.281 13.3895 258.281 29.9062V231.094C258.281 247.611 244.892 261 228.375 261H29.9062C13.3895 261 0 247.611 0 231.094V29.9062Z" fill="#F6E458"/>
<path d="M165.516 58.3403C151.266 54.247 136.732 53.6906 121.92 55.0153C113.631 55.8766 105.662 57.522 97.9756 60.4093C81.3617 66.65 68.8872 77.4585 61.4489 93.732C56.1163 105.399 54.1891 117.792 53.9882 130.508C53.7759 143.947 55.46 157.199 58.1359 170.338C60.5614 182.248 63.7916 193.924 68.4047 205.195C68.843 206.266 69.3889 206.628 70.5587 206.625C85.149 206.594 99.7394 206.594 114.33 206.594C118.649 206.594 122.969 206.594 127.288 206.593C127.619 206.593 127.949 206.575 128.33 206.554C128.524 206.543 128.731 206.532 128.957 206.522C128.87 206.313 128.791 206.121 128.718 205.942C128.573 205.588 128.448 205.281 128.307 204.981C127.252 202.724 126.175 200.476 125.098 198.228C122.762 193.353 120.427 188.478 118.314 183.508C111.907 168.434 107 152.913 105.503 136.484C104.842 129.235 104.934 122.028 106.945 114.965C109.244 106.891 114.177 101.191 122.356 98.8079C129.867 96.6197 137.481 96.6341 144.951 99.0496C151.618 101.205 155.964 105.759 157.813 112.577C159.233 117.814 159.232 123.107 158.158 128.386C157.331 132.45 155.666 136.159 152.668 139.126C147.292 144.448 140.577 145.672 133.373 145.264C132.091 145.192 130.813 145.051 129.496 144.906C128.879 144.839 128.254 144.77 127.615 144.707C127.634 144.911 127.644 145.099 127.653 145.275C127.672 145.621 127.688 145.921 127.76 146.208C128.067 147.442 128.359 148.68 128.652 149.919C129.357 152.903 130.062 155.887 130.968 158.808C132.748 164.545 134.817 170.144 137.163 175.61C153.886 174.305 169.289 170.148 185.638 160.334C185.883 160.179 186.106 160.039 186.33 159.9C193.352 155.529 199.035 149.857 202.955 142.534C209.302 130.675 210.539 117.993 208.654 104.902C206.708 91.3933 200.645 80.0538 190.209 71.1591C182.971 64.9899 174.6 60.9496 165.516 58.3403Z" fill="black"/>
</svg>
